SplineFontDB: 3.2
FontName: Kilroy5-48ptBold
FullName: Kilroy5 48pt Bold
FamilyName: Kilroy5 48pt
Weight: Bold
Copyright: Copyright 2020 The Roboto Serif Project Authors (https://github.com/googlefonts/RobotoSerif) OFL
Version: 1.008
ItalicAngle: 0
UnderlinePosition: -200
UnderlineWidth: 100
Ascent: 800
Descent: 200
InvalidEm: 0
sfntRevision: 0x0001020c
LayerCount: 2
Layer: 0 1 "Back" 1
Layer: 1 1 "Fore" 0
XUID: [1021 1018 -1064020043 20688]
StyleMap: 0x0040
FSType: 0
OS2Version: 4
OS2_WeightWidthSlopeOnly: 0
OS2_UseTypoMetrics: 1
CreationTime: 1586430965
ModificationTime: 1751912087
PfmFamily: 81
TTFWeight: 700
TTFWidth: 5
LineGap: 0
VLineGap: 0
Panose: 0 0 0 0 0 0 0 0 0 0
OS2TypoAscent: 927
OS2TypoAOffset: 0
OS2TypoDescent: -244
OS2TypoDOffset: 0
OS2TypoLinegap: 0
OS2WinAscent: 1048
OS2WinAOffset: 0
OS2WinDescent: 251
OS2WinDOffset: 0
HheadAscent: 927
HheadAOffset: 0
HheadDescent: -244
HheadDOffset: 0
OS2SubXSize: 650
OS2SubYSize: 600
OS2SubXOff: 0
OS2SubYOff: 75
OS2SupXSize: 650
OS2SupYSize: 600
OS2SupXOff: 0
OS2SupYOff: 350
OS2StrikeYSize: 100
OS2StrikeYPos: 311
OS2CapHeight: 710
OS2XHeight: 518
OS2Vendor: 'COMM'
OS2CodePages: 20000193.00000000
OS2UnicodeRanges: a10000ef.4000267a.00000000.00000000
Lookup: 5 0 0 "'locl' Localized Forms in Latin lookup 0" { "'locl' Localized Forms in Latin lookup 0 subtable"  } ['locl' ('latn' <'AZE ' 'CRT ' 'TRK ' > ) ]
Lookup: 1 0 0 "Single Substitution lookup 1" { "Single Substitution lookup 1 subtable"  } []
Lookup: 5 0 0 "'locl' Localized Forms in Latin lookup 2" { "'locl' Localized Forms in Latin lookup 2 subtable"  } ['locl' ('latn' <'PLK ' > ) ]
Lookup: 1 0 0 "Single Substitution lookup 3" { "Single Substitution lookup 3 subtable"  } []
Lookup: 6 0 0 "'locl' Localized Forms in Latin lookup 4" { "'locl' Localized Forms in Latin lookup 4 subtable"  } ['locl' ('latn' <'CAT ' > ) ]
Lookup: 4 0 0 "Ligature Substitution lookup 5" { "Ligature Substitution lookup 5 subtable"  } []

StartChar: .notdef
Encoding: 65536 -1 0
Width: 400
GlyphClass: 1
Flags: W
LayerCount: 2
Fore
SplineSet
0 0 m 1,0,-1
 0 700 l 1,1,-1
 400 700 l 1,2,-1
 400 0 l 1,3,-1
 0 0 l 1,0,-1
50 650 m 1,4,-1
 50 50 l 1,5,-1
 350 50 l 1,6,-1
 350 650 l 1,7,-1
 50 650 l 1,4,-1
EndSplineSet
EndChar

StartChar: A
Encoding: 65 65 6
Width: 721
GlyphClass: 2
Flags: W
AnchorPoint: "Anchor-2" 570 0 basechar 0
AnchorPoint: "Anchor-1" 360 0 basechar 0
AnchorPoint: "Anchor-0" 360 721 basechar 0
LayerCount: 2
Fore
SplineSet
163 305 m 1,0,-1
 435 305 l 1,1,-1
 437 212 l 1,2,-1
 158 212 l 1,3,-1
 163 305 l 1,0,-1
276 638 m 1,4,-1
 323 601 l 1,5,-1
 156 101 l 2,6,7
 156 97 156 97 162.5 92.5 c 128,-1,8
 169 88 169 88 179 86 c 128,-1,9
 189 84 189 84 201 84 c 2,10,-1
 215 84 l 1,11,-1
 215 0 l 1,12,-1
 9 0 l 1,13,-1
 9 84 l 1,14,-1
 14 84 l 2,15,16
 31 84 31 84 43 93 c 128,-1,17
 55 102 55 102 64 127 c 2,18,-1
 260 710 l 1,19,-1
 450 710 l 1,20,-1
 652 113 l 2,21,22
 658 95 658 95 673.5 89.5 c 128,-1,23
 689 84 689 84 708 84 c 2,24,-1
 712 84 l 1,25,-1
 712 0 l 1,26,-1
 388 0 l 1,27,-1
 388 84 l 1,28,-1
 403 84 l 2,29,30
 417 84 417 84 429 85 c 128,-1,31
 441 86 441 86 449 88.5 c 128,-1,32
 457 91 457 91 457 94 c 2,33,-1
 276 638 l 1,4,-1
EndSplineSet
EndChar

StartChar: Aogonek
Encoding: 260 260 15
Width: 721
GlyphClass: 1
Flags: W
LayerCount: 2
Fore
SplineSet
168 303 m 1,0,-1
 437 303 l 1,1,-1
 438 227 l 1,2,-1
 155 227 l 1,3,-1
 168 303 l 1,0,-1
524 47 m 1,4,-1
 569 12 l 1,5,6
 524 -11 524 -11 499.5 -33 c 128,-1,7
 475 -55 475 -55 465 -75 c 128,-1,8
 455 -95 455 -95 455 -111 c 0,9,10
 455 -131 455 -131 464.5 -141.5 c 128,-1,11
 474 -152 474 -152 492 -152 c 0,12,13
 507 -152 507 -152 519.5 -144.5 c 128,-1,14
 532 -137 532 -137 542 -128 c 1,15,-1
 585 -176 l 1,16,17
 561 -205 561 -205 529 -223.5 c 128,-1,18
 497 -242 497 -242 444 -242 c 0,19,20
 386 -242 386 -242 350 -215.5 c 128,-1,21
 314 -189 314 -189 314 -137 c 0,22,23
 314 -109 314 -109 327 -84 c 128,-1,24
 340 -59 340 -59 366.5 -36 c 128,-1,25
 393 -13 393 -13 432.5 7.5 c 128,-1,26
 472 28 472 28 524 47 c 1,4,-1
712 0 m 1,27,-1
 487 0 l 1,28,-1
 276 638 l 1,29,-1
 329 618 l 1,30,-1
 156 102 l 2,31,32
 156 96 156 96 162 92 c 128,-1,33
 168 88 168 88 178 86 c 128,-1,34
 188 84 188 84 200 84 c 2,35,-1
 214 84 l 1,36,-1
 214 0 l 1,37,-1
 9 0 l 1,38,-1
 9 84 l 1,39,-1
 14 84 l 2,40,41
 31 84 31 84 43.5 93 c 128,-1,42
 56 102 56 102 64 128 c 2,43,-1
 260 710 l 1,44,-1
 450 710 l 1,45,-1
 653 113 l 2,46,47
 659 95 659 95 674 89.5 c 128,-1,48
 689 84 689 84 708 84 c 2,49,-1
 712 84 l 1,50,-1
 712 0 l 1,27,-1
EndSplineSet
EndChar

StartChar: Acaron
Encoding: 461 461 16
Width: 721
GlyphClass: 1
Flags: W
LayerCount: 2
Fore
SplineSet
290 753 m 1,0,-1
 425 753 l 1,1,-1
 537 884 l 1,2,-1
 537 910 l 1,3,-1
 452 910 l 1,4,-1
 312 816 l 1,5,-1
 412 816 l 1,6,-1
 271 910 l 1,7,-1
 179 910 l 1,8,-1
 179 884 l 1,9,-1
 290 753 l 1,0,-1
163 305 m 1,10,-1
 435 305 l 1,11,-1
 437 212 l 1,12,-1
 158 212 l 1,13,-1
 163 305 l 1,10,-1
276 638 m 1,14,-1
 323 601 l 1,15,-1
 156 102 l 2,16,17
 156 97 156 97 162.5 92.5 c 128,-1,18
 169 88 169 88 179 86 c 128,-1,19
 189 84 189 84 201 84 c 2,20,-1
 215 84 l 1,21,-1
 215 0 l 1,22,-1
 9 0 l 1,23,-1
 9 84 l 1,24,-1
 14 84 l 2,25,26
 31 84 31 84 43 93 c 128,-1,27
 55 102 55 102 64 127 c 2,28,-1
 260 710 l 1,29,-1
 450 710 l 1,30,-1
 652 113 l 2,31,32
 658 95 658 95 673.5 89.5 c 128,-1,33
 689 84 689 84 708 84 c 2,34,-1
 712 84 l 1,35,-1
 712 0 l 1,36,-1
 388 0 l 1,37,-1
 388 84 l 1,38,-1
 403 84 l 2,39,40
 417 84 417 84 429 85 c 128,-1,41
 441 86 441 86 449 88.5 c 128,-1,42
 457 91 457 91 457 94 c 2,43,-1
 276 638 l 1,14,-1
EndSplineSet
EndChar

StartChar: Adblgrave
Encoding: 512 512 18
Width: 721
GlyphClass: 1
Flags: W
LayerCount: 2
Fore
SplineSet
476 851 m 2,0,-1
 489 781 l 1,1,-1
 489 746 l 1,2,-1
 420 746 l 1,3,-1
 380 789 l 2,4,5
 353 820 353 820 341.5 842.5 c 128,-1,6
 330 865 330 865 330 887 c 0,7,8
 330 911 330 911 347.5 927 c 128,-1,9
 365 943 365 943 396 943 c 0,10,11
 421 943 421 943 436.5 932.5 c 128,-1,12
 452 922 452 922 461.5 902 c 128,-1,13
 471 882 471 882 476 851 c 2,0,-1
289 851 m 2,14,-1
 302 781 l 1,15,-1
 302 746 l 1,16,-1
 234 746 l 1,17,-1
 194 789 l 2,18,19
 166 820 166 820 154.5 842.5 c 128,-1,20
 143 865 143 865 143 887 c 0,21,22
 143 911 143 911 161 927 c 128,-1,23
 179 943 179 943 210 943 c 0,24,25
 234 943 234 943 250 932.5 c 128,-1,26
 266 922 266 922 275.5 902 c 128,-1,27
 285 882 285 882 289 851 c 2,14,-1
163 305 m 1,28,-1
 435 305 l 1,29,-1
 437 212 l 1,30,-1
 158 212 l 1,31,-1
 163 305 l 1,28,-1
276 638 m 1,32,-1
 323 601 l 1,33,-1
 156 102 l 2,34,35
 156 97 156 97 162.5 92.5 c 128,-1,36
 169 88 169 88 179 86 c 128,-1,37
 189 84 189 84 201 84 c 2,38,-1
 215 84 l 1,39,-1
 215 0 l 1,40,-1
 9 0 l 1,41,-1
 9 84 l 1,42,-1
 14 84 l 2,43,44
 31 84 31 84 43 93 c 128,-1,45
 55 102 55 102 64 127 c 2,46,-1
 260 710 l 1,47,-1
 450 710 l 1,48,-1
 652 113 l 2,49,50
 658 95 658 95 673.5 89.5 c 128,-1,51
 689 84 689 84 708 84 c 2,52,-1
 712 84 l 1,53,-1
 712 0 l 1,54,-1
 388 0 l 1,55,-1
 388 84 l 1,56,-1
 403 84 l 2,57,58
 417 84 417 84 429 85 c 128,-1,59
 441 86 441 86 449 88.5 c 128,-1,60
 457 91 457 91 457 94 c 2,61,-1
 276 638 l 1,32,-1
EndSplineSet
EndChar

StartChar: Ainvertedbreve
Encoding: 514 514 19
Width: 721
GlyphClass: 1
Flags: W
LayerCount: 2
Fore
SplineSet
357 914 m 0,0,1
 309 914 309 914 273 896.5 c 128,-1,2
 237 879 237 879 215.5 844.5 c 128,-1,3
 194 810 194 810 191 756 c 1,4,-1
 281 756 l 1,5,6
 285 777 285 777 294.5 789 c 128,-1,7
 304 801 304 801 319 806 c 128,-1,8
 334 811 334 811 354 811 c 256,9,10
 374 811 374 811 389.5 806 c 128,-1,11
 405 801 405 801 415 789 c 128,-1,12
 425 777 425 777 429 756 c 1,13,-1
 523 756 l 1,14,15
 521 810 521 810 499 844.5 c 128,-1,16
 477 879 477 879 440.5 896.5 c 128,-1,17
 404 914 404 914 357 914 c 0,0,1
163 305 m 1,18,-1
 435 305 l 1,19,-1
 437 212 l 1,20,-1
 158 212 l 1,21,-1
 163 305 l 1,18,-1
276 638 m 1,22,-1
 323 601 l 1,23,-1
 156 102 l 2,24,25
 156 97 156 97 162.5 92.5 c 128,-1,26
 169 88 169 88 179 86 c 128,-1,27
 189 84 189 84 201 84 c 2,28,-1
 215 84 l 1,29,-1
 215 0 l 1,30,-1
 9 0 l 1,31,-1
 9 84 l 1,32,-1
 14 84 l 2,33,34
 31 84 31 84 43 93 c 128,-1,35
 55 102 55 102 64 127 c 2,36,-1
 260 710 l 1,37,-1
 450 710 l 1,38,-1
 652 113 l 2,39,40
 658 95 658 95 673.5 89.5 c 128,-1,41
 689 84 689 84 708 84 c 2,42,-1
 712 84 l 1,43,-1
 712 0 l 1,44,-1
 388 0 l 1,45,-1
 388 84 l 1,46,-1
 403 84 l 2,47,48
 417 84 417 84 429 85 c 128,-1,49
 441 86 441 86 449 88.5 c 128,-1,50
 457 91 457 91 457 94 c 2,51,-1
 276 638 l 1,22,-1
EndSplineSet
EndChar

StartChar: B
Encoding: 66 66 32
Width: 717
GlyphClass: 2
Flags: W
AnchorPoint: "Anchor-0" 319 741 basechar 0
LayerCount: 2
Fore
SplineSet
394 710 m 2,0,1
 457 710 457 710 505.5 698 c 128,-1,2
 554 686 554 686 586.5 663.5 c 128,-1,3
 619 641 619 641 636 609 c 128,-1,4
 653 577 653 577 653 538 c 0,5,6
 653 484 653 484 624 447 c 128,-1,7
 595 410 595 410 543.5 390.5 c 128,-1,8
 492 371 492 371 423 369 c 1,9,-1
 464 389 l 1,10,-1
 464 361 l 1,11,-1
 431 382 l 1,12,13
 506 380 506 380 562.5 359 c 128,-1,14
 619 338 619 338 651 298 c 128,-1,15
 683 258 683 258 683 200 c 0,16,17
 683 154 683 154 664.5 117 c 128,-1,18
 646 80 646 80 610.5 53.5 c 128,-1,19
 575 27 575 27 523 13.5 c 128,-1,20
 471 0 471 0 403 0 c 2,21,-1
 30 0 l 1,22,-1
 30 84 l 1,23,-1
 40 84 l 2,24,25
 64 84 64 84 80.5 91 c 128,-1,26
 97 98 97 98 97 119 c 2,27,-1
 97 591 l 2,28,29
 97 612 97 612 80.5 619 c 128,-1,30
 64 626 64 626 40 626 c 2,31,-1
 30 626 l 1,32,-1
 30 710 l 1,33,-1
 394 710 l 2,0,1
261 416 m 1,34,-1
 347 416 l 2,35,36
 387 416 387 416 411.5 428 c 128,-1,37
 436 440 436 440 447 463.5 c 128,-1,38
 458 487 458 487 458 520 c 256,39,40
 458 553 458 553 446 574.5 c 128,-1,41
 434 596 434 596 411 607 c 128,-1,42
 388 618 388 618 352 618 c 2,43,-1
 293 618 l 1,44,-1
 293 92 l 1,45,-1
 359 92 l 2,46,47
 400 92 400 92 428 105 c 128,-1,48
 456 118 456 118 470 144.5 c 128,-1,49
 484 171 484 171 484 212 c 0,50,51
 484 247 484 247 470.5 272.5 c 128,-1,52
 457 298 457 298 428.5 312 c 128,-1,53
 400 326 400 326 354 326 c 2,54,-1
 261 326 l 1,55,-1
 261 416 l 1,34,-1
EndSplineSet
EndChar

StartChar: C
Encoding: 67 67 33
Width: 700
GlyphClass: 2
Flags: W
AnchorPoint: "Anchor-1" 370 0 basechar 0
AnchorPoint: "Anchor-0" 370 741 basechar 0
LayerCount: 2
Fore
SplineSet
407 621 m 0,0,1
 367 621 367 621 336 602.5 c 128,-1,2
 305 584 305 584 283.5 549.5 c 128,-1,3
 262 515 262 515 251 466 c 128,-1,4
 240 417 240 417 240 355 c 0,5,6
 240 290 240 290 251.5 240.5 c 128,-1,7
 263 191 263 191 285 157 c 128,-1,8
 307 123 307 123 339.5 106 c 128,-1,9
 372 89 372 89 414 89 c 0,10,11
 459 89 459 89 494 111 c 128,-1,12
 529 133 529 133 553.5 172.5 c 128,-1,13
 578 212 578 212 589 266 c 1,14,-1
 672 235 l 1,15,16
 657 163 657 163 620.5 107.5 c 128,-1,17
 584 52 584 52 526.5 21 c 128,-1,18
 469 -10 469 -10 388 -10 c 0,19,20
 311 -10 311 -10 247 16 c 128,-1,21
 183 42 183 42 135 90.5 c 128,-1,22
 87 139 87 139 61 206 c 128,-1,23
 35 273 35 273 35 355 c 256,24,25
 35 437 35 437 62 504 c 128,-1,26
 89 571 89 571 136.5 619.5 c 128,-1,27
 184 668 184 668 246.5 694 c 128,-1,28
 309 720 309 720 379 720 c 0,29,30
 450 720 450 720 496.5 696 c 128,-1,31
 543 672 543 672 571 631 c 128,-1,32
 599 590 599 590 614 536 c 1,33,-1
 556 548 l 1,34,-1
 575 710 l 1,35,-1
 661 710 l 1,36,-1
 661 488 l 1,37,-1
 564 488 l 1,38,39
 552 526 552 526 531.5 556 c 128,-1,40
 511 586 511 586 480.5 603.5 c 128,-1,41
 450 621 450 621 407 621 c 0,0,1
EndSplineSet
EndChar

StartChar: Ccaron
Encoding: 268 268 38
Width: 700
GlyphClass: 1
Flags: W
LayerCount: 2
Fore
SplineSet
302 753 m 1,0,-1
 438 753 l 1,1,-1
 549 884 l 1,2,-1
 549 910 l 1,3,-1
 465 910 l 1,4,-1
 325 816 l 1,5,-1
 424 816 l 1,6,-1
 284 910 l 1,7,-1
 191 910 l 1,8,-1
 191 884 l 1,9,-1
 302 753 l 1,0,-1
407 621 m 0,10,11
 367 621 367 621 336 602.5 c 128,-1,12
 305 584 305 584 283.5 549.5 c 128,-1,13
 262 515 262 515 251 466 c 128,-1,14
 240 417 240 417 240 355 c 0,15,16
 240 290 240 290 251.5 240.5 c 128,-1,17
 263 191 263 191 285 157 c 128,-1,18
 307 123 307 123 339.5 106 c 128,-1,19
 372 89 372 89 414 89 c 0,20,21
 459 89 459 89 494 111 c 128,-1,22
 529 133 529 133 553.5 172.5 c 128,-1,23
 578 212 578 212 589 266 c 1,24,-1
 672 235 l 1,25,26
 657 163 657 163 620.5 107.5 c 128,-1,27
 584 52 584 52 526.5 21 c 128,-1,28
 469 -10 469 -10 388 -10 c 0,29,30
 311 -10 311 -10 247 16 c 128,-1,31
 183 42 183 42 135 90.5 c 128,-1,32
 87 139 87 139 61 206 c 128,-1,33
 35 273 35 273 35 355 c 256,34,35
 35 437 35 437 62 504 c 128,-1,36
 89 571 89 571 136.5 619.5 c 128,-1,37
 184 668 184 668 246.5 694 c 128,-1,38
 309 720 309 720 379 720 c 0,39,40
 450 720 450 720 496.5 696 c 128,-1,41
 543 672 543 672 571 631 c 128,-1,42
 599 590 599 590 614 536 c 1,43,-1
 556 548 l 1,44,-1
 575 710 l 1,45,-1
 661 710 l 1,46,-1
 661 488 l 1,47,-1
 564 488 l 1,48,49
 552 526 552 526 531.5 556 c 128,-1,50
 511 586 511 586 480.5 603.5 c 128,-1,51
 450 621 450 621 407 621 c 0,10,11
EndSplineSet
EndChar

StartChar: D
Encoding: 68 68 40
Width: 801
GlyphClass: 2
Flags: W
AnchorPoint: "Anchor-1" 403 0 basechar 0
AnchorPoint: "Anchor-0" 403 741 basechar 0
LayerCount: 2
Fore
SplineSet
30 626 m 1,0,-1
 30 710 l 1,1,-1
 374 710 l 2,2,3
 461 710 461 710 532.5 686.5 c 128,-1,4
 604 663 604 663 656.5 617.5 c 128,-1,5
 709 572 709 572 737.5 506 c 128,-1,6
 766 440 766 440 766 357 c 256,7,8
 766 274 766 274 737.5 208 c 128,-1,9
 709 142 709 142 656.5 95.5 c 128,-1,10
 604 49 604 49 532.5 24.5 c 128,-1,11
 461 0 461 0 374 0 c 2,12,-1
 30 0 l 1,13,-1
 30 84 l 1,14,-1
 41 84 l 2,15,16
 64 84 64 84 80.5 91 c 128,-1,17
 97 98 97 98 97 120 c 2,18,-1
 97 590 l 2,19,20
 97 610 97 610 80.5 618 c 128,-1,21
 64 626 64 626 41 626 c 2,22,-1
 30 626 l 1,0,-1
368 615 m 2,23,-1
 293 615 l 1,24,-1
 293 95 l 1,25,-1
 368 95 l 2,26,27
 412 95 412 95 447.5 112 c 128,-1,28
 483 129 483 129 508.5 162 c 128,-1,29
 534 195 534 195 547.5 244 c 128,-1,30
 561 293 561 293 561 357 c 256,31,32
 561 421 561 421 547.5 469 c 128,-1,33
 534 517 534 517 508.5 550 c 128,-1,34
 483 583 483 583 447.5 599 c 128,-1,35
 412 615 412 615 368 615 c 2,23,-1
EndSplineSet
EndChar

StartChar: Dcaron
Encoding: 270 270 41
Width: 801
GlyphClass: 1
Flags: W
LayerCount: 2
Fore
SplineSet
314 753 m 1,0,-1
 449 753 l 1,1,-1
 561 884 l 1,2,-1
 561 910 l 1,3,-1
 476 910 l 1,4,-1
 336 816 l 1,5,-1
 436 816 l 1,6,-1
 295 910 l 1,7,-1
 203 910 l 1,8,-1
 203 884 l 1,9,-1
 314 753 l 1,0,-1
30 626 m 1,10,-1
 30 710 l 1,11,-1
 374 710 l 2,12,13
 461 710 461 710 532.5 686.5 c 128,-1,14
 604 663 604 663 656.5 617.5 c 128,-1,15
 709 572 709 572 737.5 506 c 128,-1,16
 766 440 766 440 766 357 c 256,17,18
 766 274 766 274 737.5 208 c 128,-1,19
 709 142 709 142 656.5 95.5 c 128,-1,20
 604 49 604 49 532.5 24.5 c 128,-1,21
 461 0 461 0 374 0 c 2,22,-1
 30 0 l 1,23,-1
 30 84 l 1,24,-1
 41 84 l 2,25,26
 64 84 64 84 80.5 91 c 128,-1,27
 97 98 97 98 97 120 c 2,28,-1
 97 590 l 2,29,30
 97 610 97 610 80.5 618 c 128,-1,31
 64 626 64 626 41 626 c 2,32,-1
 30 626 l 1,10,-1
368 615 m 2,33,-1
 293 615 l 1,34,-1
 293 95 l 1,35,-1
 368 95 l 2,36,37
 412 95 412 95 447.5 112 c 128,-1,38
 483 129 483 129 508.5 162 c 128,-1,39
 534 195 534 195 547.5 244 c 128,-1,40
 561 293 561 293 561 357 c 256,41,42
 561 421 561 421 547.5 469 c 128,-1,43
 534 517 534 517 508.5 550 c 128,-1,44
 483 583 483 583 447.5 599 c 128,-1,45
 412 615 412 615 368 615 c 2,33,-1
EndSplineSet
EndChar

StartChar: E
Encoding: 69 69 44
Width: 643
GlyphClass: 2
Flags: W
AnchorPoint: "Anchor-2" 444 0 basechar 0
AnchorPoint: "Anchor-1" 380 0 basechar 0
AnchorPoint: "Anchor-0" 376 741 basechar 0
LayerCount: 2
Fore
SplineSet
607 224 m 1,0,-1
 607 0 l 1,1,-1
 30 0 l 1,2,-1
 30 84 l 1,3,-1
 40 84 l 2,4,5
 64 84 64 84 80.5 91 c 128,-1,6
 97 98 97 98 97 120 c 2,7,-1
 97 590 l 2,8,9
 97 612 97 612 80.5 619 c 128,-1,10
 64 626 64 626 40 626 c 2,11,-1
 30 626 l 1,12,-1
 30 710 l 1,13,-1
 580 710 l 1,14,-1
 580 511 l 1,15,-1
 485 511 l 1,16,-1
 476 572 l 2,17,18
 474 590 474 590 464.5 599.5 c 128,-1,19
 455 609 455 609 436 612.5 c 128,-1,20
 417 616 417 616 387 616 c 2,21,-1
 293 616 l 1,22,-1
 293 94 l 1,23,-1
 396 94 l 2,24,25
 424 94 424 94 443 96 c 128,-1,26
 462 98 462 98 474 103 c 128,-1,27
 486 108 486 108 491.5 116.5 c 128,-1,28
 497 125 497 125 499 139 c 2,29,-1
 509 224 l 1,30,-1
 607 224 l 1,0,-1
266 403 m 1,31,32
 307 406 307 406 345.5 408.5 c 128,-1,33
 384 411 384 411 421 414.5 c 128,-1,34
 458 418 458 418 494 421 c 1,35,-1
 494 305 l 1,36,37
 458 309 458 309 421 312.5 c 128,-1,38
 384 316 384 316 345.5 318.5 c 128,-1,39
 307 321 307 321 266 323 c 1,40,-1
 266 403 l 1,31,32
EndSplineSet
Substitution2: "'ss01' Style Set 1 lookup 61 subtable" E.alt
EndChar

StartChar: Ecaron
Encoding: 282 282 53
Width: 643
GlyphClass: 1
Flags: W
LayerCount: 2
Fore
SplineSet
255 753 m 1,0,-1
 390 753 l 1,1,-1
 502 884 l 1,2,-1
 502 910 l 1,3,-1
 417 910 l 1,4,-1
 277 816 l 1,5,-1
 377 816 l 1,6,-1
 236 910 l 1,7,-1
 144 910 l 1,8,-1
 144 884 l 1,9,-1
 255 753 l 1,0,-1
607 224 m 1,10,-1
 607 0 l 1,11,-1
 30 0 l 1,12,-1
 30 84 l 1,13,-1
 40 84 l 2,14,15
 64 84 64 84 80.5 91 c 128,-1,16
 97 98 97 98 97 120 c 2,17,-1
 97 590 l 2,18,19
 97 612 97 612 80.5 619 c 128,-1,20
 64 626 64 626 40 626 c 2,21,-1
 30 626 l 1,22,-1
 30 710 l 1,23,-1
 580 710 l 1,24,-1
 580 511 l 1,25,-1
 485 511 l 1,26,-1
 476 572 l 2,27,28
 474 590 474 590 464.5 599.5 c 128,-1,29
 455 609 455 609 436 612.5 c 128,-1,30
 417 616 417 616 387 616 c 2,31,-1
 293 616 l 1,32,-1
 293 94 l 1,33,-1
 396 94 l 2,34,35
 424 94 424 94 443 96 c 128,-1,36
 462 98 462 98 474 103 c 128,-1,37
 486 108 486 108 491.5 116.5 c 128,-1,38
 497 125 497 125 499 139 c 2,39,-1
 509 224 l 1,40,-1
 607 224 l 1,10,-1
266 403 m 1,41,42
 307 406 307 406 345.5 408.5 c 128,-1,43
 384 411 384 411 421 414.5 c 128,-1,44
 458 418 458 418 494 421 c 1,45,-1
 494 305 l 1,46,47
 458 309 458 309 421 312.5 c 128,-1,48
 384 316 384 316 345.5 318.5 c 128,-1,49
 307 321 307 321 266 323 c 1,50,-1
 266 403 l 1,41,42
EndSplineSet
Substitution2: "'ss01' Style Set 1 lookup 61 subtable" Ecaron.alt
EndChar

StartChar: Edblgrave
Encoding: 516 516 54
Width: 643
GlyphClass: 1
Flags: W
LayerCount: 2
Fore
SplineSet
472 851 m 2,0,-1
 485 781 l 1,1,-1
 485 746 l 1,2,-1
 417 746 l 1,3,-1
 377 789 l 2,4,5
 349 820 349 820 337.5 842.5 c 128,-1,6
 326 865 326 865 326 887 c 0,7,8
 326 911 326 911 344 927 c 128,-1,9
 362 943 362 943 393 943 c 0,10,11
 417 943 417 943 433 932.5 c 128,-1,12
 449 922 449 922 458.5 902 c 128,-1,13
 468 882 468 882 472 851 c 2,0,-1
286 851 m 2,14,-1
 299 781 l 1,15,-1
 299 746 l 1,16,-1
 230 746 l 1,17,-1
 190 789 l 2,18,19
 163 820 163 820 151.5 842.5 c 128,-1,20
 140 865 140 865 140 887 c 0,21,22
 140 911 140 911 157.5 927 c 128,-1,23
 175 943 175 943 206 943 c 0,24,25
 231 943 231 943 246.5 932.5 c 128,-1,26
 262 922 262 922 271.5 902 c 128,-1,27
 281 882 281 882 286 851 c 2,14,-1
607 224 m 1,28,-1
 607 0 l 1,29,-1
 30 0 l 1,30,-1
 30 84 l 1,31,-1
 40 84 l 2,32,33
 64 84 64 84 80.5 91 c 128,-1,34
 97 98 97 98 97 120 c 2,35,-1
 97 590 l 2,36,37
 97 612 97 612 80.5 619 c 128,-1,38
 64 626 64 626 40 626 c 2,39,-1
 30 626 l 1,40,-1
 30 710 l 1,41,-1
 580 710 l 1,42,-1
 580 511 l 1,43,-1
 485 511 l 1,44,-1
 476 572 l 2,45,46
 474 590 474 590 464.5 599.5 c 128,-1,47
 455 609 455 609 436 612.5 c 128,-1,48
 417 616 417 616 387 616 c 2,49,-1
 293 616 l 1,50,-1
 293 94 l 1,51,-1
 396 94 l 2,52,53
 424 94 424 94 443 96 c 128,-1,54
 462 98 462 98 474 103 c 128,-1,55
 486 108 486 108 491.5 116.5 c 128,-1,56
 497 125 497 125 499 139 c 2,57,-1
 509 224 l 1,58,-1
 607 224 l 1,28,-1
266 403 m 1,59,60
 307 406 307 406 345.5 408.5 c 128,-1,61
 384 411 384 411 421 414.5 c 128,-1,62
 458 418 458 418 494 421 c 1,63,-1
 494 305 l 1,64,65
 458 309 458 309 421 312.5 c 128,-1,66
 384 316 384 316 345.5 318.5 c 128,-1,67
 307 321 307 321 266 323 c 1,68,-1
 266 403 l 1,59,60
EndSplineSet
Substitution2: "'ss01' Style Set 1 lookup 61 subtable" Edblgrave.alt
EndChar

StartChar: Einvertedbreve
Encoding: 518 518 55
Width: 643
GlyphClass: 1
Flags: W
LayerCount: 2
Fore
SplineSet
326 914 m 0,0,1
 278 914 278 914 242 896.5 c 128,-1,2
 206 879 206 879 184.5 844.5 c 128,-1,3
 163 810 163 810 160 756 c 1,4,-1
 250 756 l 1,5,6
 254 777 254 777 263.5 789.5 c 128,-1,7
 273 802 273 802 288 806.5 c 128,-1,8
 303 811 303 811 323 811 c 256,9,10
 343 811 343 811 358.5 806 c 128,-1,11
 374 801 374 801 384 789 c 128,-1,12
 394 777 394 777 398 756 c 1,13,-1
 492 756 l 1,14,15
 490 810 490 810 468 844.5 c 128,-1,16
 446 879 446 879 409.5 896.5 c 128,-1,17
 373 914 373 914 326 914 c 0,0,1
607 224 m 1,18,-1
 607 0 l 1,19,-1
 30 0 l 1,20,-1
 30 84 l 1,21,-1
 40 84 l 2,22,23
 64 84 64 84 80.5 91 c 128,-1,24
 97 98 97 98 97 120 c 2,25,-1
 97 590 l 2,26,27
 97 612 97 612 80.5 619 c 128,-1,28
 64 626 64 626 40 626 c 2,29,-1
 30 626 l 1,30,-1
 30 710 l 1,31,-1
 580 710 l 1,32,-1
 580 511 l 1,33,-1
 485 511 l 1,34,-1
 476 572 l 2,35,36
 474 590 474 590 464.5 599.5 c 128,-1,37
 455 609 455 609 436 612.5 c 128,-1,38
 417 616 417 616 387 616 c 2,39,-1
 293 616 l 1,40,-1
 293 94 l 1,41,-1
 396 94 l 2,42,43
 424 94 424 94 443 96 c 128,-1,44
 462 98 462 98 474 103 c 128,-1,45
 486 108 486 108 491.5 116.5 c 128,-1,46
 497 125 497 125 499 139 c 2,47,-1
 509 224 l 1,48,-1
 607 224 l 1,18,-1
266 403 m 1,49,50
 307 406 307 406 345.5 408.5 c 128,-1,51
 384 411 384 411 421 414.5 c 128,-1,52
 458 418 458 418 494 421 c 1,53,-1
 494 305 l 1,54,55
 458 309 458 309 421 312.5 c 128,-1,56
 384 316 384 316 345.5 318.5 c 128,-1,57
 307 321 307 321 266 323 c 1,58,-1
 266 403 l 1,49,50
EndSplineSet
Substitution2: "'ss01' Style Set 1 lookup 61 subtable" Einvertedbreve.alt
EndChar

StartChar: F
Encoding: 70 70 67
Width: 615
GlyphClass: 2
Flags: W
AnchorPoint: "Anchor-0" 312 741 basechar 0
LayerCount: 2
Fore
SplineSet
293 616 m 1,0,-1
 293 119 l 2,1,2
 293 106 293 106 299 99 c 128,-1,3
 305 92 305 92 315.5 89 c 128,-1,4
 326 86 326 86 338.5 85 c 128,-1,5
 351 84 351 84 363 84 c 2,6,-1
 380 84 l 1,7,-1
 380 0 l 1,8,-1
 30 0 l 1,9,-1
 30 84 l 1,10,-1
 40 84 l 2,11,12
 64 84 64 84 80.5 91 c 128,-1,13
 97 98 97 98 97 120 c 2,14,-1
 97 590 l 2,15,16
 97 612 97 612 80.5 619 c 128,-1,17
 64 626 64 626 40 626 c 2,18,-1
 30 626 l 1,19,-1
 30 710 l 1,20,-1
 585 710 l 1,21,-1
 585 511 l 1,22,-1
 489 511 l 1,23,-1
 481 572 l 2,24,25
 479 590 479 590 468.5 599.5 c 128,-1,26
 458 609 458 609 439 612.5 c 128,-1,27
 420 616 420 616 390 616 c 2,28,-1
 293 616 l 1,0,-1
266 397 m 1,29,30
 309 400 309 400 348 402.5 c 128,-1,31
 387 405 387 405 425.5 408 c 128,-1,32
 464 411 464 411 501 415 c 1,33,-1
 501 299 l 1,34,35
 464 303 464 303 425.5 306.5 c 128,-1,36
 387 310 387 310 348 312.5 c 128,-1,37
 309 315 309 315 266 317 c 1,38,-1
 266 397 l 1,29,30
EndSplineSet
Substitution2: "'ss01' Style Set 1 lookup 61 subtable" F.alt
EndChar

StartChar: G
Encoding: 71 71 68
Width: 769
GlyphClass: 2
Flags: W
AnchorPoint: "Anchor-1" 392 0 basechar 0
AnchorPoint: "Anchor-0" 392 741 basechar 0
LayerCount: 2
Fore
SplineSet
697 243 m 2,0,-1
 697 100 l 1,1,2
 682 81 682 81 653.5 61 c 128,-1,3
 625 41 625 41 586 25 c 128,-1,4
 547 9 547 9 501 -0.5 c 128,-1,5
 455 -10 455 -10 403 -10 c 0,6,7
 321 -10 321 -10 253 16 c 128,-1,8
 185 42 185 42 136 90 c 128,-1,9
 87 138 87 138 61 205 c 128,-1,10
 35 272 35 272 35 355 c 0,11,12
 35 435 35 435 62.5 502 c 128,-1,13
 90 569 90 569 139 618 c 128,-1,14
 188 667 188 667 253.5 693.5 c 128,-1,15
 319 720 319 720 395 720 c 0,16,17
 468 720 468 720 515 696.5 c 128,-1,18
 562 673 562 673 590.5 632 c 128,-1,19
 619 591 619 591 636 537 c 1,20,-1
 581 549 l 1,21,-1
 601 710 l 1,22,-1
 682 710 l 1,23,-1
 682 489 l 1,24,-1
 587 489 l 1,25,26
 573 525 573 525 551.5 554.5 c 128,-1,27
 530 584 530 584 497.5 602.5 c 128,-1,28
 465 621 465 621 419 621 c 0,29,30
 377 621 377 621 344 602 c 128,-1,31
 311 583 311 583 287.5 547.5 c 128,-1,32
 264 512 264 512 252 463 c 128,-1,33
 240 414 240 414 240 355 c 0,34,35
 240 291 240 291 251.5 241.5 c 128,-1,36
 263 192 263 192 286 158 c 128,-1,37
 309 124 309 124 341.5 106 c 128,-1,38
 374 88 374 88 415 88 c 0,39,40
 442 88 442 88 462.5 94 c 128,-1,41
 483 100 483 100 497 108.5 c 128,-1,42
 511 117 511 117 519 124 c 1,43,-1
 519 243 l 2,44,45
 519 264 519 264 502 271 c 128,-1,46
 485 278 485 278 458 278 c 2,47,-1
 449 278 l 1,48,-1
 449 361 l 1,49,-1
 752 361 l 1,50,-1
 752 278 l 1,51,-1
 746 278 l 2,52,53
 726 278 726 278 711.5 271 c 128,-1,54
 697 264 697 264 697 243 c 2,0,-1
EndSplineSet
EndChar

StartChar: Gcaron
Encoding: 486 486 73
Width: 769
GlyphClass: 1
Flags: W
LayerCount: 2
Fore
SplineSet
326 753 m 1,0,-1
 461 753 l 1,1,-1
 572 884 l 1,2,-1
 572 910 l 1,3,-1
 488 910 l 1,4,-1
 348 816 l 1,5,-1
 447 816 l 1,6,-1
 307 910 l 1,7,-1
 215 910 l 1,8,-1
 215 884 l 1,9,-1
 326 753 l 1,0,-1
697 243 m 2,10,-1
 697 100 l 1,11,12
 682 81 682 81 653.5 61 c 128,-1,13
 625 41 625 41 586 25 c 128,-1,14
 547 9 547 9 501 -0.5 c 128,-1,15
 455 -10 455 -10 403 -10 c 0,16,17
 321 -10 321 -10 253 16 c 128,-1,18
 185 42 185 42 136 90 c 128,-1,19
 87 138 87 138 61 205 c 128,-1,20
 35 272 35 272 35 355 c 0,21,22
 35 435 35 435 62.5 502 c 128,-1,23
 90 569 90 569 139 618 c 128,-1,24
 188 667 188 667 253.5 693.5 c 128,-1,25
 319 720 319 720 395 720 c 0,26,27
 468 720 468 720 515 696.5 c 128,-1,28
 562 673 562 673 590.5 632 c 128,-1,29
 619 591 619 591 636 537 c 1,30,-1
 581 549 l 1,31,-1
 601 710 l 1,32,-1
 682 710 l 1,33,-1
 682 489 l 1,34,-1
 587 489 l 1,35,36
 573 525 573 525 551.5 554.5 c 128,-1,37
 530 584 530 584 497.5 602.5 c 128,-1,38
 465 621 465 621 419 621 c 0,39,40
 377 621 377 621 344 602 c 128,-1,41
 311 583 311 583 287.5 547.5 c 128,-1,42
 264 512 264 512 252 463 c 128,-1,43
 240 414 240 414 240 355 c 0,44,45
 240 291 240 291 251.5 241.5 c 128,-1,46
 263 192 263 192 286 158 c 128,-1,47
 309 124 309 124 341.5 106 c 128,-1,48
 374 88 374 88 415 88 c 0,49,50
 442 88 442 88 462.5 94 c 128,-1,51
 483 100 483 100 497 108.5 c 128,-1,52
 511 117 511 117 519 124 c 1,53,-1
 519 243 l 2,54,55
 519 264 519 264 502 271 c 128,-1,56
 485 278 485 278 458 278 c 2,57,-1
 449 278 l 1,58,-1
 449 361 l 1,59,-1
 752 361 l 1,60,-1
 752 278 l 1,61,-1
 746 278 l 2,62,63
 726 278 726 278 711.5 271 c 128,-1,64
 697 264 697 264 697 243 c 2,10,-1
EndSplineSet
EndChar

StartChar: H
Encoding: 72 72 75
Width: 823
GlyphClass: 2
Flags: W
AnchorPoint: "Anchor-1" 412 0 basechar 0
AnchorPoint: "Anchor-0" 412 741 basechar 0
LayerCount: 2
Fore
SplineSet
188 413 m 1,0,-1
 611 413 l 1,1,-1
 611 319 l 1,2,-1
 188 319 l 1,3,-1
 188 413 l 1,0,-1
30 0 m 1,4,-1
 30 84 l 1,5,-1
 40 84 l 2,6,7
 64 84 64 84 80.5 91 c 128,-1,8
 97 98 97 98 97 120 c 2,9,-1
 97 590 l 2,10,11
 97 612 97 612 80.5 619 c 128,-1,12
 64 626 64 626 40 626 c 2,13,-1
 30 626 l 1,14,-1
 30 710 l 1,15,-1
 362 710 l 1,16,-1
 362 626 l 1,17,-1
 353 626 l 2,18,19
 343 626 343 626 332.5 625.5 c 128,-1,20
 322 625 322 625 313 623.5 c 128,-1,21
 304 622 304 622 298.5 620.5 c 128,-1,22
 293 619 293 619 293 616 c 2,23,-1
 293 93 l 2,24,25
 293 91 293 91 298.5 89.5 c 128,-1,26
 304 88 304 88 313 86.5 c 128,-1,27
 322 85 322 85 332.5 84.5 c 128,-1,28
 343 84 343 84 353 84 c 2,29,-1
 362 84 l 1,30,-1
 362 0 l 1,31,-1
 30 0 l 1,4,-1
461 0 m 1,32,-1
 461 84 l 1,33,-1
 469 84 l 2,34,35
 480 84 480 84 490.5 84.5 c 128,-1,36
 501 85 501 85 510 86.5 c 128,-1,37
 519 88 519 88 524.5 89.5 c 128,-1,38
 530 91 530 91 530 94 c 2,39,-1
 530 617 l 2,40,41
 530 619 530 619 524.5 620.5 c 128,-1,42
 519 622 519 622 510 623.5 c 128,-1,43
 501 625 501 625 490.5 625.5 c 128,-1,44
 480 626 480 626 469 626 c 2,45,-1
 461 626 l 1,46,-1
 461 710 l 1,47,-1
 792 710 l 1,48,-1
 792 626 l 1,49,-1
 782 626 l 2,50,51
 759 626 759 626 742.5 619 c 128,-1,52
 726 612 726 612 726 590 c 2,53,-1
 726 120 l 2,54,55
 726 98 726 98 742.5 91 c 128,-1,56
 759 84 759 84 782 84 c 2,57,-1
 792 84 l 1,58,-1
 792 0 l 1,59,-1
 461 0 l 1,32,-1
EndSplineSet
EndChar

StartChar: I
Encoding: 73 73 79
Width: 393
GlyphClass: 2
Flags: W
AnchorPoint: "Anchor-2" 259 0 basechar 0
AnchorPoint: "Anchor-1" 197 0 basechar 0
AnchorPoint: "Anchor-0" 197 741 basechar 0
LayerCount: 2
Fore
SplineSet
98 120 m 2,0,-1
 98 590 l 2,1,2
 98 612 98 612 81.5 619 c 128,-1,3
 65 626 65 626 40 626 c 2,4,-1
 30 626 l 1,5,-1
 30 710 l 1,6,-1
 362 710 l 1,7,-1
 362 626 l 1,8,-1
 352 626 l 2,9,10
 328 626 328 626 311 619 c 128,-1,11
 294 612 294 612 294 590 c 2,12,-1
 294 120 l 2,13,14
 294 98 294 98 311 91 c 128,-1,15
 328 84 328 84 352 84 c 2,16,-1
 362 84 l 1,17,-1
 362 0 l 1,18,-1
 30 0 l 1,19,-1
 30 84 l 1,20,-1
 40 84 l 2,21,22
 65 84 65 84 81.5 91 c 128,-1,23
 98 98 98 98 98 120 c 2,0,-1
EndSplineSet
EndChar

StartChar: Icaron
Encoding: 463 463 89
Width: 393
GlyphClass: 1
Flags: W
LayerCount: 2
Fore
SplineSet
128 753 m 1,0,-1
 263 753 l 1,1,-1
 375 884 l 1,2,-1
 375 910 l 1,3,-1
 290 910 l 1,4,-1
 150 816 l 1,5,-1
 250 816 l 1,6,-1
 109 910 l 1,7,-1
 17 910 l 1,8,-1
 17 884 l 1,9,-1
 128 753 l 1,0,-1
98 120 m 2,10,-1
 98 590 l 2,11,12
 98 612 98 612 81.5 619 c 128,-1,13
 65 626 65 626 40 626 c 2,14,-1
 30 626 l 1,15,-1
 30 710 l 1,16,-1
 362 710 l 1,17,-1
 362 626 l 1,18,-1
 352 626 l 2,19,20
 328 626 328 626 311 619 c 128,-1,21
 294 612 294 612 294 590 c 2,22,-1
 294 120 l 2,23,24
 294 98 294 98 311 91 c 128,-1,25
 328 84 328 84 352 84 c 2,26,-1
 362 84 l 1,27,-1
 362 0 l 1,28,-1
 30 0 l 1,29,-1
 30 84 l 1,30,-1
 40 84 l 2,31,32
 65 84 65 84 81.5 91 c 128,-1,33
 98 98 98 98 98 120 c 2,10,-1
EndSplineSet
EndChar

StartChar: Idblgrave
Encoding: 520 520 90
Width: 393
GlyphClass: 1
Flags: W
LayerCount: 2
Fore
SplineSet
328 851 m 2,0,-1
 341 781 l 1,1,-1
 341 746 l 1,2,-1
 272 746 l 1,3,-1
 232 789 l 2,4,5
 205 820 205 820 193.5 842.5 c 128,-1,6
 182 865 182 865 182 887 c 0,7,8
 182 911 182 911 199.5 927 c 128,-1,9
 217 943 217 943 248 943 c 0,10,11
 272 943 272 943 288 932.5 c 128,-1,12
 304 922 304 922 313.5 902 c 128,-1,13
 323 882 323 882 328 851 c 2,0,-1
141 851 m 2,14,-1
 154 781 l 1,15,-1
 154 746 l 1,16,-1
 85 746 l 1,17,-1
 45 789 l 2,18,19
 18 820 18 820 6.5 842.5 c 128,-1,20
 -5 865 -5 865 -5 887 c 0,21,22
 -5 911 -5 911 12.5 927 c 128,-1,23
 30 943 30 943 61 943 c 0,24,25
 86 943 86 943 101.5 932.5 c 128,-1,26
 117 922 117 922 126.5 902 c 128,-1,27
 136 882 136 882 141 851 c 2,14,-1
98 120 m 2,28,-1
 98 590 l 2,29,30
 98 612 98 612 81.5 619 c 128,-1,31
 65 626 65 626 40 626 c 2,32,-1
 30 626 l 1,33,-1
 30 710 l 1,34,-1
 362 710 l 1,35,-1
 362 626 l 1,36,-1
 352 626 l 2,37,38
 328 626 328 626 311 619 c 128,-1,39
 294 612 294 612 294 590 c 2,40,-1
 294 120 l 2,41,42
 294 98 294 98 311 91 c 128,-1,43
 328 84 328 84 352 84 c 2,44,-1
 362 84 l 1,45,-1
 362 0 l 1,46,-1
 30 0 l 1,47,-1
 30 84 l 1,48,-1
 40 84 l 2,49,50
 65 84 65 84 81.5 91 c 128,-1,51
 98 98 98 98 98 120 c 2,28,-1
EndSplineSet
EndChar

StartChar: Iinvertedbreve
Encoding: 522 522 91
Width: 393
GlyphClass: 1
Flags: W
LayerCount: 2
Fore
SplineSet
196 914 m 256,0,1
 149 914 149 914 112.5 896.5 c 128,-1,2
 76 879 76 879 54.5 844.5 c 128,-1,3
 33 810 33 810 30 756 c 1,4,-1
 120 756 l 1,5,6
 124 777 124 777 133.5 789 c 128,-1,7
 143 801 143 801 158 806 c 128,-1,8
 173 811 173 811 193 811 c 256,9,10
 213 811 213 811 228.5 806 c 128,-1,11
 244 801 244 801 254 789 c 128,-1,12
 264 777 264 777 268 756 c 1,13,-1
 362 756 l 1,14,15
 360 810 360 810 338 844.5 c 128,-1,16
 316 879 316 879 279.5 896.5 c 128,-1,17
 243 914 243 914 196 914 c 256,0,1
98 120 m 2,18,-1
 98 590 l 2,19,20
 98 612 98 612 81.5 619 c 128,-1,21
 65 626 65 626 40 626 c 2,22,-1
 30 626 l 1,23,-1
 30 710 l 1,24,-1
 362 710 l 1,25,-1
 362 626 l 1,26,-1
 352 626 l 2,27,28
 328 626 328 626 311 619 c 128,-1,29
 294 612 294 612 294 590 c 2,30,-1
 294 120 l 2,31,32
 294 98 294 98 311 91 c 128,-1,33
 328 84 328 84 352 84 c 2,34,-1
 362 84 l 1,35,-1
 362 0 l 1,36,-1
 30 0 l 1,37,-1
 30 84 l 1,38,-1
 40 84 l 2,39,40
 65 84 65 84 81.5 91 c 128,-1,41
 98 98 98 98 98 120 c 2,18,-1
EndSplineSet
EndChar

StartChar: J
Encoding: 74 74 94
Width: 607
GlyphClass: 2
Flags: W
AnchorPoint: "Anchor-0" 408 741 basechar 0
LayerCount: 2
Fore
SplineSet
234 710 m 1,0,-1
 579 710 l 1,1,-1
 579 626 l 1,2,-1
 569 626 l 2,3,4
 545 626 545 626 528.5 619.5 c 128,-1,5
 512 613 512 613 512 591 c 2,6,-1
 512 234 l 2,7,8
 512 164 512 164 492 117 c 128,-1,9
 472 70 472 70 436.5 42 c 128,-1,10
 401 14 401 14 352 2 c 128,-1,11
 303 -10 303 -10 245 -10 c 0,12,13
 190 -10 190 -10 147 0.5 c 128,-1,14
 104 11 104 11 72.5 28 c 128,-1,15
 41 45 41 45 20 62 c 1,16,-1
 20 203 l 1,17,-1
 178 203 l 1,18,-1
 178 62 l 1,19,20
 160 67 160 67 147 78.5 c 128,-1,21
 134 90 134 90 127.5 102.5 c 128,-1,22
 121 115 121 115 122.5 124.5 c 128,-1,23
 124 134 124 134 134 135 c 1,24,25
 144 121 144 121 157.5 110 c 128,-1,26
 171 99 171 99 188.5 93 c 128,-1,27
 206 87 206 87 227 87 c 0,28,29
 255 87 255 87 275 100.5 c 128,-1,30
 295 114 295 114 305.5 148 c 128,-1,31
 316 182 316 182 316 242 c 2,32,-1
 316 591 l 2,33,34
 316 606 316 606 308 613 c 128,-1,35
 300 620 300 620 285.5 623 c 128,-1,36
 271 626 271 626 252 626 c 2,37,-1
 234 626 l 1,38,-1
 234 710 l 1,0,-1
EndSplineSet
EndChar

StartChar: K
Encoding: 75 75 96
Width: 785
GlyphClass: 2
Flags: W
AnchorPoint: "Anchor-1" 404 0 basechar 0
AnchorPoint: "Anchor-0" 404 741 basechar 0
LayerCount: 2
Fore
SplineSet
30 0 m 1,0,-1
 30 84 l 1,1,-1
 40 84 l 2,2,3
 64 84 64 84 80.5 91 c 128,-1,4
 97 98 97 98 97 119 c 2,5,-1
 97 591 l 2,6,7
 97 612 97 612 80.5 619 c 128,-1,8
 64 626 64 626 40 626 c 2,9,-1
 30 626 l 1,10,-1
 30 710 l 1,11,-1
 373 710 l 1,12,-1
 373 626 l 1,13,-1
 363 626 l 2,14,15
 351 626 351 626 338 625.5 c 128,-1,16
 325 625 325 625 315 623.5 c 128,-1,17
 305 622 305 622 299 620.5 c 128,-1,18
 293 619 293 619 293 616 c 2,19,-1
 293 94 l 2,20,21
 293 91 293 91 298 89.5 c 128,-1,22
 303 88 303 88 311 86.5 c 128,-1,23
 319 85 319 85 329 84.5 c 128,-1,24
 339 84 339 84 349 84 c 2,25,-1
 357 84 l 1,26,-1
 357 0 l 1,27,-1
 30 0 l 1,0,-1
431 0 m 1,28,-1
 431 84 l 1,29,-1
 444 84 l 2,30,31
 454 84 454 84 465 85 c 128,-1,32
 476 86 476 86 483.5 88.5 c 128,-1,33
 491 91 491 91 491 94 c 2,34,-1
 320 338 l 1,35,-1
 320 362 l 1,36,-1
 548 617 l 2,37,38
 548 621 548 621 540 622.5 c 128,-1,39
 532 624 532 624 519.5 625 c 128,-1,40
 507 626 507 626 494 626 c 2,41,-1
 483 626 l 1,42,-1
 483 710 l 1,43,-1
 732 710 l 1,44,-1
 732 626 l 1,45,-1
 718 626 l 2,46,47
 703 626 703 626 691.5 623 c 128,-1,48
 680 620 680 620 670 613 c 128,-1,49
 660 606 660 606 648 592 c 2,50,-1
 448 368 l 1,51,-1
 465 453 l 1,52,-1
 699 115 l 2,53,54
 708 104 708 104 716.5 97 c 128,-1,55
 725 90 725 90 735.5 87 c 128,-1,56
 746 84 746 84 758 84 c 2,57,-1
 770 84 l 1,58,-1
 770 0 l 1,59,-1
 431 0 l 1,28,-1
EndSplineSet
EndChar

StartChar: L
Encoding: 76 76 98
Width: 632
GlyphClass: 2
Flags: W
AnchorPoint: "Anchor-2" 480 710 basechar 0
AnchorPoint: "Anchor-1" 387 0 basechar 0
AnchorPoint: "Anchor-0" 387 741 basechar 0
LayerCount: 2
Fore
SplineSet
369 710 m 1,0,-1
 30 710 l 1,1,-1
 30 626 l 1,2,-1
 40 626 l 2,3,4
 64 626 64 626 80.5 619 c 128,-1,5
 97 612 97 612 97 591 c 2,6,-1
 97 119 l 2,7,8
 97 98 97 98 80.5 91 c 128,-1,9
 64 84 64 84 40 84 c 2,10,-1
 30 84 l 1,11,-1
 30 0 l 1,12,-1
 601 0 l 1,13,-1
 601 236 l 1,14,-1
 502 236 l 1,15,-1
 491 139 l 2,16,17
 490 120 490 120 480.5 111 c 128,-1,18
 471 102 471 102 450 98 c 128,-1,19
 429 94 429 94 391 94 c 2,20,-1
 293 94 l 1,21,-1
 293 593 l 2,22,23
 293 613 293 613 311 619.5 c 128,-1,24
 329 626 329 626 355 626 c 2,25,-1
 369 626 l 1,26,-1
 369 710 l 1,0,-1
EndSplineSet
EndChar

StartChar: M
Encoding: 77 77 104
Width: 958
GlyphClass: 2
Flags: W
AnchorPoint: "Anchor-1" 468 0 basechar 0
LayerCount: 2
Fore
SplineSet
30 0 m 1,0,-1
 30 84 l 1,1,-1
 41 84 l 2,2,3
 56 84 56 84 67.5 87.5 c 128,-1,4
 79 91 79 91 85.5 99 c 128,-1,5
 92 107 92 107 92 122 c 2,6,-1
 92 591 l 2,7,8
 92 605 92 605 85.5 612.5 c 128,-1,9
 79 620 79 620 67.5 623 c 128,-1,10
 56 626 56 626 41 626 c 2,11,-1
 30 626 l 1,12,-1
 30 710 l 1,13,-1
 359 710 l 1,14,-1
 506 195 l 1,15,-1
 449 223 l 1,16,-1
 602 710 l 1,17,-1
 928 710 l 1,18,-1
 928 626 l 1,19,-1
 918 626 l 2,20,21
 895 626 895 626 877.5 619 c 128,-1,22
 860 612 860 612 860 591 c 2,23,-1
 860 119 l 2,24,25
 860 98 860 98 877.5 91 c 128,-1,26
 895 84 895 84 918 84 c 2,27,-1
 928 84 l 1,28,-1
 928 0 l 1,29,-1
 599 0 l 1,30,-1
 599 84 l 1,31,-1
 607 84 l 2,32,33
 621 84 621 84 634.5 85 c 128,-1,34
 648 86 648 86 656 88.5 c 128,-1,35
 664 91 664 91 664 94 c 2,36,-1
 664 690 l 1,37,-1
 690 688 l 1,38,-1
 477 -2 l 1,39,-1
 376 -2 l 1,40,-1
 168 689 l 1,41,-1
 193 686 l 1,42,-1
 193 96 l 2,43,44
 193 92 193 92 200 89 c 128,-1,45
 207 86 207 86 218 85 c 128,-1,46
 229 84 229 84 240 84 c 2,47,-1
 247 84 l 1,48,-1
 247 0 l 1,49,-1
 30 0 l 1,0,-1
EndSplineSet
EndChar

StartChar: N
Encoding: 78 78 106
Width: 761
GlyphClass: 2
Flags: W
AnchorPoint: "Anchor-1" 389 0 basechar 0
AnchorPoint: "Anchor-0" 389 741 basechar 0
LayerCount: 2
Fore
SplineSet
30 0 m 1,0,-1
 30 84 l 1,1,-1
 41 84 l 2,2,3
 56 84 56 84 67.5 88 c 128,-1,4
 79 92 79 92 85.5 102 c 128,-1,5
 92 112 92 112 92 126 c 2,6,-1
 92 591 l 2,7,8
 92 605 92 605 85.5 612.5 c 128,-1,9
 79 620 79 620 67.5 623 c 128,-1,10
 56 626 56 626 41 626 c 2,11,-1
 30 626 l 1,12,-1
 30 710 l 1,13,-1
 343 710 l 1,14,-1
 606 163 l 1,15,-1
 575 162 l 1,16,-1
 575 610 l 2,17,18
 575 615 575 615 567.5 618 c 128,-1,19
 560 621 560 621 548 623.5 c 128,-1,20
 536 626 536 626 521 626 c 2,21,-1
 507 626 l 1,22,-1
 507 710 l 1,23,-1
 734 710 l 1,24,-1
 734 626 l 1,25,-1
 723 626 l 2,26,27
 708 626 708 626 697.5 622.5 c 128,-1,28
 687 619 687 619 681.5 610.5 c 128,-1,29
 676 602 676 602 676 587 c 2,30,-1
 676 0 l 1,31,-1
 483 0 l 1,32,-1
 152 672 l 1,33,-1
 193 667 l 1,34,-1
 193 100 l 2,35,36
 193 96 193 96 200.5 92.5 c 128,-1,37
 208 89 208 89 220.5 86.5 c 128,-1,38
 233 84 233 84 248 84 c 2,39,-1
 261 84 l 1,40,-1
 261 0 l 1,41,-1
 30 0 l 1,0,-1
EndSplineSet
EndChar

StartChar: Ncaron
Encoding: 327 327 110
Width: 761
GlyphClass: 1
Flags: W
LayerCount: 2
Fore
SplineSet
326 753 m 1,0,-1
 462 753 l 1,1,-1
 573 884 l 1,2,-1
 573 910 l 1,3,-1
 489 910 l 1,4,-1
 348 816 l 1,5,-1
 448 816 l 1,6,-1
 308 910 l 1,7,-1
 215 910 l 1,8,-1
 215 884 l 1,9,-1
 326 753 l 1,0,-1
30 0 m 1,10,-1
 30 84 l 1,11,-1
 41 84 l 2,12,13
 56 84 56 84 67.5 88 c 128,-1,14
 79 92 79 92 85.5 102 c 128,-1,15
 92 112 92 112 92 126 c 2,16,-1
 92 591 l 2,17,18
 92 605 92 605 85.5 612.5 c 128,-1,19
 79 620 79 620 67.5 623 c 128,-1,20
 56 626 56 626 41 626 c 2,21,-1
 30 626 l 1,22,-1
 30 710 l 1,23,-1
 343 710 l 1,24,-1
 606 163 l 1,25,-1
 575 162 l 1,26,-1
 575 610 l 2,27,28
 575 615 575 615 567.5 618 c 128,-1,29
 560 621 560 621 548 623.5 c 128,-1,30
 536 626 536 626 521 626 c 2,31,-1
 507 626 l 1,32,-1
 507 710 l 1,33,-1
 734 710 l 1,34,-1
 734 626 l 1,35,-1
 723 626 l 2,36,37
 708 626 708 626 697.5 622.5 c 128,-1,38
 687 619 687 619 681.5 610.5 c 128,-1,39
 676 602 676 602 676 587 c 2,40,-1
 676 0 l 1,41,-1
 483 0 l 1,42,-1
 152 672 l 1,43,-1
 193 667 l 1,44,-1
 193 100 l 2,45,46
 193 96 193 96 200.5 92.5 c 128,-1,47
 208 89 208 89 220.5 86.5 c 128,-1,48
 233 84 233 84 248 84 c 2,49,-1
 261 84 l 1,50,-1
 261 0 l 1,51,-1
 30 0 l 1,10,-1
EndSplineSet
EndChar

StartChar: O
Encoding: 79 79 114
Width: 805
GlyphClass: 2
Flags: W
AnchorPoint: "Anchor-2" 443 0 basechar 0
AnchorPoint: "Anchor-1" 403 0 basechar 0
AnchorPoint: "Anchor-0" 403 741 basechar 0
LayerCount: 2
Fore
SplineSet
402 -10 m 256,0,1
 322 -10 322 -10 255 16 c 128,-1,2
 188 42 188 42 138.5 90 c 128,-1,3
 89 138 89 138 62 205.5 c 128,-1,4
 35 273 35 273 35 355 c 256,5,6
 35 437 35 437 62 504 c 128,-1,7
 89 571 89 571 138.5 619.5 c 128,-1,8
 188 668 188 668 255.5 694 c 128,-1,9
 323 720 323 720 402 720 c 0,10,11
 482 720 482 720 549.5 694 c 128,-1,12
 617 668 617 668 666.5 619.5 c 128,-1,13
 716 571 716 571 743 504 c 128,-1,14
 770 437 770 437 770 355 c 256,15,16
 770 273 770 273 743 205.5 c 128,-1,17
 716 138 716 138 666.5 90 c 128,-1,18
 617 42 617 42 549.5 16 c 128,-1,19
 482 -10 482 -10 402 -10 c 256,0,1
402 88 m 0,20,21
 440 88 440 88 469.5 105 c 128,-1,22
 499 122 499 122 520.5 155.5 c 128,-1,23
 542 189 542 189 553.5 239 c 128,-1,24
 565 289 565 289 565 355 c 256,25,26
 565 421 565 421 553.5 470.5 c 128,-1,27
 542 520 542 520 520.5 553.5 c 128,-1,28
 499 587 499 587 469.5 604.5 c 128,-1,29
 440 622 440 622 403 622 c 256,30,31
 366 622 366 622 335.5 604.5 c 128,-1,32
 305 587 305 587 284 553.5 c 128,-1,33
 263 520 263 520 251.5 470.5 c 128,-1,34
 240 421 240 421 240 355 c 256,35,36
 240 289 240 289 251.5 239 c 128,-1,37
 263 189 263 189 284.5 155.5 c 128,-1,38
 306 122 306 122 336 105 c 128,-1,39
 366 88 366 88 402 88 c 0,20,21
EndSplineSet
EndChar

StartChar: Ohorn
Encoding: 416 416 123
Width: 815
GlyphClass: 2
Flags: W
AnchorPoint: "Anchor-1" 404 -35 basechar 0
AnchorPoint: "Anchor-0" 404 742 basechar 0
LayerCount: 2
Fore
SplineSet
402 88 m 0,0,1
 440 88 440 88 470 105 c 128,-1,2
 500 122 500 122 521 155 c 128,-1,3
 542 188 542 188 553.5 238.5 c 128,-1,4
 565 289 565 289 565 355 c 256,5,6
 565 421 565 421 553.5 471 c 128,-1,7
 542 521 542 521 521 554.5 c 128,-1,8
 500 588 500 588 470 605 c 128,-1,9
 440 622 440 622 402 622 c 0,10,11
 365 622 365 622 334.5 605 c 128,-1,12
 304 588 304 588 283 554.5 c 128,-1,13
 262 521 262 521 251 471 c 128,-1,14
 240 421 240 421 240 355 c 256,15,16
 240 289 240 289 251 238.5 c 128,-1,17
 262 188 262 188 283 155 c 128,-1,18
 304 122 304 122 334.5 105 c 128,-1,19
 365 88 365 88 402 88 c 0,0,1
603 619 m 1,20,-1
 559 653 l 1,21,22
 607 635 607 635 646 608 c 128,-1,23
 685 581 685 581 712.5 544 c 128,-1,24
 740 507 740 507 755 459.5 c 128,-1,25
 770 412 770 412 770 355 c 0,26,27
 770 273 770 273 742.5 205.5 c 128,-1,28
 715 138 715 138 665.5 90 c 128,-1,29
 616 42 616 42 549 16 c 128,-1,30
 482 -10 482 -10 402 -10 c 0,31,32
 323 -10 323 -10 255.5 16 c 128,-1,33
 188 42 188 42 138.5 90 c 128,-1,34
 89 138 89 138 62 205.5 c 128,-1,35
 35 273 35 273 35 355 c 256,36,37
 35 437 35 437 62 504 c 128,-1,38
 89 571 89 571 138.5 619.5 c 128,-1,39
 188 668 188 668 255.5 694 c 128,-1,40
 323 720 323 720 402 720 c 0,41,42
 428 720 428 720 450 718 c 128,-1,43
 472 716 472 716 490.5 714 c 128,-1,44
 509 712 509 712 526 710 c 128,-1,45
 543 708 543 708 558 708 c 0,46,47
 587 708 587 708 606 720 c 128,-1,48
 625 732 625 732 637 753.5 c 128,-1,49
 649 775 649 775 655.5 804.5 c 128,-1,50
 662 834 662 834 665 869 c 1,51,-1
 813 869 l 1,52,53
 809 813 809 813 796 768.5 c 128,-1,54
 783 724 783 724 759 692 c 128,-1,55
 735 660 735 660 701.5 643.5 c 128,-1,56
 668 627 668 627 624 627 c 0,57,58
 612 627 612 627 597 629.5 c 128,-1,59
 582 632 582 632 567 635.5 c 128,-1,60
 552 639 552 639 540 642.5 c 128,-1,61
 528 646 528 646 522 647 c 1,62,-1
 603 644 l 1,63,-1
 603 619 l 1,20,-1
EndSplineSet
EndChar

StartChar: Ocaron
Encoding: 465 465 124
Width: 805
GlyphClass: 1
Flags: W
LayerCount: 2
Fore
SplineSet
334 753 m 1,0,-1
 470 753 l 1,1,-1
 581 884 l 1,2,-1
 581 910 l 1,3,-1
 497 910 l 1,4,-1
 357 816 l 1,5,-1
 456 816 l 1,6,-1
 316 910 l 1,7,-1
 224 910 l 1,8,-1
 224 884 l 1,9,-1
 334 753 l 1,0,-1
402 -10 m 256,10,11
 322 -10 322 -10 255 16 c 128,-1,12
 188 42 188 42 138.5 90 c 128,-1,13
 89 138 89 138 62 205.5 c 128,-1,14
 35 273 35 273 35 355 c 256,15,16
 35 437 35 437 62 504 c 128,-1,17
 89 571 89 571 138.5 619.5 c 128,-1,18
 188 668 188 668 255.5 694 c 128,-1,19
 323 720 323 720 402 720 c 0,20,21
 482 720 482 720 549.5 694 c 128,-1,22
 617 668 617 668 666.5 619.5 c 128,-1,23
 716 571 716 571 743 504 c 128,-1,24
 770 437 770 437 770 355 c 256,25,26
 770 273 770 273 743 205.5 c 128,-1,27
 716 138 716 138 666.5 90 c 128,-1,28
 617 42 617 42 549.5 16 c 128,-1,29
 482 -10 482 -10 402 -10 c 256,10,11
402 88 m 0,30,31
 440 88 440 88 469.5 105 c 128,-1,32
 499 122 499 122 520.5 155.5 c 128,-1,33
 542 189 542 189 553.5 239 c 128,-1,34
 565 289 565 289 565 355 c 256,35,36
 565 421 565 421 553.5 470.5 c 128,-1,37
 542 520 542 520 520.5 553.5 c 128,-1,38
 499 587 499 587 469.5 604.5 c 128,-1,39
 440 622 440 622 403 622 c 256,40,41
 366 622 366 622 335.5 604.5 c 128,-1,42
 305 587 305 587 284 553.5 c 128,-1,43
 263 520 263 520 251.5 470.5 c 128,-1,44
 240 421 240 421 240 355 c 256,45,46
 240 289 240 289 251.5 239 c 128,-1,47
 263 189 263 189 284.5 155.5 c 128,-1,48
 306 122 306 122 336 105 c 128,-1,49
 366 88 366 88 402 88 c 0,30,31
EndSplineSet
EndChar

StartChar: Oogonek
Encoding: 490 490 125
Width: 805
GlyphClass: 1
Flags: W
LayerCount: 2
Fore
SplineSet
402 88 m 0,0,1
 440 88 440 88 470 105 c 128,-1,2
 500 122 500 122 521 155 c 128,-1,3
 542 188 542 188 553.5 238.5 c 128,-1,4
 565 289 565 289 565 355 c 256,5,6
 565 421 565 421 553.5 471 c 128,-1,7
 542 521 542 521 521 554.5 c 128,-1,8
 500 588 500 588 470 605 c 128,-1,9
 440 622 440 622 402 622 c 0,10,11
 365 622 365 622 335 605 c 128,-1,12
 305 588 305 588 284 554.5 c 128,-1,13
 263 521 263 521 251.5 471 c 128,-1,14
 240 421 240 421 240 355 c 256,15,16
 240 289 240 289 251.5 238.5 c 128,-1,17
 263 188 263 188 284 155 c 128,-1,18
 305 122 305 122 335 105 c 128,-1,19
 365 88 365 88 402 88 c 0,0,1
648 77 m 0,20,21
 618 50 618 50 589.5 29 c 128,-1,22
 561 8 561 8 536.5 -9 c 128,-1,23
 512 -26 512 -26 493.5 -42 c 128,-1,24
 475 -58 475 -58 464.5 -75 c 128,-1,25
 454 -92 454 -92 454 -113 c 0,26,27
 454 -131 454 -131 463.5 -141.5 c 128,-1,28
 473 -152 473 -152 491 -152 c 0,29,30
 506 -152 506 -152 520 -143.5 c 128,-1,31
 534 -135 534 -135 543 -126 c 1,32,-1
 584 -176 l 1,33,34
 571 -192 571 -192 551.5 -207.5 c 128,-1,35
 532 -223 532 -223 505.5 -232.5 c 128,-1,36
 479 -242 479 -242 443 -242 c 0,37,38
 406 -242 406 -242 376 -229 c 128,-1,39
 346 -216 346 -216 328.5 -193 c 128,-1,40
 311 -170 311 -170 311 -139 c 0,41,42
 311 -111 311 -111 324.5 -86.5 c 128,-1,43
 338 -62 338 -62 365.5 -40 c 128,-1,44
 393 -18 393 -18 433.5 1 c 128,-1,45
 474 20 474 20 527 38 c 1,46,-1
 532 11 l 1,47,48
 512 4 512 4 491 -0.5 c 128,-1,49
 470 -5 470 -5 448 -7.5 c 128,-1,50
 426 -10 426 -10 402 -10 c 0,51,52
 323 -10 323 -10 255.5 16 c 128,-1,53
 188 42 188 42 138.5 90 c 128,-1,54
 89 138 89 138 62 205.5 c 128,-1,55
 35 273 35 273 35 355 c 256,56,57
 35 437 35 437 62 504 c 128,-1,58
 89 571 89 571 138.5 619.5 c 128,-1,59
 188 668 188 668 255.5 694 c 128,-1,60
 323 720 323 720 402 720 c 0,61,62
 482 720 482 720 549.5 694 c 128,-1,63
 617 668 617 668 666.5 619.5 c 128,-1,64
 716 571 716 571 743 504 c 128,-1,65
 770 437 770 437 770 355 c 0,66,67
 770 300 770 300 756 249.5 c 128,-1,68
 742 199 742 199 715 155 c 128,-1,69
 688 111 688 111 648 77 c 0,20,21
EndSplineSet
EndChar

StartChar: Odblgrave
Encoding: 524 524 126
Width: 805
GlyphClass: 1
Flags: W
LayerCount: 2
Fore
SplineSet
532 851 m 2,0,-1
 545 781 l 1,1,-1
 545 746 l 1,2,-1
 477 746 l 1,3,-1
 437 789 l 2,4,5
 409 820 409 820 398 842.5 c 128,-1,6
 387 865 387 865 387 887 c 0,7,8
 387 911 387 911 404.5 927 c 128,-1,9
 422 943 422 943 453 943 c 0,10,11
 477 943 477 943 493 932.5 c 128,-1,12
 509 922 509 922 518.5 902 c 128,-1,13
 528 882 528 882 532 851 c 2,0,-1
346 851 m 2,14,-1
 359 781 l 1,15,-1
 359 746 l 1,16,-1
 290 746 l 1,17,-1
 250 789 l 2,18,19
 223 820 223 820 211.5 842.5 c 128,-1,20
 200 865 200 865 200 887 c 0,21,22
 200 911 200 911 217.5 927 c 128,-1,23
 235 943 235 943 266 943 c 0,24,25
 291 943 291 943 306.5 932.5 c 128,-1,26
 322 922 322 922 331.5 902 c 128,-1,27
 341 882 341 882 346 851 c 2,14,-1
402 -10 m 0,28,29
 323 -10 323 -10 255.5 16 c 128,-1,30
 188 42 188 42 138.5 90 c 128,-1,31
 89 138 89 138 62 205.5 c 128,-1,32
 35 273 35 273 35 355 c 256,33,34
 35 437 35 437 62 504 c 128,-1,35
 89 571 89 571 138.5 619.5 c 128,-1,36
 188 668 188 668 255.5 694 c 128,-1,37
 323 720 323 720 402 720 c 0,38,39
 482 720 482 720 549.5 694 c 128,-1,40
 617 668 617 668 666.5 619.5 c 128,-1,41
 716 571 716 571 743 504 c 128,-1,42
 770 437 770 437 770 355 c 256,43,44
 770 273 770 273 743 205.5 c 128,-1,45
 716 138 716 138 666.5 90 c 128,-1,46
 617 42 617 42 549.5 16 c 128,-1,47
 482 -10 482 -10 402 -10 c 0,28,29
402 88 m 0,48,49
 440 88 440 88 469.5 105 c 128,-1,50
 499 122 499 122 520.5 155.5 c 128,-1,51
 542 189 542 189 553.5 239 c 128,-1,52
 565 289 565 289 565 355 c 256,53,54
 565 421 565 421 553.5 470.5 c 128,-1,55
 542 520 542 520 520.5 553.5 c 128,-1,56
 499 587 499 587 469.5 604.5 c 128,-1,57
 440 622 440 622 402 622 c 0,58,59
 366 622 366 622 335.5 604.5 c 128,-1,60
 305 587 305 587 284 553.5 c 128,-1,61
 263 520 263 520 251.5 470.5 c 128,-1,62
 240 421 240 421 240 355 c 256,63,64
 240 289 240 289 251.5 239 c 128,-1,65
 263 189 263 189 284.5 155.5 c 128,-1,66
 306 122 306 122 336 105 c 128,-1,67
 366 88 366 88 402 88 c 0,48,49
EndSplineSet
EndChar

StartChar: Oinvertedbreve
Encoding: 526 526 127
Width: 805
GlyphClass: 1
Flags: W
LayerCount: 2
Fore
SplineSet
402 914 m 256,0,1
 355 914 355 914 318.5 896.5 c 128,-1,2
 282 879 282 879 261 844.5 c 128,-1,3
 240 810 240 810 237 756 c 1,4,-1
 327 756 l 1,5,6
 330 777 330 777 339.5 789 c 128,-1,7
 349 801 349 801 364.5 806 c 128,-1,8
 380 811 380 811 400 811 c 0,9,10
 419 811 419 811 434.5 806 c 128,-1,11
 450 801 450 801 460.5 789 c 128,-1,12
 471 777 471 777 474 756 c 1,13,-1
 569 756 l 1,14,15
 566 810 566 810 544 844.5 c 128,-1,16
 522 879 522 879 485.5 896.5 c 128,-1,17
 449 914 449 914 402 914 c 256,0,1
402 -10 m 256,18,19
 322 -10 322 -10 255 16 c 128,-1,20
 188 42 188 42 138.5 90 c 128,-1,21
 89 138 89 138 62 205.5 c 128,-1,22
 35 273 35 273 35 355 c 256,23,24
 35 437 35 437 62 504 c 128,-1,25
 89 571 89 571 138.5 619.5 c 128,-1,26
 188 668 188 668 255.5 694 c 128,-1,27
 323 720 323 720 402 720 c 0,28,29
 482 720 482 720 549.5 694 c 128,-1,30
 617 668 617 668 666.5 619.5 c 128,-1,31
 716 571 716 571 743 504 c 128,-1,32
 770 437 770 437 770 355 c 256,33,34
 770 273 770 273 743 205.5 c 128,-1,35
 716 138 716 138 666.5 90 c 128,-1,36
 617 42 617 42 549.5 16 c 128,-1,37
 482 -10 482 -10 402 -10 c 256,18,19
402 88 m 0,38,39
 440 88 440 88 469.5 105 c 128,-1,40
 499 122 499 122 520.5 155.5 c 128,-1,41
 542 189 542 189 553.5 239 c 128,-1,42
 565 289 565 289 565 355 c 256,43,44
 565 421 565 421 553.5 470.5 c 128,-1,45
 542 520 542 520 520.5 553.5 c 128,-1,46
 499 587 499 587 469.5 604.5 c 128,-1,47
 440 622 440 622 403 622 c 256,48,49
 366 622 366 622 335.5 604.5 c 128,-1,50
 305 587 305 587 284 553.5 c 128,-1,51
 263 520 263 520 251.5 470.5 c 128,-1,52
 240 421 240 421 240 355 c 256,53,54
 240 289 240 289 251.5 239 c 128,-1,55
 263 189 263 189 284.5 155.5 c 128,-1,56
 306 122 306 122 336 105 c 128,-1,57
 366 88 366 88 402 88 c 0,38,39
EndSplineSet
EndChar

StartChar: P
Encoding: 80 80 147
Width: 689
GlyphClass: 2
Flags: W
AnchorPoint: "Anchor-0" 319 741 basechar 0
LayerCount: 2
Fore
SplineSet
294 96 m 2,0,-1
 294 615 l 1,1,-1
 354 615 l 2,2,3
 393 615 393 615 420 601.5 c 128,-1,4
 447 588 447 588 461 561.5 c 128,-1,5
 475 535 475 535 475 495 c 0,6,7
 475 454 475 454 460.5 425.5 c 128,-1,8
 446 397 446 397 418.5 383 c 128,-1,9
 391 369 391 369 350 369 c 2,10,-1
 265 369 l 1,11,-1
 265 274 l 1,12,-1
 389 274 l 2,13,14
 476 274 476 274 539 301.5 c 128,-1,15
 602 329 602 329 636 379.5 c 128,-1,16
 670 430 670 430 670 500 c 0,17,18
 670 600 670 600 597.5 655 c 128,-1,19
 525 710 525 710 394 710 c 2,20,-1
 31 710 l 1,21,-1
 31 626 l 1,22,-1
 41 626 l 2,23,24
 64 626 64 626 81 619 c 128,-1,25
 98 612 98 612 98 591 c 2,26,-1
 98 119 l 2,27,28
 98 98 98 98 81.5 91 c 128,-1,29
 65 84 65 84 41 84 c 2,30,-1
 31 84 l 1,31,-1
 31 0 l 1,32,-1
 373 0 l 1,33,-1
 373 84 l 1,34,-1
 349 84 l 2,35,36
 340 84 340 84 330 84.5 c 128,-1,37
 320 85 320 85 312 86.5 c 128,-1,38
 304 88 304 88 299 90 c 128,-1,39
 294 92 294 92 294 96 c 2,0,-1
EndSplineSet
EndChar

StartChar: Q
Encoding: 81 81 148
Width: 805
GlyphClass: 1
Flags: W
LayerCount: 2
Fore
SplineSet
351 3 m 1,0,-1
 459 18 l 1,1,2
 457 -17 457 -17 470 -36.5 c 128,-1,3
 483 -56 483 -56 509 -64 c 128,-1,4
 535 -72 535 -72 574 -72 c 0,5,6
 611 -72 611 -72 641.5 -65 c 128,-1,7
 672 -58 672 -58 697 -49.5 c 128,-1,8
 722 -41 722 -41 738 -35 c 1,9,-1
 738 -187 l 1,10,11
 711 -199 711 -199 672.5 -207 c 128,-1,12
 634 -215 634 -215 592 -215 c 0,13,14
 516 -215 516 -215 461 -193 c 128,-1,15
 406 -171 406 -171 377.5 -122.5 c 128,-1,16
 349 -74 349 -74 351 3 c 1,0,-1
402 -10 m 0,17,18
 323 -10 323 -10 255.5 16 c 128,-1,19
 188 42 188 42 138.5 90 c 128,-1,20
 89 138 89 138 62 205.5 c 128,-1,21
 35 273 35 273 35 355 c 256,22,23
 35 437 35 437 62 504 c 128,-1,24
 89 571 89 571 138.5 619.5 c 128,-1,25
 188 668 188 668 255.5 694 c 128,-1,26
 323 720 323 720 402 720 c 0,27,28
 482 720 482 720 549.5 694 c 128,-1,29
 617 668 617 668 666.5 619.5 c 128,-1,30
 716 571 716 571 743 504 c 128,-1,31
 770 437 770 437 770 355 c 256,32,33
 770 273 770 273 743 205.5 c 128,-1,34
 716 138 716 138 666.5 90 c 128,-1,35
 617 42 617 42 549.5 16 c 128,-1,36
 482 -10 482 -10 402 -10 c 0,17,18
402 88 m 0,37,38
 440 88 440 88 470 105 c 128,-1,39
 500 122 500 122 522 155.5 c 128,-1,40
 544 189 544 189 556 239 c 128,-1,41
 568 289 568 289 568 355 c 256,42,43
 568 421 568 421 556 470.5 c 128,-1,44
 544 520 544 520 522 553.5 c 128,-1,45
 500 587 500 587 470 604.5 c 128,-1,46
 440 622 440 622 402 622 c 0,47,48
 366 622 366 622 335.5 604.5 c 128,-1,49
 305 587 305 587 284 553.5 c 128,-1,50
 263 520 263 520 251.5 470.5 c 128,-1,51
 240 421 240 421 240 355 c 256,52,53
 240 289 240 289 251.5 239 c 128,-1,54
 263 189 263 189 284.5 155.5 c 128,-1,55
 306 122 306 122 336 105 c 128,-1,56
 366 88 366 88 402 88 c 0,37,38
EndSplineSet
EndChar

StartChar: R
Encoding: 82 82 149
Width: 741
GlyphClass: 2
Flags: W
AnchorPoint: "Anchor-1" 415 0 basechar 0
AnchorPoint: "Anchor-0" 409 741 basechar 0
LayerCount: 2
Fore
SplineSet
362 322 m 1,0,-1
 502 0 l 1,1,-1
 722 0 l 1,2,-1
 722 84 l 1,3,-1
 715 84 l 2,4,5
 702 84 702 84 691.5 86 c 128,-1,6
 681 88 681 88 674 94.5 c 128,-1,7
 667 101 667 101 661 112 c 2,8,-1
 545 347 l 1,9,-1
 362 322 l 1,0,-1
293 94 m 2,10,-1
 293 617 l 1,11,-1
 360 617 l 2,12,13
 396 617 396 617 420.5 602.5 c 128,-1,14
 445 588 445 588 457 563.5 c 128,-1,15
 469 539 469 539 469 508 c 0,16,17
 469 471 469 471 457 442 c 128,-1,18
 445 413 445 413 420 397 c 128,-1,19
 395 381 395 381 355 381 c 2,20,-1
 270 381 l 1,21,-1
 270 289 l 1,22,-1
 373 289 l 2,23,24
 380 289 380 289 386.5 289.5 c 128,-1,25
 393 290 393 290 399.5 290.5 c 128,-1,26
 406 291 406 291 412 292 c 0,27,28
 494 297 494 297 551 324 c 128,-1,29
 608 351 608 351 638 397.5 c 128,-1,30
 668 444 668 444 668 508 c 0,31,32
 668 569 668 569 635.5 614.5 c 128,-1,33
 603 660 603 660 542 685 c 128,-1,34
 481 710 481 710 393 710 c 2,35,-1
 30 710 l 1,36,-1
 30 626 l 1,37,-1
 40 626 l 2,38,39
 64 626 64 626 80.5 619 c 128,-1,40
 97 612 97 612 97 591 c 2,41,-1
 97 119 l 2,42,43
 97 98 97 98 80.5 91 c 128,-1,44
 64 84 64 84 40 84 c 2,45,-1
 30 84 l 1,46,-1
 30 0 l 1,47,-1
 356 0 l 1,48,-1
 356 84 l 1,49,-1
 346 84 l 2,50,51
 337 84 337 84 327.5 84.5 c 128,-1,52
 318 85 318 85 310 86.5 c 128,-1,53
 302 88 302 88 297.5 89.5 c 128,-1,54
 293 91 293 91 293 94 c 2,10,-1
EndSplineSet
EndChar

StartChar: Rcaron
Encoding: 344 344 152
Width: 741
GlyphClass: 1
Flags: W
LayerCount: 2
Fore
SplineSet
294 753 m 1,0,-1
 430 753 l 1,1,-1
 541 884 l 1,2,-1
 541 910 l 1,3,-1
 457 910 l 1,4,-1
 316 816 l 1,5,-1
 416 816 l 1,6,-1
 276 910 l 1,7,-1
 183 910 l 1,8,-1
 183 884 l 1,9,-1
 294 753 l 1,0,-1
362 322 m 1,10,-1
 502 0 l 1,11,-1
 722 0 l 1,12,-1
 722 84 l 1,13,-1
 715 84 l 2,14,15
 702 84 702 84 691.5 86 c 128,-1,16
 681 88 681 88 674 94.5 c 128,-1,17
 667 101 667 101 661 112 c 2,18,-1
 545 347 l 1,19,-1
 362 322 l 1,10,-1
293 94 m 2,20,-1
 293 617 l 1,21,-1
 360 617 l 2,22,23
 396 617 396 617 420 602.5 c 128,-1,24
 444 588 444 588 456.5 564 c 128,-1,25
 469 540 469 540 469 508 c 0,26,27
 469 471 469 471 457 442 c 128,-1,28
 445 413 445 413 420 397 c 128,-1,29
 395 381 395 381 355 381 c 2,30,-1
 270 381 l 1,31,-1
 270 289 l 1,32,-1
 373 289 l 2,33,34
 380 289 380 289 386.5 289.5 c 128,-1,35
 393 290 393 290 399.5 290.5 c 128,-1,36
 406 291 406 291 412 292 c 0,37,38
 494 297 494 297 551 324 c 128,-1,39
 608 351 608 351 638 397.5 c 128,-1,40
 668 444 668 444 668 508 c 0,41,42
 668 569 668 569 635.5 614.5 c 128,-1,43
 603 660 603 660 542 685 c 128,-1,44
 481 710 481 710 393 710 c 2,45,-1
 30 710 l 1,46,-1
 30 626 l 1,47,-1
 40 626 l 2,48,49
 64 626 64 626 80.5 619 c 128,-1,50
 97 612 97 612 97 591 c 2,51,-1
 97 119 l 2,52,53
 97 98 97 98 80.5 91 c 128,-1,54
 64 84 64 84 40 84 c 2,55,-1
 30 84 l 1,56,-1
 30 0 l 1,57,-1
 356 0 l 1,58,-1
 356 84 l 1,59,-1
 346 84 l 2,60,61
 337 84 337 84 327.5 84.5 c 128,-1,62
 318 85 318 85 310 86.5 c 128,-1,63
 302 88 302 88 297.5 89.5 c 128,-1,64
 293 91 293 91 293 94 c 2,20,-1
EndSplineSet
EndChar

StartChar: Rdblgrave
Encoding: 528 528 153
Width: 741
GlyphClass: 1
Flags: W
LayerCount: 2
Fore
SplineSet
490 851 m 2,0,-1
 503 781 l 1,1,-1
 503 746 l 1,2,-1
 434 746 l 1,3,-1
 394 789 l 2,4,5
 367 820 367 820 355.5 842.5 c 128,-1,6
 344 865 344 865 344 887 c 0,7,8
 344 911 344 911 361.5 927 c 128,-1,9
 379 943 379 943 410 943 c 0,10,11
 434 943 434 943 450 932.5 c 128,-1,12
 466 922 466 922 475.5 902 c 128,-1,13
 485 882 485 882 490 851 c 2,0,-1
303 851 m 2,14,-1
 316 781 l 1,15,-1
 316 746 l 1,16,-1
 247 746 l 1,17,-1
 207 789 l 2,18,19
 180 820 180 820 168.5 842.5 c 128,-1,20
 157 865 157 865 157 887 c 0,21,22
 157 911 157 911 174.5 927 c 128,-1,23
 192 943 192 943 223 943 c 0,24,25
 248 943 248 943 263.5 932.5 c 128,-1,26
 279 922 279 922 289 902 c 128,-1,27
 299 882 299 882 303 851 c 2,14,-1
362 322 m 1,28,-1
 502 0 l 1,29,-1
 722 0 l 1,30,-1
 722 84 l 1,31,-1
 715 84 l 2,32,33
 702 84 702 84 691.5 86 c 128,-1,34
 681 88 681 88 674 94.5 c 128,-1,35
 667 101 667 101 661 112 c 2,36,-1
 545 347 l 1,37,-1
 362 322 l 1,28,-1
293 94 m 2,38,-1
 293 617 l 1,39,-1
 360 617 l 2,40,41
 396 617 396 617 420 602.5 c 128,-1,42
 444 588 444 588 456.5 564 c 128,-1,43
 469 540 469 540 469 508 c 0,44,45
 469 471 469 471 457 442 c 128,-1,46
 445 413 445 413 420 397 c 128,-1,47
 395 381 395 381 355 381 c 2,48,-1
 270 381 l 1,49,-1
 270 289 l 1,50,-1
 373 289 l 2,51,52
 380 289 380 289 386.5 289.5 c 128,-1,53
 393 290 393 290 399.5 290.5 c 128,-1,54
 406 291 406 291 412 292 c 0,55,56
 494 297 494 297 551 324 c 128,-1,57
 608 351 608 351 638 397.5 c 128,-1,58
 668 444 668 444 668 508 c 0,59,60
 668 569 668 569 635.5 614.5 c 128,-1,61
 603 660 603 660 542 685 c 128,-1,62
 481 710 481 710 393 710 c 2,63,-1
 30 710 l 1,64,-1
 30 626 l 1,65,-1
 40 626 l 2,66,67
 64 626 64 626 80.5 619 c 128,-1,68
 97 612 97 612 97 591 c 2,69,-1
 97 119 l 2,70,71
 97 98 97 98 80.5 91 c 128,-1,72
 64 84 64 84 40 84 c 2,73,-1
 30 84 l 1,74,-1
 30 0 l 1,75,-1
 356 0 l 1,76,-1
 356 84 l 1,77,-1
 346 84 l 2,78,79
 337 84 337 84 327.5 84.5 c 128,-1,80
 318 85 318 85 310 86.5 c 128,-1,81
 302 88 302 88 297.5 89.5 c 128,-1,82
 293 91 293 91 293 94 c 2,38,-1
EndSplineSet
EndChar

StartChar: Rinvertedbreve
Encoding: 530 530 154
Width: 741
GlyphClass: 1
Flags: W
LayerCount: 2
Fore
SplineSet
360 914 m 0,0,1
 312 914 312 914 275.5 896.5 c 128,-1,2
 239 879 239 879 218 844.5 c 128,-1,3
 197 810 197 810 194 756 c 1,4,-1
 284 756 l 1,5,6
 287 777 287 777 297 789 c 128,-1,7
 307 801 307 801 322 806 c 128,-1,8
 337 811 337 811 357 811 c 256,9,10
 377 811 377 811 392.5 806 c 128,-1,11
 408 801 408 801 418 789 c 128,-1,12
 428 777 428 777 431 756 c 1,13,-1
 526 756 l 1,14,15
 524 810 524 810 502 844.5 c 128,-1,16
 480 879 480 879 443.5 896.5 c 128,-1,17
 407 914 407 914 360 914 c 0,0,1
362 322 m 1,18,-1
 502 0 l 1,19,-1
 722 0 l 1,20,-1
 722 84 l 1,21,-1
 715 84 l 2,22,23
 702 84 702 84 691.5 86 c 128,-1,24
 681 88 681 88 674 94.5 c 128,-1,25
 667 101 667 101 661 112 c 2,26,-1
 545 347 l 1,27,-1
 362 322 l 1,18,-1
293 94 m 2,28,-1
 293 617 l 1,29,-1
 360 617 l 2,30,31
 396 617 396 617 420 602.5 c 128,-1,32
 444 588 444 588 456.5 564 c 128,-1,33
 469 540 469 540 469 508 c 0,34,35
 469 471 469 471 457 442 c 128,-1,36
 445 413 445 413 420 397 c 128,-1,37
 395 381 395 381 355 381 c 2,38,-1
 270 381 l 1,39,-1
 270 289 l 1,40,-1
 373 289 l 2,41,42
 380 289 380 289 386.5 289.5 c 128,-1,43
 393 290 393 290 399.5 290.5 c 128,-1,44
 406 291 406 291 412 292 c 0,45,46
 494 297 494 297 551 324 c 128,-1,47
 608 351 608 351 638 397.5 c 128,-1,48
 668 444 668 444 668 508 c 0,49,50
 668 569 668 569 635.5 614.5 c 128,-1,51
 603 660 603 660 542 685 c 128,-1,52
 481 710 481 710 393 710 c 2,53,-1
 30 710 l 1,54,-1
 30 626 l 1,55,-1
 40 626 l 2,56,57
 64 626 64 626 80.5 619 c 128,-1,58
 97 612 97 612 97 591 c 2,59,-1
 97 119 l 2,60,61
 97 98 97 98 80.5 91 c 128,-1,62
 64 84 64 84 40 84 c 2,63,-1
 30 84 l 1,64,-1
 30 0 l 1,65,-1
 356 0 l 1,66,-1
 356 84 l 1,67,-1
 346 84 l 2,68,69
 337 84 337 84 327.5 84.5 c 128,-1,70
 318 85 318 85 310 86.5 c 128,-1,71
 302 88 302 88 297.5 89.5 c 128,-1,72
 293 91 293 91 293 94 c 2,28,-1
EndSplineSet
EndChar

StartChar: S
Encoding: 83 83 157
Width: 625
GlyphClass: 2
Flags: W
AnchorPoint: "Anchor-1" 343 0 basechar 0
AnchorPoint: "Anchor-0" 343 741 basechar 0
LayerCount: 2
Fore
SplineSet
321 79 m 0,0,1
 355 79 355 79 379.5 87.5 c 128,-1,2
 404 96 404 96 417 114 c 128,-1,3
 430 132 430 132 430 160 c 0,4,5
 430 185 430 185 418 202.5 c 128,-1,6
 406 220 406 220 384 233.5 c 128,-1,7
 362 247 362 247 329.5 258.5 c 128,-1,8
 297 270 297 270 256 282 c 0,9,10
 217 294 217 294 180 310.5 c 128,-1,11
 143 327 143 327 113.5 353 c 128,-1,12
 84 379 84 379 66.5 417.5 c 128,-1,13
 49 456 49 456 49 511 c 0,14,15
 49 577 49 577 81.5 624 c 128,-1,16
 114 671 114 671 169 695.5 c 128,-1,17
 224 720 224 720 288 720 c 0,18,19
 344 720 344 720 386.5 705 c 128,-1,20
 429 690 429 690 459 656 c 128,-1,21
 489 622 489 622 509 565 c 1,22,-1
 452 574 l 1,23,-1
 470 710 l 1,24,-1
 550 710 l 1,25,-1
 550 523 l 1,26,-1
 459 523 l 1,27,28
 446 555 446 555 425.5 579.5 c 128,-1,29
 405 604 405 604 376.5 618 c 128,-1,30
 348 632 348 632 310 632 c 0,31,32
 284 632 284 632 262.5 623.5 c 128,-1,33
 241 615 241 615 229 598.5 c 128,-1,34
 217 582 217 582 217 557 c 0,35,36
 217 534 217 534 228.5 518 c 128,-1,37
 240 502 240 502 261.5 491 c 128,-1,38
 283 480 283 480 313 471 c 128,-1,39
 343 462 343 462 379 452 c 0,40,41
 422 440 422 440 462 424 c 128,-1,42
 502 408 502 408 533.5 382.5 c 128,-1,43
 565 357 565 357 583 319 c 128,-1,44
 601 281 601 281 601 225 c 0,45,46
 601 154 601 154 569.5 101 c 128,-1,47
 538 48 538 48 479.5 19 c 128,-1,48
 421 -10 421 -10 340 -10 c 0,49,50
 282 -10 282 -10 230 7.5 c 128,-1,51
 178 25 178 25 138 65 c 128,-1,52
 98 105 98 105 74 172 c 1,53,-1
 136 157 l 1,54,-1
 116 0 l 1,55,-1
 33 0 l 1,56,-1
 33 222 l 1,57,-1
 130 222 l 1,58,59
 148 179 148 179 176 146.5 c 128,-1,60
 204 114 204 114 241 96.5 c 128,-1,61
 278 79 278 79 321 79 c 0,0,1
EndSplineSet
EndChar

StartChar: Scaron
Encoding: 352 352 161
Width: 625
GlyphClass: 1
Flags: W
LayerCount: 2
Fore
SplineSet
240 753 m 1,0,-1
 376 753 l 1,1,-1
 487 884 l 1,2,-1
 487 910 l 1,3,-1
 403 910 l 1,4,-1
 262 816 l 1,5,-1
 362 816 l 1,6,-1
 222 910 l 1,7,-1
 129 910 l 1,8,-1
 129 884 l 1,9,-1
 240 753 l 1,0,-1
321 79 m 0,10,11
 355 79 355 79 379.5 87.5 c 128,-1,12
 404 96 404 96 417 114 c 128,-1,13
 430 132 430 132 430 160 c 0,14,15
 430 185 430 185 418 202.5 c 128,-1,16
 406 220 406 220 384 233.5 c 128,-1,17
 362 247 362 247 329.5 258.5 c 128,-1,18
 297 270 297 270 256 282 c 0,19,20
 217 294 217 294 180 310.5 c 128,-1,21
 143 327 143 327 113.5 353 c 128,-1,22
 84 379 84 379 66.5 417.5 c 128,-1,23
 49 456 49 456 49 511 c 0,24,25
 49 577 49 577 81.5 624 c 128,-1,26
 114 671 114 671 169 695.5 c 128,-1,27
 224 720 224 720 288 720 c 0,28,29
 344 720 344 720 386.5 705 c 128,-1,30
 429 690 429 690 459 656 c 128,-1,31
 489 622 489 622 509 565 c 1,32,-1
 452 574 l 1,33,-1
 470 710 l 1,34,-1
 550 710 l 1,35,-1
 550 523 l 1,36,-1
 459 523 l 1,37,38
 446 555 446 555 425.5 579.5 c 128,-1,39
 405 604 405 604 376.5 618 c 128,-1,40
 348 632 348 632 310 632 c 0,41,42
 284 632 284 632 262.5 623.5 c 128,-1,43
 241 615 241 615 229 598.5 c 128,-1,44
 217 582 217 582 217 557 c 0,45,46
 217 534 217 534 228.5 518 c 128,-1,47
 240 502 240 502 261.5 491 c 128,-1,48
 283 480 283 480 313 471 c 128,-1,49
 343 462 343 462 379 452 c 0,50,51
 422 440 422 440 462 424 c 128,-1,52
 502 408 502 408 533.5 382.5 c 128,-1,53
 565 357 565 357 583 319 c 128,-1,54
 601 281 601 281 601 225 c 0,55,56
 601 154 601 154 569.5 101 c 128,-1,57
 538 48 538 48 479.5 19 c 128,-1,58
 421 -10 421 -10 340 -10 c 0,59,60
 282 -10 282 -10 230 7.5 c 128,-1,61
 178 25 178 25 138 65 c 128,-1,62
 98 105 98 105 74 172 c 1,63,-1
 136 157 l 1,64,-1
 116 0 l 1,65,-1
 33 0 l 1,66,-1
 33 222 l 1,67,-1
 130 222 l 1,68,69
 148 179 148 179 176 146.5 c 128,-1,70
 204 114 204 114 241 96.5 c 128,-1,71
 278 79 278 79 321 79 c 0,10,11
EndSplineSet
EndChar

StartChar: Scarondotaccent
Encoding: 7782 7782 166
Width: 625
GlyphClass: 1
Flags: W
LayerCount: 2
Fore
SplineSet
234 753 m 1,0,-1
 370 753 l 1,1,-1
 481 884 l 1,2,-1
 481 910 l 1,3,-1
 397 910 l 1,4,-1
 257 816 l 1,5,-1
 356 816 l 1,6,-1
 216 910 l 1,7,-1
 124 910 l 1,8,-1
 124 884 l 1,9,-1
 234 753 l 1,0,-1
321 79 m 0,10,11
 355 79 355 79 379.5 87.5 c 128,-1,12
 404 96 404 96 417 114 c 128,-1,13
 430 132 430 132 430 160 c 0,14,15
 430 185 430 185 418 202.5 c 128,-1,16
 406 220 406 220 384 233.5 c 128,-1,17
 362 247 362 247 329.5 258.5 c 128,-1,18
 297 270 297 270 256 282 c 0,19,20
 217 294 217 294 180 310.5 c 128,-1,21
 143 327 143 327 113.5 353 c 128,-1,22
 84 379 84 379 66.5 417.5 c 128,-1,23
 49 456 49 456 49 511 c 0,24,25
 49 577 49 577 81.5 624 c 128,-1,26
 114 671 114 671 169 695.5 c 128,-1,27
 224 720 224 720 288 720 c 0,28,29
 344 720 344 720 386.5 705 c 128,-1,30
 429 690 429 690 459 656 c 128,-1,31
 489 622 489 622 509 565 c 1,32,-1
 452 574 l 1,33,-1
 470 710 l 1,34,-1
 550 710 l 1,35,-1
 550 523 l 1,36,-1
 459 523 l 1,37,38
 446 555 446 555 425.5 579.5 c 128,-1,39
 405 604 405 604 376.5 618 c 128,-1,40
 348 632 348 632 310 632 c 0,41,42
 284 632 284 632 262.5 623.5 c 128,-1,43
 241 615 241 615 229 598.5 c 128,-1,44
 217 582 217 582 217 557 c 0,45,46
 217 534 217 534 228.5 518 c 128,-1,47
 240 502 240 502 261.5 491 c 128,-1,48
 283 480 283 480 313 471 c 128,-1,49
 343 462 343 462 379 452 c 0,50,51
 422 440 422 440 462 424 c 128,-1,52
 502 408 502 408 533.5 382.5 c 128,-1,53
 565 357 565 357 583 319 c 128,-1,54
 601 281 601 281 601 225 c 0,55,56
 601 154 601 154 569.5 101 c 128,-1,57
 538 48 538 48 479.5 19 c 128,-1,58
 421 -10 421 -10 340 -10 c 0,59,60
 282 -10 282 -10 230 7.5 c 128,-1,61
 178 25 178 25 138 65 c 128,-1,62
 98 105 98 105 74 172 c 1,63,-1
 136 157 l 1,64,-1
 116 0 l 1,65,-1
 33 0 l 1,66,-1
 33 222 l 1,67,-1
 130 222 l 1,68,69
 148 179 148 179 176 146.5 c 128,-1,70
 204 114 204 114 241 96.5 c 128,-1,71
 278 79 278 79 321 79 c 0,10,11
302 921 m 0,72,73
 254 921 254 921 226 944.5 c 128,-1,74
 198 968 198 968 198 1009 c 0,75,76
 198 1049 198 1049 226 1072.5 c 128,-1,77
 254 1096 254 1096 302 1096 c 0,78,79
 352 1096 352 1096 379.5 1072.5 c 128,-1,80
 407 1049 407 1049 407 1009 c 256,81,82
 407 969 407 969 379.5 945 c 128,-1,83
 352 921 352 921 302 921 c 0,72,73
EndSplineSet
EndChar

StartChar: T
Encoding: 84 84 168
Width: 712
GlyphClass: 2
Flags: W
AnchorPoint: "Anchor-1" 361 0 basechar 0
AnchorPoint: "Anchor-0" 361 741 basechar 0
LayerCount: 2
Fore
SplineSet
258 119 m 2,0,-1
 258 616 l 1,1,-1
 211 616 l 2,2,3
 183 616 183 616 166.5 612.5 c 128,-1,4
 150 609 150 609 142.5 599.5 c 128,-1,5
 135 590 135 590 132 570 c 2,6,-1
 122 484 l 1,7,-1
 29 484 l 1,8,-1
 29 710 l 1,9,-1
 683 710 l 1,10,-1
 683 484 l 1,11,-1
 589 484 l 1,12,-1
 580 570 l 2,13,14
 578 590 578 590 570 599.5 c 128,-1,15
 562 609 562 609 545.5 612.5 c 128,-1,16
 529 616 529 616 500 616 c 2,17,-1
 454 616 l 1,18,-1
 454 119 l 2,19,20
 454 98 454 98 470.5 91 c 128,-1,21
 487 84 487 84 511 84 c 2,22,-1
 526 84 l 1,23,-1
 526 0 l 1,24,-1
 186 0 l 1,25,-1
 186 84 l 1,26,-1
 201 84 l 2,27,28
 225 84 225 84 241.5 91 c 128,-1,29
 258 98 258 98 258 119 c 2,0,-1
EndSplineSet
EndChar

StartChar: Tcaron
Encoding: 356 356 170
Width: 712
GlyphClass: 1
Flags: W
LayerCount: 2
Fore
SplineSet
288 753 m 1,0,-1
 423 753 l 1,1,-1
 535 884 l 1,2,-1
 535 910 l 1,3,-1
 450 910 l 1,4,-1
 310 816 l 1,5,-1
 410 816 l 1,6,-1
 269 910 l 1,7,-1
 177 910 l 1,8,-1
 177 884 l 1,9,-1
 288 753 l 1,0,-1
258 119 m 2,10,-1
 258 616 l 1,11,-1
 211 616 l 2,12,13
 183 616 183 616 166.5 612.5 c 128,-1,14
 150 609 150 609 142.5 599.5 c 128,-1,15
 135 590 135 590 132 570 c 2,16,-1
 122 484 l 1,17,-1
 29 484 l 1,18,-1
 29 710 l 1,19,-1
 683 710 l 1,20,-1
 683 484 l 1,21,-1
 589 484 l 1,22,-1
 580 570 l 2,23,24
 578 590 578 590 570 599.5 c 128,-1,25
 562 609 562 609 545.5 612.5 c 128,-1,26
 529 616 529 616 500 616 c 2,27,-1
 454 616 l 1,28,-1
 454 119 l 2,29,30
 454 98 454 98 470.5 91 c 128,-1,31
 487 84 487 84 511 84 c 2,32,-1
 526 84 l 1,33,-1
 526 0 l 1,34,-1
 186 0 l 1,35,-1
 186 84 l 1,36,-1
 201 84 l 2,37,38
 225 84 225 84 241.5 91 c 128,-1,39
 258 98 258 98 258 119 c 2,10,-1
EndSplineSet
EndChar

StartChar: U
Encoding: 85 85 174
Width: 762
GlyphClass: 2
Flags: W
AnchorPoint: "Anchor-2" 437 0 basechar 0
AnchorPoint: "Anchor-1" 386 0 basechar 0
AnchorPoint: "Anchor-0" 386 741 basechar 0
LayerCount: 2
Fore
SplineSet
291 294 m 2,0,1
 291 242 291 242 300.5 206 c 128,-1,2
 310 170 310 170 328.5 148 c 128,-1,3
 347 126 347 126 373 116 c 128,-1,4
 399 106 399 106 432 106 c 0,5,6
 468 106 468 106 495 117.5 c 128,-1,7
 522 129 522 129 539.5 151.5 c 128,-1,8
 557 174 557 174 566 211 c 128,-1,9
 575 248 575 248 575 300 c 2,10,-1
 575 605 l 2,11,12
 575 610 575 610 570 614 c 128,-1,13
 565 618 565 618 557 620.5 c 128,-1,14
 549 623 549 623 539.5 624.5 c 128,-1,15
 530 626 530 626 520 626 c 2,16,-1
 510 626 l 1,17,-1
 510 710 l 1,18,-1
 734 710 l 1,19,-1
 734 626 l 1,20,-1
 723 626 l 2,21,22
 711 626 711 626 700 622.5 c 128,-1,23
 689 619 689 619 682.5 610 c 128,-1,24
 676 601 676 601 676 585 c 2,25,-1
 676 270 l 2,26,27
 676 194 676 194 654 141 c 128,-1,28
 632 88 632 88 593 54.5 c 128,-1,29
 554 21 554 21 504.5 5.5 c 128,-1,30
 455 -10 455 -10 401 -10 c 0,31,32
 331 -10 331 -10 274.5 6.5 c 128,-1,33
 218 23 218 23 178 57 c 128,-1,34
 138 91 138 91 116.5 145 c 128,-1,35
 95 199 95 199 95 274 c 2,36,-1
 95 591 l 2,37,38
 95 612 95 612 78 619 c 128,-1,39
 61 626 61 626 38 626 c 2,40,-1
 28 626 l 1,41,-1
 28 710 l 1,42,-1
 359 710 l 1,43,-1
 359 626 l 1,44,-1
 350 626 l 2,45,46
 341 626 341 626 330.5 625.5 c 128,-1,47
 320 625 320 625 311 623.5 c 128,-1,48
 302 622 302 622 296.5 620.5 c 128,-1,49
 291 619 291 619 291 616 c 2,50,-1
 291 294 l 2,0,1
EndSplineSet
EndChar

StartChar: Uogonek
Encoding: 370 370 184
Width: 762
GlyphClass: 1
Flags: W
LayerCount: 2
Fore
SplineSet
532 46 m 1,0,-1
 521 17 l 1,1,2
 494 4 494 4 465.5 -3 c 128,-1,3
 437 -10 437 -10 401 -10 c 0,4,5
 331 -10 331 -10 274.5 6.5 c 128,-1,6
 218 23 218 23 177.5 57 c 128,-1,7
 137 91 137 91 116 145 c 128,-1,8
 95 199 95 199 95 274 c 2,9,-1
 95 591 l 2,10,11
 95 612 95 612 79.5 619 c 128,-1,12
 64 626 64 626 38 626 c 2,13,-1
 28 626 l 1,14,-1
 28 710 l 1,15,-1
 359 710 l 1,16,-1
 359 626 l 1,17,-1
 350 626 l 2,18,19
 341 626 341 626 330.5 625.5 c 128,-1,20
 320 625 320 625 311 623.5 c 128,-1,21
 302 622 302 622 296.5 620.5 c 128,-1,22
 291 619 291 619 291 616 c 2,23,-1
 291 290 l 2,24,25
 291 239 291 239 300.5 204 c 128,-1,26
 310 169 310 169 328.5 147.5 c 128,-1,27
 347 126 347 126 373.5 116.5 c 128,-1,28
 400 107 400 107 434 107 c 0,29,30
 469 107 469 107 495.5 117.5 c 128,-1,31
 522 128 522 128 540 150.5 c 128,-1,32
 558 173 558 173 566.5 209 c 128,-1,33
 575 245 575 245 575 296 c 2,34,-1
 575 605 l 2,35,36
 575 610 575 610 570.5 614 c 128,-1,37
 566 618 566 618 558 621 c 128,-1,38
 550 624 550 624 540.5 625 c 128,-1,39
 531 626 531 626 520 626 c 2,40,-1
 510 626 l 1,41,-1
 510 710 l 1,42,-1
 734 710 l 1,43,-1
 734 626 l 1,44,-1
 723 626 l 2,45,46
 709 626 709 626 698 622.5 c 128,-1,47
 687 619 687 619 681.5 610 c 128,-1,48
 676 601 676 601 676 585 c 2,49,-1
 676 270 l 2,50,51
 676 220 676 220 664 179 c 128,-1,52
 652 138 652 138 632 106 c 128,-1,53
 612 74 612 74 587 49 c 0,54,55
 561 25 561 25 540 3.5 c 128,-1,56
 519 -18 519 -18 503.5 -37.5 c 128,-1,57
 488 -57 488 -57 479.5 -75.5 c 128,-1,58
 471 -94 471 -94 471 -112 c 256,59,60
 471 -130 471 -130 480.5 -140 c 128,-1,61
 490 -150 490 -150 508 -150 c 0,62,63
 524 -150 524 -150 536 -143 c 128,-1,64
 548 -136 548 -136 558 -127 c 1,65,-1
 601 -176 l 1,66,67
 577 -206 577 -206 544.5 -224 c 128,-1,68
 512 -242 512 -242 458 -242 c 0,69,70
 420 -242 420 -242 391 -231 c 128,-1,71
 362 -220 362 -220 346 -197.5 c 128,-1,72
 330 -175 330 -175 330 -140 c 0,73,74
 330 -113 330 -113 343 -88.5 c 128,-1,75
 356 -64 356 -64 381.5 -41.5 c 128,-1,76
 407 -19 407 -19 444.5 2.5 c 128,-1,77
 482 24 482 24 532 46 c 1,0,-1
EndSplineSet
EndChar

StartChar: Uhorn
Encoding: 431 431 185
Width: 817
GlyphClass: 2
Flags: W
AnchorPoint: "Anchor-1" 411 -35 basechar 0
AnchorPoint: "Anchor-0" 411 663 basechar 0
LayerCount: 2
Fore
SplineSet
95 274 m 2,0,-1
 95 591 l 2,1,2
 95 612 95 612 79.5 619 c 128,-1,3
 64 626 64 626 38 626 c 2,4,-1
 28 626 l 1,5,-1
 28 710 l 1,6,-1
 359 710 l 1,7,-1
 359 626 l 1,8,-1
 350 626 l 2,9,10
 341 626 341 626 330.5 625.5 c 128,-1,11
 320 625 320 625 311 623.5 c 128,-1,12
 302 622 302 622 296.5 620.5 c 128,-1,13
 291 619 291 619 291 616 c 2,14,-1
 291 290 l 2,15,16
 291 239 291 239 300.5 203.5 c 128,-1,17
 310 168 310 168 328.5 147 c 128,-1,18
 347 126 347 126 373.5 116.5 c 128,-1,19
 400 107 400 107 433 107 c 0,20,21
 480 107 480 107 511.5 126 c 128,-1,22
 543 145 543 145 559 186.5 c 128,-1,23
 575 228 575 228 575 296 c 2,24,-1
 575 605 l 2,25,26
 575 610 575 610 570.5 614 c 128,-1,27
 566 618 566 618 558 621 c 128,-1,28
 550 624 550 624 540.5 625 c 128,-1,29
 531 626 531 626 520 626 c 2,30,-1
 510 626 l 1,31,-1
 510 710 l 1,32,-1
 591 710 l 2,33,34
 636 710 636 710 663 717.5 c 128,-1,35
 690 725 690 725 704 742.5 c 128,-1,36
 718 760 718 760 723.5 790.5 c 128,-1,37
 729 821 729 821 730 869 c 1,38,-1
 864 869 l 1,39,40
 863 828 863 828 857.5 794 c 128,-1,41
 852 760 852 760 840 733 c 128,-1,42
 828 706 828 706 810.5 686.5 c 128,-1,43
 793 667 793 667 768.5 653.5 c 128,-1,44
 744 640 744 640 713 634 c 0,45,46
 700 631 700 631 691.5 626.5 c 128,-1,47
 683 622 683 622 679.5 614 c 128,-1,48
 676 606 676 606 676 592 c 2,49,-1
 676 270 l 2,50,51
 676 195 676 195 654 141.5 c 128,-1,52
 632 88 632 88 594 54.5 c 128,-1,53
 556 21 556 21 506 5.5 c 128,-1,54
 456 -10 456 -10 401 -10 c 0,55,56
 331 -10 331 -10 274.5 6.5 c 128,-1,57
 218 23 218 23 177.5 57 c 128,-1,58
 137 91 137 91 116 145 c 128,-1,59
 95 199 95 199 95 274 c 2,0,-1
EndSplineSet
EndChar

StartChar: Ucaron
Encoding: 467 467 186
Width: 762
GlyphClass: 1
Flags: W
LayerCount: 2
Fore
SplineSet
364 753 m 1,0,-1
 499 753 l 1,1,-1
 611 884 l 1,2,-1
 611 910 l 1,3,-1
 526 910 l 1,4,-1
 386 816 l 1,5,-1
 486 816 l 1,6,-1
 345 910 l 1,7,-1
 253 910 l 1,8,-1
 253 884 l 1,9,-1
 364 753 l 1,0,-1
291 294 m 2,10,11
 291 242 291 242 300.5 206 c 128,-1,12
 310 170 310 170 328.5 148 c 128,-1,13
 347 126 347 126 373 116 c 128,-1,14
 399 106 399 106 432 106 c 0,15,16
 468 106 468 106 495 117.5 c 128,-1,17
 522 129 522 129 539.5 151.5 c 128,-1,18
 557 174 557 174 566 211 c 128,-1,19
 575 248 575 248 575 300 c 2,20,-1
 575 605 l 2,21,22
 575 610 575 610 570 614 c 128,-1,23
 565 618 565 618 557 621 c 128,-1,24
 549 624 549 624 539.5 625 c 128,-1,25
 530 626 530 626 520 626 c 2,26,-1
 510 626 l 1,27,-1
 510 710 l 1,28,-1
 734 710 l 1,29,-1
 734 626 l 1,30,-1
 723 626 l 2,31,32
 711 626 711 626 700 622.5 c 128,-1,33
 689 619 689 619 682.5 610 c 128,-1,34
 676 601 676 601 676 585 c 2,35,-1
 676 270 l 2,36,37
 676 195 676 195 654 141.5 c 128,-1,38
 632 88 632 88 593 54.5 c 128,-1,39
 554 21 554 21 504.5 5.5 c 128,-1,40
 455 -10 455 -10 401 -10 c 0,41,42
 331 -10 331 -10 274.5 6.5 c 128,-1,43
 218 23 218 23 178 57 c 128,-1,44
 138 91 138 91 116.5 145 c 128,-1,45
 95 199 95 199 95 274 c 2,46,-1
 95 591 l 2,47,48
 95 612 95 612 78.5 619 c 128,-1,49
 62 626 62 626 38 626 c 2,50,-1
 28 626 l 1,51,-1
 28 710 l 1,52,-1
 359 710 l 1,53,-1
 359 626 l 1,54,-1
 350 626 l 2,55,56
 341 626 341 626 330.5 625.5 c 128,-1,57
 320 625 320 625 311 623.5 c 128,-1,58
 302 622 302 622 296.5 620.5 c 128,-1,59
 291 619 291 619 291 616 c 2,60,-1
 291 294 l 2,10,11
EndSplineSet
EndChar

StartChar: Udieresiscaron
Encoding: 473 473 187
Width: 762
GlyphClass: 1
Flags: W
LayerCount: 2
Fore
SplineSet
346 960 m 1,0,-1
 482 960 l 1,1,-1
 593 1091 l 1,2,-1
 593 1118 l 1,3,-1
 508 1118 l 1,4,-1
 368 1024 l 1,5,-1
 468 1024 l 1,6,-1
 327 1118 l 1,7,-1
 235 1118 l 1,8,-1
 235 1091 l 1,9,-1
 346 960 l 1,0,-1
291 294 m 2,10,11
 291 242 291 242 300.5 206 c 128,-1,12
 310 170 310 170 328.5 148 c 128,-1,13
 347 126 347 126 373 116 c 128,-1,14
 399 106 399 106 432 106 c 0,15,16
 468 106 468 106 495 117.5 c 128,-1,17
 522 129 522 129 539.5 151.5 c 128,-1,18
 557 174 557 174 566 211 c 128,-1,19
 575 248 575 248 575 300 c 2,20,-1
 575 605 l 2,21,22
 575 610 575 610 570 614 c 128,-1,23
 565 618 565 618 557 621 c 128,-1,24
 549 624 549 624 539.5 625 c 128,-1,25
 530 626 530 626 520 626 c 2,26,-1
 510 626 l 1,27,-1
 510 710 l 1,28,-1
 734 710 l 1,29,-1
 734 626 l 1,30,-1
 723 626 l 2,31,32
 711 626 711 626 700 622.5 c 128,-1,33
 689 619 689 619 682.5 610 c 128,-1,34
 676 601 676 601 676 585 c 2,35,-1
 676 270 l 2,36,37
 676 195 676 195 654 141.5 c 128,-1,38
 632 88 632 88 593 54.5 c 128,-1,39
 554 21 554 21 504.5 5.5 c 128,-1,40
 455 -10 455 -10 401 -10 c 0,41,42
 331 -10 331 -10 274.5 6.5 c 128,-1,43
 218 23 218 23 178 57 c 128,-1,44
 138 91 138 91 116.5 145 c 128,-1,45
 95 199 95 199 95 274 c 2,46,-1
 95 591 l 2,47,48
 95 612 95 612 78.5 619 c 128,-1,49
 62 626 62 626 38 626 c 2,50,-1
 28 626 l 1,51,-1
 28 710 l 1,52,-1
 359 710 l 1,53,-1
 359 626 l 1,54,-1
 350 626 l 2,55,56
 341 626 341 626 330.5 625.5 c 128,-1,57
 320 625 320 625 311 623.5 c 128,-1,58
 302 622 302 622 296.5 620.5 c 128,-1,59
 291 619 291 619 291 616 c 2,60,-1
 291 294 l 2,10,11
390 851 m 256,61,62
 390 812 390 812 364 789.5 c 128,-1,63
 338 767 338 767 293 767 c 256,64,65
 248 767 248 767 221.5 789 c 128,-1,66
 195 811 195 811 195 851 c 0,67,68
 195 890 195 890 221.5 911.5 c 128,-1,69
 248 933 248 933 293 933 c 256,70,71
 338 933 338 933 364 911.5 c 128,-1,72
 390 890 390 890 390 851 c 256,61,62
633 851 m 256,73,74
 633 812 633 812 607 789.5 c 128,-1,75
 581 767 581 767 536 767 c 256,76,77
 491 767 491 767 464.5 789 c 128,-1,78
 438 811 438 811 438 851 c 0,79,80
 438 890 438 890 464.5 911.5 c 128,-1,81
 491 933 491 933 536 933 c 256,82,83
 581 933 581 933 607 911.5 c 128,-1,84
 633 890 633 890 633 851 c 256,73,74
EndSplineSet
EndChar

StartChar: Udblgrave
Encoding: 532 532 188
Width: 762
GlyphClass: 1
Flags: W
LayerCount: 2
Fore
SplineSet
569 851 m 2,0,-1
 581 781 l 1,1,-1
 581 746 l 1,2,-1
 513 746 l 1,3,-1
 473 789 l 2,4,5
 445 820 445 820 434 842.5 c 128,-1,6
 423 865 423 865 423 887 c 0,7,8
 423 911 423 911 440.5 927 c 128,-1,9
 458 943 458 943 489 943 c 0,10,11
 513 943 513 943 529 932.5 c 128,-1,12
 545 922 545 922 554.5 902 c 128,-1,13
 564 882 564 882 569 851 c 2,0,-1
382 851 m 2,14,-1
 395 781 l 1,15,-1
 395 746 l 1,16,-1
 326 746 l 1,17,-1
 286 789 l 2,18,19
 259 820 259 820 247.5 842.5 c 128,-1,20
 236 865 236 865 236 887 c 0,21,22
 236 911 236 911 253.5 927 c 128,-1,23
 271 943 271 943 302 943 c 0,24,25
 327 943 327 943 342.5 932.5 c 128,-1,26
 358 922 358 922 367.5 902 c 128,-1,27
 377 882 377 882 382 851 c 2,14,-1
291 294 m 2,28,29
 291 242 291 242 300.5 206 c 128,-1,30
 310 170 310 170 328.5 148 c 128,-1,31
 347 126 347 126 373 116 c 128,-1,32
 399 106 399 106 432 106 c 0,33,34
 468 106 468 106 495 117.5 c 128,-1,35
 522 129 522 129 539.5 151.5 c 128,-1,36
 557 174 557 174 566 211 c 128,-1,37
 575 248 575 248 575 300 c 2,38,-1
 575 605 l 2,39,40
 575 610 575 610 570 614 c 128,-1,41
 565 618 565 618 557 621 c 128,-1,42
 549 624 549 624 539.5 625 c 128,-1,43
 530 626 530 626 520 626 c 2,44,-1
 510 626 l 1,45,-1
 510 710 l 1,46,-1
 734 710 l 1,47,-1
 734 626 l 1,48,-1
 723 626 l 2,49,50
 711 626 711 626 700 622.5 c 128,-1,51
 689 619 689 619 682.5 610 c 128,-1,52
 676 601 676 601 676 585 c 2,53,-1
 676 270 l 2,54,55
 676 195 676 195 654 141.5 c 128,-1,56
 632 88 632 88 593 54.5 c 128,-1,57
 554 21 554 21 504.5 5.5 c 128,-1,58
 455 -10 455 -10 401 -10 c 0,59,60
 331 -10 331 -10 274.5 6.5 c 128,-1,61
 218 23 218 23 178 57 c 128,-1,62
 138 91 138 91 116.5 145 c 128,-1,63
 95 199 95 199 95 274 c 2,64,-1
 95 591 l 2,65,66
 95 612 95 612 78.5 619 c 128,-1,67
 62 626 62 626 38 626 c 2,68,-1
 28 626 l 1,69,-1
 28 710 l 1,70,-1
 359 710 l 1,71,-1
 359 626 l 1,72,-1
 350 626 l 2,73,74
 341 626 341 626 330.5 625.5 c 128,-1,75
 320 625 320 625 311 623.5 c 128,-1,76
 302 622 302 622 296.5 620.5 c 128,-1,77
 291 619 291 619 291 616 c 2,78,-1
 291 294 l 2,28,29
EndSplineSet
EndChar

StartChar: Uinvertedbreve
Encoding: 534 534 189
Width: 762
GlyphClass: 1
Flags: W
LayerCount: 2
Fore
SplineSet
433 914 m 0,0,1
 385 914 385 914 348.5 896.5 c 128,-1,2
 312 879 312 879 291 844.5 c 128,-1,3
 270 810 270 810 267 756 c 1,4,-1
 357 756 l 1,5,6
 360 777 360 777 370 789 c 128,-1,7
 380 801 380 801 395 806 c 128,-1,8
 410 811 410 811 430 811 c 256,9,10
 450 811 450 811 465.5 806 c 128,-1,11
 481 801 481 801 491 789 c 128,-1,12
 501 777 501 777 504 756 c 1,13,-1
 599 756 l 1,14,15
 597 810 597 810 575 844.5 c 128,-1,16
 553 879 553 879 516.5 896.5 c 128,-1,17
 480 914 480 914 433 914 c 0,0,1
291 294 m 2,18,19
 291 242 291 242 300.5 206 c 128,-1,20
 310 170 310 170 328.5 148 c 128,-1,21
 347 126 347 126 373 116 c 128,-1,22
 399 106 399 106 432 106 c 0,23,24
 468 106 468 106 495 117.5 c 128,-1,25
 522 129 522 129 539.5 151.5 c 128,-1,26
 557 174 557 174 566 211 c 128,-1,27
 575 248 575 248 575 300 c 2,28,-1
 575 605 l 2,29,30
 575 610 575 610 570 614 c 128,-1,31
 565 618 565 618 557 621 c 128,-1,32
 549 624 549 624 539.5 625 c 128,-1,33
 530 626 530 626 520 626 c 2,34,-1
 510 626 l 1,35,-1
 510 710 l 1,36,-1
 734 710 l 1,37,-1
 734 626 l 1,38,-1
 723 626 l 2,39,40
 711 626 711 626 700 622.5 c 128,-1,41
 689 619 689 619 682.5 610 c 128,-1,42
 676 601 676 601 676 585 c 2,43,-1
 676 270 l 2,44,45
 676 195 676 195 654 141.5 c 128,-1,46
 632 88 632 88 593 54.5 c 128,-1,47
 554 21 554 21 504.5 5.5 c 128,-1,48
 455 -10 455 -10 401 -10 c 0,49,50
 331 -10 331 -10 274.5 6.5 c 128,-1,51
 218 23 218 23 178 57 c 128,-1,52
 138 91 138 91 116.5 145 c 128,-1,53
 95 199 95 199 95 274 c 2,54,-1
 95 591 l 2,55,56
 95 612 95 612 78.5 619 c 128,-1,57
 62 626 62 626 38 626 c 2,58,-1
 28 626 l 1,59,-1
 28 710 l 1,60,-1
 359 710 l 1,61,-1
 359 626 l 1,62,-1
 350 626 l 2,63,64
 341 626 341 626 330.5 625.5 c 128,-1,65
 320 625 320 625 311 623.5 c 128,-1,66
 302 622 302 622 296.5 620.5 c 128,-1,67
 291 619 291 619 291 616 c 2,68,-1
 291 294 l 2,18,19
EndSplineSet
EndChar

StartChar: V
Encoding: 86 86 199
Width: 714
GlyphClass: 2
Flags: W
AnchorPoint: "Anchor-0" 360 741 basechar 0
LayerCount: 2
Fore
SplineSet
440 73 m 1,0,-1
 390 108 l 1,1,-1
 555 608 l 2,2,3
 555 614 555 614 548 618 c 128,-1,4
 541 622 541 622 530 624 c 128,-1,5
 519 626 519 626 506 626 c 2,6,-1
 492 626 l 1,7,-1
 492 710 l 1,8,-1
 705 710 l 1,9,-1
 705 626 l 1,10,-1
 701 626 l 2,11,12
 681 626 681 626 668.5 617 c 128,-1,13
 656 608 656 608 647 581 c 2,14,-1
 455 0 l 1,15,-1
 267 0 l 1,16,-1
 68 597 l 2,17,18
 62 616 62 616 47 621 c 128,-1,19
 32 626 32 626 14 626 c 2,20,-1
 9 626 l 1,21,-1
 9 710 l 1,22,-1
 331 710 l 1,23,-1
 331 626 l 1,24,-1
 315 626 l 2,25,26
 303 626 303 626 291 625 c 128,-1,27
 279 624 279 624 271 622 c 128,-1,28
 263 620 263 620 263 616 c 2,29,-1
 440 73 l 1,0,-1
EndSplineSet
EndChar

StartChar: W
Encoding: 87 87 200
Width: 1020
GlyphClass: 2
Flags: W
AnchorPoint: "Anchor-0" 524 741 basechar 0
LayerCount: 2
Fore
SplineSet
9 710 m 1,0,-1
 333 710 l 1,1,-1
 333 626 l 1,2,-1
 317 626 l 2,3,4
 305 626 305 626 292 625 c 128,-1,5
 279 624 279 624 270.5 622 c 128,-1,6
 262 620 262 620 262 616 c 2,7,-1
 365 128 l 1,8,-1
 334 126 l 1,9,-1
 484 710 l 1,10,-1
 654 710 l 1,11,-1
 792 132 l 1,12,-1
 762 131 l 1,13,-1
 870 608 l 2,14,15
 870 614 870 614 863 618 c 128,-1,16
 856 622 856 622 845 624 c 128,-1,17
 834 626 834 626 822 626 c 2,18,-1
 805 626 l 1,19,-1
 805 710 l 1,20,-1
 1010 710 l 1,21,-1
 1010 626 l 1,22,-1
 1005 626 l 2,23,24
 986 626 986 626 973.5 616.5 c 128,-1,25
 961 607 961 607 955 580 c 2,26,-1
 825 0 l 1,27,-1
 641 0 l 1,28,-1
 507 569 l 1,29,-1
 541 568 l 1,30,-1
 396 0 l 1,31,-1
 207 0 l 1,32,-1
 70 595 l 2,33,34
 65 615 65 615 50.5 620.5 c 128,-1,35
 36 626 36 626 16 626 c 2,36,-1
 9 626 l 1,37,-1
 9 710 l 1,0,-1
EndSplineSet
EndChar

StartChar: X
Encoding: 88 88 205
Width: 729
GlyphClass: 2
Flags: W
AnchorPoint: "Anchor-1" 355 0 basechar 0
AnchorPoint: "Anchor-0" 378 741 basechar 0
LayerCount: 2
Fore
SplineSet
26 626 m 1,0,-1
 26 710 l 1,1,-1
 365 710 l 1,2,-1
 365 626 l 1,3,-1
 343 626 l 2,4,5
 331 626 331 626 321 624.5 c 128,-1,6
 311 623 311 623 306 620.5 c 128,-1,7
 301 618 301 618 302 613 c 2,8,-1
 434 407 l 1,9,-1
 448 404 l 1,10,-1
 641 116 l 2,11,12
 655 96 655 96 670 90 c 128,-1,13
 685 84 685 84 704 84 c 2,14,-1
 714 84 l 1,15,-1
 714 0 l 1,16,-1
 367 0 l 1,17,-1
 367 84 l 1,18,-1
 385 84 l 2,19,20
 397 84 397 84 408.5 85 c 128,-1,21
 420 86 420 86 427 88.5 c 128,-1,22
 434 91 434 91 434 94 c 2,23,-1
 281 327 l 1,24,-1
 267 331 l 1,25,-1
 95 594 l 2,26,27
 81 615 81 615 67.5 620.5 c 128,-1,28
 54 626 54 626 35 626 c 2,29,-1
 26 626 l 1,0,-1
15 0 m 1,30,-1
 15 84 l 1,31,-1
 28 84 l 2,32,33
 44 84 44 84 57.5 92.5 c 128,-1,34
 71 101 71 101 89 127 c 2,35,-1
 269 389 l 1,36,-1
 350 347 l 1,37,-1
 181 99 l 2,38,39
 181 94 181 94 187 90.5 c 128,-1,40
 193 87 193 87 203 85.5 c 128,-1,41
 213 84 213 84 222 84 c 2,42,-1
 243 84 l 1,43,-1
 243 0 l 1,44,-1
 15 0 l 1,30,-1
457 342 m 1,45,-1
 388 399 l 1,46,-1
 529 607 l 2,47,48
 531 614 531 614 525 618 c 128,-1,49
 519 622 519 622 508.5 624 c 128,-1,50
 498 626 498 626 487 626 c 2,51,-1
 467 626 l 1,52,-1
 467 710 l 1,53,-1
 691 710 l 1,54,-1
 691 626 l 1,55,-1
 683 626 l 2,56,57
 666 626 666 626 652 618 c 128,-1,58
 638 610 638 610 624 589 c 2,59,-1
 457 342 l 1,45,-1
EndSplineSet
EndChar

StartChar: Y
Encoding: 89 89 206
Width: 688
GlyphClass: 2
Flags: W
AnchorPoint: "Anchor-1" 347 0 basechar 0
AnchorPoint: "Anchor-0" 347 741 basechar 0
LayerCount: 2
Fore
SplineSet
248 330 m 1,0,-1
 260 270 l 1,1,-1
 68 600 l 2,2,3
 62 612 62 612 53.5 617 c 128,-1,4
 45 622 45 622 35.5 624 c 128,-1,5
 26 626 26 626 16 626 c 2,6,-1
 10 626 l 1,7,-1
 10 710 l 1,8,-1
 333 710 l 1,9,-1
 333 626 l 1,10,-1
 314 626 l 2,11,12
 304 626 304 626 292 625 c 128,-1,13
 280 624 280 624 271.5 622 c 128,-1,14
 263 620 263 620 263 616 c 2,15,-1
 419 346 l 1,16,-1
 372 344 l 1,17,-1
 525 610 l 2,18,19
 525 615 525 615 518.5 619 c 128,-1,20
 512 623 512 623 502 624.5 c 128,-1,21
 492 626 492 626 479 626 c 2,22,-1
 459 626 l 1,23,-1
 459 710 l 1,24,-1
 678 710 l 1,25,-1
 678 626 l 1,26,-1
 673 626 l 2,27,28
 665 626 665 626 655.5 623 c 128,-1,29
 646 620 646 620 635.5 611 c 128,-1,30
 625 602 625 602 615 585 c 2,31,-1
 433 272 l 1,32,-1
 444 330 l 1,33,-1
 444 119 l 2,34,35
 444 97 444 97 460.5 90.5 c 128,-1,36
 477 84 477 84 502 84 c 2,37,-1
 516 84 l 1,38,-1
 516 0 l 1,39,-1
 176 0 l 1,40,-1
 176 84 l 1,41,-1
 191 84 l 2,42,43
 215 84 215 84 231.5 90.5 c 128,-1,44
 248 97 248 97 248 119 c 2,45,-1
 248 330 l 1,0,-1
EndSplineSet
EndChar

StartChar: Z
Encoding: 90 90 216
Width: 633
GlyphClass: 2
Flags: W
AnchorPoint: "Anchor-1" 335 0 basechar 0
AnchorPoint: "Anchor-0" 335 741 basechar 0
LayerCount: 2
Fore
SplineSet
231 615 m 2,0,1
 209 615 209 615 194 613.5 c 128,-1,2
 179 612 179 612 170 607 c 128,-1,3
 161 602 161 602 156.5 593.5 c 128,-1,4
 152 585 152 585 150 571 c 2,5,-1
 142 504 l 1,6,-1
 48 504 l 1,7,-1
 48 710 l 1,8,-1
 591 710 l 1,9,-1
 591 618 l 1,10,-1
 180 10 l 1,11,-1
 145 95 l 1,12,-1
 403 95 l 2,13,14
 439 95 439 95 458.5 98.5 c 128,-1,15
 478 102 478 102 486.5 111.5 c 128,-1,16
 495 121 495 121 497 139 c 2,17,-1
 509 228 l 1,18,-1
 603 228 l 1,19,-1
 603 0 l 1,20,-1
 28 0 l 1,21,-1
 28 96 l 1,22,-1
 428 689 l 1,23,-1
 458 615 l 1,24,-1
 231 615 l 2,0,1
EndSplineSet
EndChar

StartChar: Zcaron
Encoding: 381 381 219
Width: 633
GlyphClass: 1
Flags: W
LayerCount: 2
Fore
SplineSet
261 753 m 1,0,-1
 396 753 l 1,1,-1
 508 884 l 1,2,-1
 508 910 l 1,3,-1
 423 910 l 1,4,-1
 283 816 l 1,5,-1
 383 816 l 1,6,-1
 242 910 l 1,7,-1
 150 910 l 1,8,-1
 150 884 l 1,9,-1
 261 753 l 1,0,-1
231 615 m 2,10,11
 209 615 209 615 194 613.5 c 128,-1,12
 179 612 179 612 170 607 c 128,-1,13
 161 602 161 602 156.5 593.5 c 128,-1,14
 152 585 152 585 150 571 c 2,15,-1
 142 504 l 1,16,-1
 48 504 l 1,17,-1
 48 710 l 1,18,-1
 591 710 l 1,19,-1
 591 618 l 1,20,-1
 180 10 l 1,21,-1
 145 95 l 1,22,-1
 403 95 l 2,23,24
 439 95 439 95 458.5 98.5 c 128,-1,25
 478 102 478 102 486.5 111.5 c 128,-1,26
 495 121 495 121 497 139 c 2,27,-1
 509 228 l 1,28,-1
 603 228 l 1,29,-1
 603 0 l 1,30,-1
 28 0 l 1,31,-1
 28 96 l 1,32,-1
 428 689 l 1,33,-1
 458 615 l 1,34,-1
 231 615 l 2,10,11
EndSplineSet
EndChar

StartChar: AE
Encoding: 198 198 221
Width: 970
GlyphClass: 2
Flags: W
AnchorPoint: "Anchor-0" 599 741 basechar 0
LayerCount: 2
Fore
SplineSet
236 314 m 1,0,-1
 467 314 l 1,1,-1
 467 221 l 1,2,-1
 199 221 l 1,3,-1
 236 314 l 1,0,-1
607 403 m 1,4,5
 646 406 646 406 684 408.5 c 128,-1,6
 722 411 722 411 758.5 414.5 c 128,-1,7
 795 418 795 418 829 421 c 1,8,-1
 829 305 l 1,9,10
 795 309 795 309 758.5 312 c 128,-1,11
 722 315 722 315 684 318 c 128,-1,12
 646 321 646 321 607 323 c 1,13,-1
 607 403 l 1,4,5
379 0 m 1,14,-1
 379 84 l 1,15,-1
 389 84 l 2,16,17
 404 84 404 84 417 86.5 c 128,-1,18
 430 89 430 89 438.5 95 c 128,-1,19
 447 101 447 101 447 112 c 2,20,-1
 447 629 l 1,21,-1
 450 622 l 1,22,-1
 161 101 l 2,23,24
 161 97 161 97 166 92.5 c 128,-1,25
 171 88 171 88 180.5 86 c 128,-1,26
 190 84 190 84 203 84 c 2,27,-1
 217 84 l 1,28,-1
 217 0 l 1,29,-1
 7 0 l 1,30,-1
 7 84 l 1,31,-1
 12 84 l 2,32,33
 25 84 25 84 34 88 c 128,-1,34
 43 92 43 92 51 101.5 c 128,-1,35
 59 111 59 111 69 127 c 2,36,-1
 344 615 l 1,37,38
 344 626 344 626 336 632 c 128,-1,39
 328 638 328 638 313.5 640.5 c 128,-1,40
 299 643 299 643 276 643 c 2,41,-1
 260 643 l 1,42,-1
 260 710 l 1,43,-1
 907 710 l 1,44,-1
 907 511 l 1,45,-1
 812 511 l 1,46,-1
 803 572 l 2,47,48
 801 591 801 591 791 600.5 c 128,-1,49
 781 610 781 610 762.5 613 c 128,-1,50
 744 616 744 616 715 616 c 2,51,-1
 643 616 l 1,52,-1
 643 94 l 1,53,-1
 723 94 l 2,54,55
 752 94 752 94 771 96 c 128,-1,56
 790 98 790 98 801.5 103 c 128,-1,57
 813 108 813 108 818.5 116.5 c 128,-1,58
 824 125 824 125 826 139 c 2,59,-1
 837 224 l 1,60,-1
 934 224 l 1,61,-1
 934 0 l 1,62,-1
 379 0 l 1,14,-1
EndSplineSet
EndChar

StartChar: Eth
Encoding: 208 208 223
Width: 801
GlyphClass: 1
Flags: W
LayerCount: 2
Fore
SplineSet
30 403 m 1,0,-1
 430 403 l 1,1,-1
 430 308 l 1,2,-1
 30 308 l 1,3,-1
 30 403 l 1,0,-1
30 626 m 1,4,-1
 30 710 l 1,5,-1
 374 710 l 2,6,7
 461 710 461 710 532.5 686.5 c 128,-1,8
 604 663 604 663 656.5 617.5 c 128,-1,9
 709 572 709 572 737.5 506 c 128,-1,10
 766 440 766 440 766 357 c 256,11,12
 766 274 766 274 737.5 208 c 128,-1,13
 709 142 709 142 656.5 95.5 c 128,-1,14
 604 49 604 49 532.5 24.5 c 128,-1,15
 461 0 461 0 374 0 c 2,16,-1
 30 0 l 1,17,-1
 30 84 l 1,18,-1
 41 84 l 2,19,20
 64 84 64 84 80.5 91 c 128,-1,21
 97 98 97 98 97 120 c 2,22,-1
 97 590 l 2,23,24
 97 610 97 610 80.5 618 c 128,-1,25
 64 626 64 626 41 626 c 2,26,-1
 30 626 l 1,4,-1
368 615 m 2,27,-1
 293 615 l 1,28,-1
 293 95 l 1,29,-1
 368 95 l 2,30,31
 412 95 412 95 447.5 112 c 128,-1,32
 483 129 483 129 508.5 162 c 128,-1,33
 534 195 534 195 547.5 244 c 128,-1,34
 561 293 561 293 561 357 c 256,35,36
 561 421 561 421 547.5 469 c 128,-1,37
 534 517 534 517 508.5 550 c 128,-1,38
 483 583 483 583 447.5 599 c 128,-1,39
 412 615 412 615 368 615 c 2,27,-1
EndSplineSet
EndChar

StartChar: Oslash
Encoding: 216 216 224
Width: 805
GlyphClass: 2
Flags: W
AnchorPoint: "Anchor-0" 402 731 basechar 0
LayerCount: 2
Fore
SplineSet
405 622 m 0,0,1
 366 622 366 622 335.5 604.5 c 128,-1,2
 305 587 305 587 283.5 553.5 c 128,-1,3
 262 520 262 520 251 470 c 128,-1,4
 240 420 240 420 240 355 c 0,5,6
 240 284 240 284 251 233.5 c 128,-1,7
 262 183 262 183 283 151 c 128,-1,8
 304 119 304 119 333.5 103.5 c 128,-1,9
 363 88 363 88 400 88 c 0,10,11
 438 88 438 88 468.5 105 c 128,-1,12
 499 122 499 122 520.5 155.5 c 128,-1,13
 542 189 542 189 553.5 239 c 128,-1,14
 565 289 565 289 565 355 c 0,15,16
 565 425 565 425 554 475.5 c 128,-1,17
 543 526 543 526 522 558.5 c 128,-1,18
 501 591 501 591 471.5 606.5 c 128,-1,19
 442 622 442 622 405 622 c 0,0,1
402 -10 m 0,20,21
 327 -10 327 -10 260.5 16 c 128,-1,22
 194 42 194 42 143 90 c 128,-1,23
 92 138 92 138 63.5 205.5 c 128,-1,24
 35 273 35 273 35 355 c 256,25,26
 35 437 35 437 62 504.5 c 128,-1,27
 89 572 89 572 138.5 620 c 128,-1,28
 188 668 188 668 255.5 694 c 128,-1,29
 323 720 323 720 402 720 c 0,30,31
 479 720 479 720 545.5 694 c 128,-1,32
 612 668 612 668 662.5 620 c 128,-1,33
 713 572 713 572 741.5 504.5 c 128,-1,34
 770 437 770 437 770 355 c 256,35,36
 770 273 770 273 743 205.5 c 128,-1,37
 716 138 716 138 666.5 90 c 128,-1,38
 617 42 617 42 549.5 16 c 128,-1,39
 482 -10 482 -10 402 -10 c 0,20,21
-1 -14 m 1,40,-1
 681 724 l 1,41,-1
 791 724 l 1,42,-1
 109 -14 l 1,43,-1
 -1 -14 l 1,40,-1
EndSplineSet
EndChar

StartChar: Thorn
Encoding: 222 222 226
Width: 693
GlyphClass: 1
Flags: W
LayerCount: 2
Fore
SplineSet
371 710 m 1,0,-1
 30 710 l 1,1,-1
 30 626 l 1,2,-1
 40 626 l 2,3,4
 66 626 66 626 81.5 619 c 128,-1,5
 97 612 97 612 97 591 c 2,6,-1
 97 119 l 2,7,8
 97 98 97 98 81.5 91 c 128,-1,9
 66 84 66 84 40 84 c 2,10,-1
 30 84 l 1,11,-1
 30 0 l 1,12,-1
 371 0 l 1,13,-1
 371 84 l 1,14,-1
 348 84 l 2,15,16
 338 84 338 84 328.5 84.5 c 128,-1,17
 319 85 319 85 311 86.5 c 128,-1,18
 303 88 303 88 298 89.5 c 128,-1,19
 293 91 293 91 293 94 c 2,20,-1
 293 617 l 2,21,22
 293 619 293 619 298 620.5 c 128,-1,23
 303 622 303 622 311 623.5 c 128,-1,24
 319 625 319 625 328.5 625.5 c 128,-1,25
 338 626 338 626 348 626 c 2,26,-1
 371 626 l 1,27,-1
 371 710 l 1,0,-1
668 366 m 0,28,29
 668 429 668 429 638 472 c 128,-1,30
 608 515 608 515 549.5 538 c 128,-1,31
 491 561 491 561 404 561 c 2,32,-1
 218 561 l 1,33,-1
 213 474 l 1,34,-1
 358 474 l 2,35,36
 396 474 396 474 421.5 462 c 128,-1,37
 447 450 447 450 459.5 425.5 c 128,-1,38
 472 401 472 401 472 363 c 0,39,40
 472 324 472 324 459 298.5 c 128,-1,41
 446 273 446 273 420 259.5 c 128,-1,42
 394 246 394 246 354 246 c 2,43,-1
 213 246 l 1,44,-1
 213 160 l 1,45,-1
 399 160 l 2,46,47
 485 160 485 160 545 184.5 c 128,-1,48
 605 209 605 209 636.5 255.5 c 128,-1,49
 668 302 668 302 668 366 c 0,28,29
EndSplineSet
EndChar

StartChar: Hbar
Encoding: 294 294 228
Width: 818
GlyphClass: 1
Flags: W
LayerCount: 2
Fore
SplineSet
188 393 m 1,0,-1
 611 393 l 1,1,-1
 611 303 l 1,2,-1
 188 303 l 1,3,-1
 188 393 l 1,0,-1
30 0 m 1,4,-1
 30 84 l 1,5,-1
 40 84 l 2,6,7
 64 84 64 84 80.5 91 c 128,-1,8
 97 98 97 98 97 120 c 2,9,-1
 97 590 l 2,10,11
 97 612 97 612 80.5 619 c 128,-1,12
 64 626 64 626 40 626 c 2,13,-1
 30 626 l 1,14,-1
 30 710 l 1,15,-1
 362 710 l 1,16,-1
 362 626 l 1,17,-1
 353 626 l 2,18,19
 343 626 343 626 332.5 625.5 c 128,-1,20
 322 625 322 625 313 623.5 c 128,-1,21
 304 622 304 622 298.5 620.5 c 128,-1,22
 293 619 293 619 293 616 c 2,23,-1
 293 93 l 2,24,25
 293 91 293 91 298.5 89.5 c 128,-1,26
 304 88 304 88 313 86.5 c 128,-1,27
 322 85 322 85 332.5 84.5 c 128,-1,28
 343 84 343 84 353 84 c 2,29,-1
 362 84 l 1,30,-1
 362 0 l 1,31,-1
 30 0 l 1,4,-1
461 0 m 1,32,-1
 461 84 l 1,33,-1
 469 84 l 2,34,35
 480 84 480 84 490.5 84.5 c 128,-1,36
 501 85 501 85 510 86.5 c 128,-1,37
 519 88 519 88 524.5 89.5 c 128,-1,38
 530 91 530 91 530 94 c 2,39,-1
 530 617 l 2,40,41
 530 619 530 619 524.5 620.5 c 128,-1,42
 519 622 519 622 510 623.5 c 128,-1,43
 501 625 501 625 490.5 625.5 c 128,-1,44
 480 626 480 626 469 626 c 2,45,-1
 461 626 l 1,46,-1
 461 710 l 1,47,-1
 792 710 l 1,48,-1
 792 626 l 1,49,-1
 782 626 l 2,50,51
 759 626 759 626 742.5 619 c 128,-1,52
 726 612 726 612 726 590 c 2,53,-1
 726 120 l 2,54,55
 726 98 726 98 742.5 91 c 128,-1,56
 759 84 759 84 782 84 c 2,57,-1
 792 84 l 1,58,-1
 792 0 l 1,59,-1
 461 0 l 1,32,-1
30 463 m 1,60,-1
 30 551 l 1,61,-1
 792 551 l 1,62,-1
 792 463 l 1,63,-1
 30 463 l 1,60,-1
EndSplineSet
EndChar

StartChar: Ldot
Encoding: 319 319 230
Width: 649
GlyphClass: 1
Flags: W
LayerCount: 2
Fore
SplineSet
369 710 m 1,0,-1
 30 710 l 1,1,-1
 30 626 l 1,2,-1
 40 626 l 2,3,4
 64 626 64 626 80.5 619 c 128,-1,5
 97 612 97 612 97 591 c 2,6,-1
 97 119 l 2,7,8
 97 98 97 98 80.5 91 c 128,-1,9
 64 84 64 84 40 84 c 2,10,-1
 30 84 l 1,11,-1
 30 0 l 1,12,-1
 601 0 l 1,13,-1
 601 235 l 1,14,-1
 502 235 l 1,15,-1
 491 139 l 2,16,17
 489 120 489 120 479.5 111 c 128,-1,18
 470 102 470 102 449.5 98 c 128,-1,19
 429 94 429 94 391 94 c 2,20,-1
 293 94 l 1,21,-1
 293 593 l 2,22,23
 293 613 293 613 311 619.5 c 128,-1,24
 329 626 329 626 355 626 c 2,25,-1
 369 626 l 1,26,-1
 369 710 l 1,0,-1
526 325 m 256,27,28
 478 325 478 325 450.5 351 c 128,-1,29
 423 377 423 377 423 419 c 256,30,31
 423 461 423 461 450.5 487.5 c 128,-1,32
 478 514 478 514 526 514 c 256,33,34
 574 514 574 514 601.5 487.5 c 128,-1,35
 629 461 629 461 629 419 c 256,36,37
 629 377 629 377 601.5 351 c 128,-1,38
 574 325 574 325 526 325 c 256,27,28
EndSplineSet
Ligature2: "Ligature Substitution lookup 5 subtable" L periodcentered
EndChar

StartChar: Lslash
Encoding: 321 321 231
Width: 632
GlyphClass: 1
Flags: W
LayerCount: 2
Fore
SplineSet
21 174 m 1,0,-1
 469 436 l 1,1,-1
 469 539 l 1,2,-1
 21 277 l 1,3,-1
 21 174 l 1,0,-1
369 710 m 1,4,-1
 30 710 l 1,5,-1
 30 626 l 1,6,-1
 40 626 l 2,7,8
 64 626 64 626 80.5 619 c 128,-1,9
 97 612 97 612 97 591 c 2,10,-1
 97 119 l 2,11,12
 97 98 97 98 80.5 91 c 128,-1,13
 64 84 64 84 40 84 c 2,14,-1
 30 84 l 1,15,-1
 30 0 l 1,16,-1
 601 0 l 1,17,-1
 601 236 l 1,18,-1
 502 236 l 1,19,-1
 491 139 l 2,20,21
 490 120 490 120 480.5 111 c 128,-1,22
 471 102 471 102 450 98 c 128,-1,23
 429 94 429 94 391 94 c 2,24,-1
 293 94 l 1,25,-1
 293 593 l 2,26,27
 293 613 293 613 311 619.5 c 128,-1,28
 329 626 329 626 355 626 c 2,29,-1
 369 626 l 1,30,-1
 369 710 l 1,4,-1
EndSplineSet
EndChar

StartChar: Eng
Encoding: 330 330 232
Width: 761
GlyphClass: 1
Flags: W
LayerCount: 2
Fore
SplineSet
676 -17 m 2,0,1
 676 -67 676 -67 661.5 -104 c 128,-1,2
 647 -141 647 -141 620.5 -165 c 128,-1,3
 594 -189 594 -189 560.5 -200.5 c 128,-1,4
 527 -212 527 -212 488 -212 c 0,5,6
 457 -212 457 -212 426.5 -206.5 c 128,-1,7
 396 -201 396 -201 376 -193 c 1,8,-1
 376 -92 l 1,9,10
 386 -95 386 -95 401 -100.5 c 128,-1,11
 416 -106 416 -106 434.5 -110 c 128,-1,12
 453 -114 453 -114 474 -114 c 0,13,14
 504 -114 504 -114 526.5 -104 c 128,-1,15
 549 -94 549 -94 562 -70 c 128,-1,16
 575 -46 575 -46 575 -5 c 2,17,-1
 575 74 l 1,18,-1
 602 -101 l 1,19,-1
 149 672 l 1,20,-1
 193 676 l 1,21,-1
 193 100 l 2,22,23
 193 96 193 96 200 92.5 c 128,-1,24
 207 89 207 89 219 86.5 c 128,-1,25
 231 84 231 84 248 84 c 2,26,-1
 261 84 l 1,27,-1
 261 0 l 1,28,-1
 30 0 l 1,29,-1
 30 84 l 1,30,-1
 41 84 l 2,31,32
 58 84 58 84 69.5 88 c 128,-1,33
 81 92 81 92 86.5 102 c 128,-1,34
 92 112 92 112 92 126 c 2,35,-1
 92 591 l 2,36,37
 92 605 92 605 86.5 612.5 c 128,-1,38
 81 620 81 620 69.5 623 c 128,-1,39
 58 626 58 626 41 626 c 2,40,-1
 30 626 l 1,41,-1
 30 710 l 1,42,-1
 341 710 l 1,43,-1
 623 232 l 1,44,-1
 575 146 l 1,45,-1
 575 610 l 2,46,47
 575 615 575 615 568 618 c 128,-1,48
 561 621 561 621 549 623.5 c 128,-1,49
 537 626 537 626 521 626 c 2,50,-1
 507 626 l 1,51,-1
 507 710 l 1,52,-1
 734 710 l 1,53,-1
 734 626 l 1,54,-1
 723 626 l 2,55,56
 707 626 707 626 696 622.5 c 128,-1,57
 685 619 685 619 680.5 610.5 c 128,-1,58
 676 602 676 602 676 587 c 2,59,-1
 676 -17 l 2,0,1
EndSplineSet
Substitution2: "'ss07' Style Set 7 lookup 67 subtable" Eng.afr
EndChar

StartChar: OE
Encoding: 338 338 233
Width: 1025
GlyphClass: 1
Flags: W
LayerCount: 2
Fore
SplineSet
660 403 m 1,0,1
 700 406 700 406 737.5 408.5 c 128,-1,2
 775 411 775 411 811 414.5 c 128,-1,3
 847 418 847 418 883 421 c 1,4,-1
 883 305 l 1,5,6
 847 309 847 309 811 312 c 128,-1,7
 775 315 775 315 737.5 318 c 128,-1,8
 700 321 700 321 660 323 c 1,9,-1
 660 403 l 1,0,1
438 94 m 2,10,-1
 501 94 l 1,11,-1
 501 616 l 1,12,-1
 438 616 l 2,13,14
 393 616 393 616 356 600 c 128,-1,15
 319 584 319 584 293.5 551 c 128,-1,16
 268 518 268 518 254 468.5 c 128,-1,17
 240 419 240 419 240 353 c 0,18,19
 240 286 240 286 254 237.5 c 128,-1,20
 268 189 268 189 293.5 157 c 128,-1,21
 319 125 319 125 356 109.5 c 128,-1,22
 393 94 393 94 438 94 c 2,10,-1
430 0 m 2,23,24
 342 0 342 0 270 23.5 c 128,-1,25
 198 47 198 47 145 92.5 c 128,-1,26
 92 138 92 138 63.5 204 c 128,-1,27
 35 270 35 270 35 353 c 256,28,29
 35 436 35 436 63.5 502 c 128,-1,30
 92 568 92 568 145 614.5 c 128,-1,31
 198 661 198 661 270 685.5 c 128,-1,32
 342 710 342 710 430 710 c 2,33,-1
 963 710 l 1,34,-1
 963 511 l 1,35,-1
 868 511 l 1,36,-1
 859 572 l 2,37,38
 858 590 858 590 849 599.5 c 128,-1,39
 840 609 840 609 822.5 612.5 c 128,-1,40
 805 616 805 616 775 616 c 2,41,-1
 696 616 l 1,42,-1
 696 94 l 1,43,-1
 784 94 l 2,44,45
 812 94 812 94 830.5 96 c 128,-1,46
 849 98 849 98 859.5 103 c 128,-1,47
 870 108 870 108 875.5 116.5 c 128,-1,48
 881 125 881 125 882 139 c 2,49,-1
 893 224 l 1,50,-1
 989 224 l 1,51,-1
 989 0 l 1,52,-1
 430 0 l 2,23,24
EndSplineSet
EndChar

StartChar: Tbar
Encoding: 358 358 234
Width: 712
GlyphClass: 1
Flags: W
LayerCount: 2
Fore
SplineSet
115 375 m 1,0,-1
 597 375 l 1,1,-1
 597 280 l 1,2,-1
 115 280 l 1,3,-1
 115 375 l 1,0,-1
258 119 m 2,4,-1
 258 616 l 1,5,-1
 211 616 l 2,6,7
 183 616 183 616 166.5 612.5 c 128,-1,8
 150 609 150 609 142.5 599.5 c 128,-1,9
 135 590 135 590 132 570 c 2,10,-1
 122 484 l 1,11,-1
 29 484 l 1,12,-1
 29 710 l 1,13,-1
 683 710 l 1,14,-1
 683 484 l 1,15,-1
 589 484 l 1,16,-1
 580 570 l 2,17,18
 578 590 578 590 570 599.5 c 128,-1,19
 562 609 562 609 545.5 612.5 c 128,-1,20
 529 616 529 616 500 616 c 2,21,-1
 454 616 l 1,22,-1
 454 119 l 2,23,24
 454 98 454 98 470.5 91 c 128,-1,25
 487 84 487 84 511 84 c 2,26,-1
 526 84 l 1,27,-1
 526 0 l 1,28,-1
 186 0 l 1,29,-1
 186 84 l 1,30,-1
 201 84 l 2,31,32
 225 84 225 84 241.5 91 c 128,-1,33
 258 98 258 98 258 119 c 2,4,-1
EndSplineSet
EndChar

StartChar: Bhook
Encoding: 385 385 235
Width: 827
GlyphClass: 2
Flags: W
AnchorPoint: "Anchor-1" 447 0 basechar 0
AnchorPoint: "Anchor-0" 414 741 basechar 0
LayerCount: 2
Fore
SplineSet
371 416 m 1,0,-1
 457 416 l 2,1,2
 497 416 497 416 521.5 428 c 128,-1,3
 546 440 546 440 556.5 463.5 c 128,-1,4
 567 487 567 487 567 520 c 256,5,6
 567 553 567 553 555.5 574.5 c 128,-1,7
 544 596 544 596 520.5 607 c 128,-1,8
 497 618 497 618 462 618 c 2,9,-1
 403 618 l 1,10,-1
 403 92 l 1,11,-1
 469 92 l 2,12,13
 510 92 510 92 537.5 105 c 128,-1,14
 565 118 565 118 579 144.5 c 128,-1,15
 593 171 593 171 593 212 c 0,16,17
 593 247 593 247 580 272.5 c 128,-1,18
 567 298 567 298 538.5 312 c 128,-1,19
 510 326 510 326 463 326 c 2,20,-1
 371 326 l 1,21,-1
 371 416 l 1,0,-1
206 710 m 2,22,-1
 503 710 l 2,23,24
 566 710 566 710 614.5 698 c 128,-1,25
 663 686 663 686 696 663.5 c 128,-1,26
 729 641 729 641 746 609 c 128,-1,27
 763 577 763 577 763 538 c 0,28,29
 763 484 763 484 734 447 c 128,-1,30
 705 410 705 410 653 390.5 c 128,-1,31
 601 371 601 371 532 369 c 1,32,-1
 574 389 l 1,33,-1
 574 361 l 1,34,-1
 540 382 l 1,35,36
 616 380 616 380 672.5 359 c 128,-1,37
 729 338 729 338 761 298 c 128,-1,38
 793 258 793 258 793 200 c 0,39,40
 793 154 793 154 774.5 117 c 128,-1,41
 756 80 756 80 720 53.5 c 128,-1,42
 684 27 684 27 632 13.5 c 128,-1,43
 580 0 580 0 513 0 c 2,44,-1
 140 0 l 1,45,-1
 140 84 l 1,46,-1
 150 84 l 2,47,48
 173 84 173 84 189.5 91 c 128,-1,49
 206 98 206 98 206 119 c 2,50,-1
 206 618 l 1,51,-1
 201 618 l 2,52,53
 175 618 175 618 156.5 609.5 c 128,-1,54
 138 601 138 601 129 582.5 c 128,-1,55
 120 564 120 564 120 532 c 0,56,57
 120 512 120 512 125.5 491.5 c 128,-1,58
 131 471 131 471 138 455 c 1,59,-1
 7 455 l 1,60,61
 2 470 2 470 -1.5 492 c 128,-1,62
 -5 514 -5 514 -5 532 c 0,63,64
 -5 585 -5 585 16.5 625 c 128,-1,65
 38 665 38 665 84.5 687.5 c 128,-1,66
 131 710 131 710 206 710 c 2,22,-1
EndSplineSet
EndChar

StartChar: Dhook
Encoding: 394 394 236
Width: 911
GlyphClass: 2
Flags: W
AnchorPoint: "Anchor-1" 456 0 basechar 0
AnchorPoint: "Anchor-0" 429 741 basechar 0
LayerCount: 2
Fore
SplineSet
207 710 m 2,0,-1
 484 710 l 2,1,2
 571 710 571 710 642.5 686.5 c 128,-1,3
 714 663 714 663 766.5 617.5 c 128,-1,4
 819 572 819 572 847.5 506 c 128,-1,5
 876 440 876 440 876 357 c 256,6,7
 876 274 876 274 847.5 208 c 128,-1,8
 819 142 819 142 766.5 95.5 c 128,-1,9
 714 49 714 49 642.5 24.5 c 128,-1,10
 571 0 571 0 484 0 c 2,11,-1
 140 0 l 1,12,-1
 140 84 l 1,13,-1
 151 84 l 2,14,15
 174 84 174 84 190.5 91 c 128,-1,16
 207 98 207 98 207 120 c 2,17,-1
 207 617 l 1,18,-1
 202 617 l 2,19,20
 176 617 176 617 157.5 609 c 128,-1,21
 139 601 139 601 129.5 583 c 128,-1,22
 120 565 120 565 120 534 c 0,23,24
 120 512 120 512 125.5 492 c 128,-1,25
 131 472 131 472 138 455 c 1,26,-1
 7 455 l 1,27,28
 2 469 2 469 -1.5 491.5 c 128,-1,29
 -5 514 -5 514 -5 532 c 0,30,31
 -5 585 -5 585 16.5 625 c 128,-1,32
 38 665 38 665 84.5 687.5 c 128,-1,33
 131 710 131 710 207 710 c 2,0,-1
478 615 m 2,34,-1
 403 615 l 1,35,-1
 403 95 l 1,36,-1
 478 95 l 2,37,38
 521 95 521 95 556.5 112 c 128,-1,39
 592 129 592 129 617.5 162 c 128,-1,40
 643 195 643 195 657 244 c 128,-1,41
 671 293 671 293 671 357 c 256,42,43
 671 421 671 421 657 469 c 128,-1,44
 643 517 643 517 617.5 550 c 128,-1,45
 592 583 592 583 556.5 599 c 128,-1,46
 521 615 521 615 478 615 c 2,34,-1
EndSplineSet
EndChar

StartChar: Schwa
Encoding: 399 399 237
Width: 752
GlyphClass: 1
Flags: W
LayerCount: 2
Fore
SplineSet
362 720 m 0,0,1
 471 720 471 720 550.5 675.5 c 128,-1,2
 630 631 630 631 673.5 550 c 128,-1,3
 717 469 717 469 717 357 c 0,4,5
 717 276 717 276 691 208.5 c 128,-1,6
 665 141 665 141 619 92 c 128,-1,7
 573 43 573 43 511.5 16.5 c 128,-1,8
 450 -10 450 -10 377 -10 c 0,9,10
 269 -10 269 -10 194.5 35 c 128,-1,11
 120 80 120 80 81.5 171.5 c 128,-1,12
 43 263 43 263 42 403 c 1,13,-1
 624 403 l 1,14,-1
 626 308 l 1,15,-1
 217 308 l 1,16,-1
 250 340 l 1,17,18
 251 269 251 269 259.5 220.5 c 128,-1,19
 268 172 268 172 283.5 143 c 128,-1,20
 299 114 299 114 322.5 101 c 128,-1,21
 346 88 346 88 377 88 c 0,22,23
 407 88 407 88 432 104.5 c 128,-1,24
 457 121 457 121 475 154 c 128,-1,25
 493 187 493 187 503 237.5 c 128,-1,26
 513 288 513 288 513 357 c 0,27,28
 513 422 513 422 502 471.5 c 128,-1,29
 491 521 491 521 469 554.5 c 128,-1,30
 447 588 447 588 413.5 604.5 c 128,-1,31
 380 621 380 621 334 621 c 0,32,33
 284 621 284 621 246.5 604 c 128,-1,34
 209 587 209 587 181 557 c 128,-1,35
 153 527 153 527 132 491 c 1,36,-1
 55 543 l 1,37,38
 82 592 82 592 124 632 c 128,-1,39
 166 672 166 672 225 696 c 128,-1,40
 284 720 284 720 362 720 c 0,0,1
EndSplineSet
EndChar

StartChar: Khook
Encoding: 408 408 238
Width: 822
GlyphClass: 2
Flags: W
AnchorPoint: "Anchor-1" 419 0 basechar 0
AnchorPoint: "Anchor-0" 469 741 basechar 0
LayerCount: 2
Fore
SplineSet
30 0 m 1,0,-1
 30 84 l 1,1,-1
 40 84 l 2,2,3
 64 84 64 84 80.5 91 c 128,-1,4
 97 98 97 98 97 119 c 2,5,-1
 97 591 l 2,6,7
 97 612 97 612 80.5 619 c 128,-1,8
 64 626 64 626 40 626 c 2,9,-1
 30 626 l 1,10,-1
 30 710 l 1,11,-1
 373 710 l 1,12,-1
 373 626 l 1,13,-1
 363 626 l 2,14,15
 351 626 351 626 338 625.5 c 128,-1,16
 325 625 325 625 315 623.5 c 128,-1,17
 305 622 305 622 299 620.5 c 128,-1,18
 293 619 293 619 293 616 c 2,19,-1
 293 94 l 2,20,21
 293 91 293 91 298 89.5 c 128,-1,22
 303 88 303 88 311 86.5 c 128,-1,23
 319 85 319 85 329 84.5 c 128,-1,24
 339 84 339 84 349 84 c 2,25,-1
 357 84 l 1,26,-1
 357 0 l 1,27,-1
 30 0 l 1,0,-1
699 719 m 0,28,29
 743 719 743 719 769.5 700.5 c 128,-1,30
 796 682 796 682 808.5 651 c 128,-1,31
 821 620 821 620 821 581 c 0,32,33
 821 546 821 546 814 512.5 c 128,-1,34
 807 479 807 479 799 460 c 1,35,-1
 669 460 l 1,36,37
 676 473 676 473 682.5 491.5 c 128,-1,38
 689 510 689 510 693 531.5 c 128,-1,39
 697 553 697 553 697 574 c 256,40,41
 697 595 697 595 691.5 605 c 128,-1,42
 686 615 686 615 674 615 c 0,43,44
 665 615 665 615 656.5 610.5 c 128,-1,45
 648 606 648 606 636.5 593.5 c 128,-1,46
 625 581 625 581 606 559 c 2,47,-1
 448 368 l 1,48,-1
 465 453 l 1,49,-1
 699 115 l 2,50,51
 708 103 708 103 716.5 96.5 c 128,-1,52
 725 90 725 90 735.5 87 c 128,-1,53
 746 84 746 84 758 84 c 2,54,-1
 770 84 l 1,55,-1
 770 0 l 1,56,-1
 431 0 l 1,57,-1
 431 84 l 1,58,-1
 444 84 l 2,59,60
 454 84 454 84 465 85 c 128,-1,61
 476 86 476 86 483.5 88.5 c 128,-1,62
 491 91 491 91 491 94 c 2,63,-1
 320 338 l 1,64,-1
 320 363 l 1,65,-1
 533 617 l 2,66,67
 555 643 555 643 574 662.5 c 128,-1,68
 593 682 593 682 612 694.5 c 128,-1,69
 631 707 631 707 652 713 c 128,-1,70
 673 719 673 719 699 719 c 0,28,29
EndSplineSet
EndChar

StartChar: Yhook
Encoding: 435 435 239
Width: 795
GlyphClass: 2
Flags: W
AnchorPoint: "Anchor-1" 374 0 basechar 0
AnchorPoint: "Anchor-0" 406 741 basechar 0
LayerCount: 2
Fore
SplineSet
512 594 m 2,0,1
 536 637 536 637 559 664.5 c 128,-1,2
 582 692 582 692 610 705.5 c 128,-1,3
 638 719 638 719 675 719 c 0,4,5
 720 719 720 719 747 701 c 128,-1,6
 774 683 774 683 786.5 651.5 c 128,-1,7
 799 620 799 620 799 581 c 0,8,9
 799 548 799 548 792.5 513.5 c 128,-1,10
 786 479 786 479 778 460 c 1,11,-1
 649 460 l 1,12,13
 656 473 656 473 662 492.5 c 128,-1,14
 668 512 668 512 672 533.5 c 128,-1,15
 676 555 676 555 676 575 c 0,16,17
 676 598 676 598 670.5 608.5 c 128,-1,18
 665 619 665 619 652 619 c 0,19,20
 643 619 643 619 634.5 613 c 128,-1,21
 626 607 626 607 616.5 593 c 128,-1,22
 607 579 607 579 592 554 c 2,23,-1
 433 272 l 1,24,-1
 444 330 l 1,25,-1
 444 119 l 2,26,27
 444 97 444 97 460.5 90.5 c 128,-1,28
 477 84 477 84 501 84 c 2,29,-1
 516 84 l 1,30,-1
 516 0 l 1,31,-1
 176 0 l 1,32,-1
 176 84 l 1,33,-1
 191 84 l 2,34,35
 215 84 215 84 231.5 90.5 c 128,-1,36
 248 97 248 97 248 119 c 2,37,-1
 248 330 l 1,38,-1
 260 270 l 1,39,-1
 68 600 l 2,40,41
 62 612 62 612 53.5 617 c 128,-1,42
 45 622 45 622 35.5 624 c 128,-1,43
 26 626 26 626 16 626 c 2,44,-1
 10 626 l 1,45,-1
 10 710 l 1,46,-1
 333 710 l 1,47,-1
 333 626 l 1,48,-1
 314 626 l 2,49,50
 304 626 304 626 292 625 c 128,-1,51
 280 624 280 624 271.5 622 c 128,-1,52
 263 620 263 620 263 616 c 2,53,-1
 419 346 l 1,54,-1
 372 344 l 1,55,-1
 512 594 l 2,0,1
EndSplineSet
EndChar

StartChar: Germandbls
Encoding: 7838 7838 240
Width: 876
GlyphClass: 1
Flags: W
LayerCount: 2
Fore
SplineSet
590 85 m 0,0,1
 618 85 618 85 636 95 c 128,-1,2
 654 105 654 105 662.5 124.5 c 128,-1,3
 671 144 671 144 671 172 c 0,4,5
 671 206 671 206 655 234.5 c 128,-1,6
 639 263 639 263 611.5 284.5 c 128,-1,7
 584 306 584 306 548 321 c 128,-1,8
 512 336 512 336 472 343 c 1,9,-1
 472 433 l 1,10,-1
 629 676 l 1,11,-1
 724 618 l 1,12,-1
 426 618 l 2,13,14
 387 618 387 618 361.5 610 c 128,-1,15
 336 602 336 602 321 585 c 128,-1,16
 306 568 306 568 300 540.5 c 128,-1,17
 294 513 294 513 294 473 c 2,18,-1
 294 0 l 1,19,-1
 31 0 l 1,20,-1
 31 84 l 1,21,-1
 41 84 l 2,22,23
 66 84 66 84 82 91 c 128,-1,24
 98 98 98 98 98 120 c 2,25,-1
 98 468 l 2,26,27
 98 533 98 533 115 578.5 c 128,-1,28
 132 624 132 624 167.5 653 c 128,-1,29
 203 682 203 682 257.5 696 c 128,-1,30
 312 710 312 710 387 710 c 2,31,-1
 771 710 l 1,32,-1
 771 626 l 1,33,-1
 601 360 l 1,34,-1
 550 426 l 1,35,36
 609 420 609 420 663 402 c 128,-1,37
 717 384 717 384 758.5 354.5 c 128,-1,38
 800 325 800 325 824 283.5 c 128,-1,39
 848 242 848 242 848 188 c 0,40,41
 848 127 848 127 820 82.5 c 128,-1,42
 792 38 792 38 743.5 14 c 128,-1,43
 695 -10 695 -10 633 -10 c 0,44,45
 572 -10 572 -10 528.5 9 c 128,-1,46
 485 28 485 28 458 68 c 128,-1,47
 431 108 431 108 418 168 c 1,48,-1
 469 157 l 1,49,-1
 449 0 l 1,50,-1
 374 0 l 1,51,-1
 374 218 l 1,52,-1
 462 218 l 1,53,54
 469 188 469 188 480 163.5 c 128,-1,55
 491 139 491 139 506 121.5 c 128,-1,56
 521 104 521 104 542 94.5 c 128,-1,57
 563 85 563 85 590 85 c 0,0,1
EndSplineSet
EndChar

StartChar: Delta
Encoding: 916 916 241
Width: 765
GlyphClass: 1
Flags: W
LayerCount: 2
Fore
SplineSet
32 0 m 1,0,-1
 32 113 l 1,1,-1
 307 710 l 1,2,-1
 459 710 l 1,3,-1
 733 113 l 1,4,-1
 733 0 l 1,5,-1
 32 0 l 1,0,-1
559 65 m 1,6,-1
 298 656 l 1,7,-1
 390 683 l 1,8,-1
 117 82 l 1,9,-1
 75 132 l 1,10,-1
 648 132 l 1,11,-1
 559 65 l 1,6,-1
EndSplineSet
EndChar

StartChar: Omega
Encoding: 937 937 242
Width: 838
GlyphClass: 1
Flags: W
LayerCount: 2
Fore
SplineSet
419 720 m 256,0,1
 339 720 339 720 275.5 699.5 c 128,-1,2
 212 679 212 679 167.5 642.5 c 128,-1,3
 123 606 123 606 99 557 c 128,-1,4
 75 508 75 508 75 451 c 0,5,6
 75 403 75 403 92 360 c 128,-1,7
 109 317 109 317 138 278 c 128,-1,8
 167 239 167 239 202.5 204.5 c 128,-1,9
 238 170 238 170 275 140 c 128,-1,10
 312 110 312 110 345 84 c 1,11,-1
 330 119 l 1,12,-1
 225 119 l 2,13,14
 193 119 193 119 172.5 122.5 c 128,-1,15
 152 126 152 126 141 134.5 c 128,-1,16
 130 143 130 143 127 161 c 2,17,-1
 117 219 l 1,18,-1
 35 219 l 1,19,-1
 35 0 l 1,20,-1
 381 0 l 1,21,-1
 381 160 l 1,22,23
 355 194 355 194 333.5 226 c 128,-1,24
 312 258 312 258 296 291.5 c 128,-1,25
 280 325 280 325 271.5 363.5 c 128,-1,26
 263 402 263 402 263 448 c 0,27,28
 263 500 263 500 280 539.5 c 128,-1,29
 297 579 297 579 332 601 c 128,-1,30
 367 623 367 623 419 623 c 0,31,32
 472 623 472 623 506.5 601 c 128,-1,33
 541 579 541 579 558.5 539.5 c 128,-1,34
 576 500 576 500 576 448 c 0,35,36
 576 402 576 402 567 363.5 c 128,-1,37
 558 325 558 325 542 291.5 c 128,-1,38
 526 258 526 258 504.5 226 c 128,-1,39
 483 194 483 194 458 160 c 1,40,-1
 458 0 l 1,41,-1
 804 0 l 1,42,-1
 804 219 l 1,43,-1
 721 219 l 1,44,-1
 712 161 l 2,45,46
 709 143 709 143 698 134.5 c 128,-1,47
 687 126 687 126 666.5 122.5 c 128,-1,48
 646 119 646 119 613 119 c 2,49,-1
 509 119 l 1,50,-1
 494 84 l 1,51,52
 527 110 527 110 564 140 c 128,-1,53
 601 170 601 170 636.5 204.5 c 128,-1,54
 672 239 672 239 700.5 278 c 128,-1,55
 729 317 729 317 746 360 c 128,-1,56
 763 403 763 403 763 451 c 0,57,58
 763 508 763 508 739.5 557 c 128,-1,59
 716 606 716 606 671 642.5 c 128,-1,60
 626 679 626 679 562.5 699.5 c 128,-1,61
 499 720 499 720 419 720 c 256,0,1
EndSplineSet
EndChar

StartChar: Djecyr
Encoding: 1026 1026 244
Width: 887
GlyphClass: 2
Flags: W
AnchorPoint: "Anchor-0" 346 741 basechar 0
LayerCount: 2
Fore
SplineSet
867 200 m 0,0,1
 867 143 867 143 847.5 101.5 c 128,-1,2
 828 60 828 60 791 33 c 128,-1,3
 754 6 754 6 700 -7 c 128,-1,4
 646 -20 646 -20 579 -20 c 1,5,-1
 579 74 l 1,6,7
 609 74 609 74 631.5 86.5 c 128,-1,8
 654 99 654 99 666.5 126.5 c 128,-1,9
 679 154 679 154 679 199 c 0,10,11
 679 260 679 260 646 293 c 128,-1,12
 613 326 613 326 553 326 c 0,13,14
 513 326 513 326 480 319 c 128,-1,15
 447 312 447 312 414 294 c 1,16,-1
 414 383 l 1,17,18
 449 400 449 400 499.5 410.5 c 128,-1,19
 550 421 550 421 610 421 c 0,20,21
 691 421 691 421 748.5 395.5 c 128,-1,22
 806 370 806 370 836.5 321 c 128,-1,23
 867 272 867 272 867 200 c 0,0,1
175 0 m 1,24,-1
 175 84 l 1,25,-1
 189 84 l 2,26,27
 214 84 214 84 230.5 91 c 128,-1,28
 247 98 247 98 247 119 c 2,29,-1
 247 616 l 1,30,-1
 211 616 l 2,31,32
 183 616 183 616 166.5 612.5 c 128,-1,33
 150 609 150 609 142.5 599.5 c 128,-1,34
 135 590 135 590 132 570 c 2,35,-1
 122 484 l 1,36,-1
 29 484 l 1,37,-1
 29 710 l 1,38,-1
 692 710 l 1,39,-1
 692 492 l 1,40,-1
 599 492 l 1,41,-1
 589 570 l 2,42,43
 587 590 587 590 579.5 599.5 c 128,-1,44
 572 609 572 609 555 612.5 c 128,-1,45
 538 616 538 616 510 616 c 2,46,-1
 443 616 l 1,47,-1
 443 93 l 2,48,49
 443 91 443 91 451.5 88.5 c 128,-1,50
 460 86 460 86 471.5 85 c 128,-1,51
 483 84 483 84 494 84 c 2,52,-1
 502 84 l 1,53,-1
 502 0 l 1,54,-1
 175 0 l 1,24,-1
EndSplineSet
EndChar

StartChar: Eukrcyr
Encoding: 1028 1028 245
Width: 700
GlyphClass: 2
Flags: W
AnchorPoint: "Anchor-1" 364 0 basechar 0
AnchorPoint: "Anchor-0" 364 741 basechar 0
LayerCount: 2
Fore
SplineSet
209 403 m 1,0,1
 234 404 234 404 257.5 405.5 c 128,-1,2
 281 407 281 407 304 408.5 c 128,-1,3
 327 410 327 410 349.5 411 c 128,-1,4
 372 412 372 412 394 413.5 c 128,-1,5
 416 415 416 415 438 417 c 128,-1,6
 460 419 460 419 481 421 c 1,7,-1
 481 305 l 1,8,9
 460 308 460 308 438 309.5 c 128,-1,10
 416 311 416 311 394 312.5 c 128,-1,11
 372 314 372 314 349.5 315.5 c 128,-1,12
 327 317 327 317 304 318 c 128,-1,13
 281 319 281 319 257.5 320.5 c 128,-1,14
 234 322 234 322 209 323 c 1,15,-1
 209 403 l 1,0,1
407 621 m 0,16,17
 367 621 367 621 335.5 602.5 c 128,-1,18
 304 584 304 584 282.5 549.5 c 128,-1,19
 261 515 261 515 250 466 c 128,-1,20
 239 417 239 417 239 355 c 0,21,22
 239 290 239 290 250.5 240.5 c 128,-1,23
 262 191 262 191 284 157 c 128,-1,24
 306 123 306 123 339 106 c 128,-1,25
 372 89 372 89 414 89 c 0,26,27
 459 89 459 89 494 110.5 c 128,-1,28
 529 132 529 132 553.5 172 c 128,-1,29
 578 212 578 212 589 266 c 1,30,-1
 672 235 l 1,31,32
 657 163 657 163 620.5 107.5 c 128,-1,33
 584 52 584 52 526.5 21 c 128,-1,34
 469 -10 469 -10 388 -10 c 0,35,36
 311 -10 311 -10 247 16 c 128,-1,37
 183 42 183 42 135 90.5 c 128,-1,38
 87 139 87 139 61 206 c 128,-1,39
 35 273 35 273 35 355 c 256,40,41
 35 437 35 437 62 504 c 128,-1,42
 89 571 89 571 136.5 619.5 c 128,-1,43
 184 668 184 668 246.5 694 c 128,-1,44
 309 720 309 720 379 720 c 0,45,46
 450 720 450 720 496.5 696 c 128,-1,47
 543 672 543 672 571 631 c 128,-1,48
 599 590 599 590 614 536 c 1,49,-1
 556 548 l 1,50,-1
 575 710 l 1,51,-1
 661 710 l 1,52,-1
 661 488 l 1,53,-1
 564 488 l 1,54,55
 552 526 552 526 531.5 556 c 128,-1,56
 511 586 511 586 480.5 603.5 c 128,-1,57
 450 621 450 621 407 621 c 0,16,17
EndSplineSet
Substitution2: "'ss01' Style Set 1 lookup 61 subtable" Ieukran.alt1
EndChar

StartChar: Yukrcyr
Encoding: 1031 1031 248
Width: 392
GlyphClass: 2
Flags: W
AnchorPoint: "Anchor-1" 196 0 basechar 0
AnchorPoint: "Anchor-0" 196 921 basechar 0
LayerCount: 2
Fore
SplineSet
179 851 m 256,0,1
 179 814 179 814 157.5 791.5 c 128,-1,2
 136 769 136 769 99 769 c 0,3,4
 63 769 63 769 41 791.5 c 128,-1,5
 19 814 19 814 19 851 c 256,6,7
 19 888 19 888 41 910 c 128,-1,8
 63 932 63 932 99 932 c 0,9,10
 136 932 136 932 157.5 910 c 128,-1,11
 179 888 179 888 179 851 c 256,0,1
373 851 m 256,12,13
 373 814 373 814 351 791.5 c 128,-1,14
 329 769 329 769 293 769 c 0,15,16
 256 769 256 769 234.5 791.5 c 128,-1,17
 213 814 213 814 213 851 c 256,18,19
 213 888 213 888 234.5 910 c 128,-1,20
 256 932 256 932 293 932 c 0,21,22
 329 932 329 932 351 910 c 128,-1,23
 373 888 373 888 373 851 c 256,12,13
98 120 m 2,24,-1
 98 590 l 2,25,26
 98 612 98 612 81.5 619 c 128,-1,27
 65 626 65 626 40 626 c 2,28,-1
 30 626 l 1,29,-1
 30 710 l 1,30,-1
 362 710 l 1,31,-1
 362 626 l 1,32,-1
 352 626 l 2,33,34
 328 626 328 626 311 619 c 128,-1,35
 294 612 294 612 294 590 c 2,36,-1
 294 120 l 2,37,38
 294 98 294 98 311 91 c 128,-1,39
 328 84 328 84 352 84 c 2,40,-1
 362 84 l 1,41,-1
 362 0 l 1,42,-1
 30 0 l 1,43,-1
 30 84 l 1,44,-1
 40 84 l 2,45,46
 65 84 65 84 81.5 91 c 128,-1,47
 98 98 98 98 98 120 c 2,24,-1
EndSplineSet
EndChar

StartChar: Ljecyr
Encoding: 1033 1033 250
Width: 1038
GlyphClass: 2
Flags: W
AnchorPoint: "Anchor-0" 415 741 basechar 0
LayerCount: 2
Fore
SplineSet
234 710 m 1,0,-1
 540 710 l 1,1,-1
 540 616 l 1,2,-1
 234 616 l 1,3,-1
 234 710 l 1,0,-1
161 326 m 2,4,-1
 175 588 l 2,5,6
 176 611 176 611 161 618.5 c 128,-1,7
 146 626 146 626 124 626 c 2,8,-1
 107 626 l 1,9,-1
 107 710 l 1,10,-1
 285 710 l 1,11,-1
 266 320 l 2,12,13
 261 207 261 207 241 133 c 128,-1,14
 221 59 221 59 181 23.5 c 128,-1,15
 141 -12 141 -12 77 -12 c 0,16,17
 52 -12 52 -12 35.5 -7 c 128,-1,18
 19 -2 19 -2 9 3 c 1,19,-1
 9 172 l 1,20,21
 15 169 15 169 30.5 163 c 128,-1,22
 46 157 46 157 67 157 c 0,23,24
 97 157 97 157 116.5 175.5 c 128,-1,25
 136 194 136 194 147 231.5 c 128,-1,26
 158 269 158 269 161 326 c 2,4,-1
738 0 m 2,27,-1
 381 0 l 1,28,-1
 381 84 l 1,29,-1
 390 84 l 2,30,31
 404 84 404 84 417.5 85.5 c 128,-1,32
 431 87 431 87 439.5 90.5 c 128,-1,33
 448 94 448 94 448 100 c 2,34,-1
 448 710 l 1,35,-1
 715 710 l 1,36,-1
 715 626 l 1,37,-1
 699 626 l 2,38,39
 678 626 678 626 661.5 620 c 128,-1,40
 645 614 645 614 645 596 c 2,41,-1
 645 95 l 1,42,-1
 700 95 l 2,43,44
 741 95 741 95 768.5 109.5 c 128,-1,45
 796 124 796 124 810 153.5 c 128,-1,46
 824 183 824 183 824 225 c 0,47,48
 824 268 824 268 810 296 c 128,-1,49
 796 324 796 324 769 337.5 c 128,-1,50
 742 351 742 351 703 351 c 2,51,-1
 611 351 l 1,52,-1
 611 446 l 1,53,-1
 743 446 l 2,54,55
 831 446 831 446 892.5 420.5 c 128,-1,56
 954 395 954 395 986.5 346.5 c 128,-1,57
 1019 298 1019 298 1019 228 c 256,58,59
 1019 158 1019 158 985 107 c 128,-1,60
 951 56 951 56 888 28 c 128,-1,61
 825 0 825 0 738 0 c 2,27,-1
EndSplineSet
EndChar

StartChar: Njecyr
Encoding: 1034 1034 251
Width: 1095
GlyphClass: 2
Flags: W
AnchorPoint: "Anchor-0" 405 741 basechar 0
LayerCount: 2
Fore
SplineSet
188 437 m 1,0,-1
 594 437 l 1,1,-1
 594 343 l 1,2,-1
 188 343 l 1,3,-1
 188 437 l 1,0,-1
30 0 m 1,4,-1
 30 84 l 1,5,-1
 40 84 l 2,6,7
 64 84 64 84 80.5 91 c 128,-1,8
 97 98 97 98 97 120 c 2,9,-1
 97 590 l 2,10,11
 97 612 97 612 80.5 619 c 128,-1,12
 64 626 64 626 40 626 c 2,13,-1
 30 626 l 1,14,-1
 30 710 l 1,15,-1
 362 710 l 1,16,-1
 362 626 l 1,17,-1
 353 626 l 2,18,19
 340 626 340 626 326 625 c 128,-1,20
 312 624 312 624 302.5 622 c 128,-1,21
 293 620 293 620 293 616 c 2,22,-1
 293 93 l 2,23,24
 293 91 293 91 302.5 88.5 c 128,-1,25
 312 86 312 86 326 85 c 128,-1,26
 340 84 340 84 353 84 c 2,27,-1
 362 84 l 1,28,-1
 362 0 l 1,29,-1
 30 0 l 1,4,-1
438 0 m 1,30,-1
 438 84 l 1,31,-1
 446 84 l 2,32,33
 459 84 459 84 472.5 85 c 128,-1,34
 486 86 486 86 495.5 88.5 c 128,-1,35
 505 91 505 91 505 94 c 2,36,-1
 505 617 l 2,37,38
 505 620 505 620 495.5 622 c 128,-1,39
 486 624 486 624 472.5 625 c 128,-1,40
 459 626 459 626 446 626 c 2,41,-1
 438 626 l 1,42,-1
 438 710 l 1,43,-1
 770 710 l 1,44,-1
 770 626 l 1,45,-1
 759 626 l 2,46,47
 744 626 744 626 730.5 623 c 128,-1,48
 717 620 717 620 709 612.5 c 128,-1,49
 701 605 701 605 701 590 c 2,50,-1
 701 94 l 1,51,-1
 756 94 l 2,52,53
 796 94 796 94 824 108.5 c 128,-1,54
 852 123 852 123 866.5 151 c 128,-1,55
 881 179 881 179 881 220 c 0,56,57
 881 262 881 262 866.5 289 c 128,-1,58
 852 316 852 316 825 329.5 c 128,-1,59
 798 343 798 343 759 343 c 2,60,-1
 646 343 l 1,61,-1
 646 437 l 1,62,-1
 800 437 l 2,63,64
 887 437 887 437 948.5 411.5 c 128,-1,65
 1010 386 1010 386 1042.5 338.5 c 128,-1,66
 1075 291 1075 291 1075 224 c 0,67,68
 1075 155 1075 155 1041 104.5 c 128,-1,69
 1007 54 1007 54 944.5 27 c 128,-1,70
 882 0 882 0 795 0 c 2,71,-1
 438 0 l 1,30,-1
EndSplineSet
EndChar

StartChar: Tshecyr
Encoding: 1035 1035 252
Width: 934
GlyphClass: 2
Flags: W
AnchorPoint: "Anchor-0" 337 741 basechar 0
LayerCount: 2
Fore
SplineSet
610 421 m 0,0,1
 690 421 690 421 742.5 400 c 128,-1,2
 795 379 795 379 821.5 332 c 128,-1,3
 848 285 848 285 848 207 c 2,4,-1
 848 120 l 2,5,6
 848 98 848 98 864 91 c 128,-1,7
 880 84 880 84 904 84 c 2,8,-1
 914 84 l 1,9,-1
 914 0 l 1,10,-1
 652 0 l 1,11,-1
 652 200 l 2,12,13
 652 249 652 249 640.5 276.5 c 128,-1,14
 629 304 629 304 605.5 315 c 128,-1,15
 582 326 582 326 545 326 c 0,16,17
 512 326 512 326 479 318.5 c 128,-1,18
 446 311 446 311 414 293 c 1,19,-1
 414 382 l 1,20,21
 451 400 451 400 503 410.5 c 128,-1,22
 555 421 555 421 610 421 c 0,0,1
175 0 m 1,23,-1
 175 84 l 1,24,-1
 189 84 l 2,25,26
 214 84 214 84 230.5 91 c 128,-1,27
 247 98 247 98 247 119 c 2,28,-1
 247 616 l 1,29,-1
 211 616 l 2,30,31
 183 616 183 616 166.5 612.5 c 128,-1,32
 150 609 150 609 142.5 599.5 c 128,-1,33
 135 590 135 590 132 570 c 2,34,-1
 122 484 l 1,35,-1
 29 484 l 1,36,-1
 29 710 l 1,37,-1
 692 710 l 1,38,-1
 692 492 l 1,39,-1
 599 492 l 1,40,-1
 589 570 l 2,41,42
 587 590 587 590 579.5 599.5 c 128,-1,43
 572 609 572 609 555 612.5 c 128,-1,44
 538 616 538 616 510 616 c 2,45,-1
 443 616 l 1,46,-1
 443 94 l 2,47,48
 443 91 443 91 452.5 88.5 c 128,-1,49
 462 86 462 86 475.5 85 c 128,-1,50
 489 84 489 84 502 84 c 2,51,-1
 515 84 l 1,52,-1
 515 0 l 1,53,-1
 175 0 l 1,23,-1
EndSplineSet
EndChar

StartChar: Dzhecyr
Encoding: 1039 1039 253
Width: 815
GlyphClass: 2
Flags: W
AnchorPoint: "Anchor-0" 408 741 basechar 0
LayerCount: 2
Fore
SplineSet
30 710 m 1,0,-1
 362 710 l 1,1,-1
 362 626 l 1,2,-1
 353 626 l 2,3,4
 340 626 340 626 326 625 c 128,-1,5
 312 624 312 624 302.5 622 c 128,-1,6
 293 620 293 620 293 617 c 2,7,-1
 293 0 l 1,8,-1
 30 0 l 1,9,-1
 30 84 l 1,10,-1
 40 84 l 2,11,12
 64 84 64 84 80.5 91 c 128,-1,13
 97 98 97 98 97 120 c 2,14,-1
 97 590 l 2,15,16
 97 612 97 612 80.5 619 c 128,-1,17
 64 626 64 626 40 626 c 2,18,-1
 30 626 l 1,19,-1
 30 710 l 1,0,-1
454 710 m 1,20,-1
 785 710 l 1,21,-1
 785 626 l 1,22,-1
 775 626 l 2,23,24
 752 626 752 626 735 619 c 128,-1,25
 718 612 718 612 718 590 c 2,26,-1
 718 120 l 2,27,28
 718 98 718 98 735 91 c 128,-1,29
 752 84 752 84 775 84 c 2,30,-1
 785 84 l 1,31,-1
 785 0 l 1,32,-1
 522 0 l 1,33,-1
 522 617 l 2,34,35
 522 620 522 620 512.5 622 c 128,-1,36
 503 624 503 624 489 625 c 128,-1,37
 475 626 475 626 462 626 c 2,38,-1
 454 626 l 1,39,-1
 454 710 l 1,20,-1
162 0 m 1,40,-1
 162 94 l 1,41,-1
 647 94 l 1,42,-1
 647 0 l 1,43,-1
 566 0 l 2,44,45
 531 0 531 0 509.5 -3 c 128,-1,46
 488 -6 488 -6 477.5 -15.5 c 128,-1,47
 467 -25 467 -25 465 -44 c 2,48,-1
 456 -157 l 1,49,-1
 359 -157 l 1,50,-1
 350 -44 l 2,51,52
 348 -25 348 -25 337.5 -15.5 c 128,-1,53
 327 -6 327 -6 305.5 -3 c 128,-1,54
 284 0 284 0 250 0 c 2,55,-1
 162 0 l 1,40,-1
EndSplineSet
EndChar

StartChar: Becyr
Encoding: 1041 1041 257
Width: 691
GlyphClass: 2
Flags: W
AnchorPoint: "Anchor-0" 353 741 basechar 0
LayerCount: 2
Fore
SplineSet
30 710 m 1,0,-1
 607 710 l 1,1,-1
 607 511 l 1,2,-1
 512 511 l 1,3,-1
 504 572 l 2,4,5
 502 590 502 590 489.5 599.5 c 128,-1,6
 477 609 477 609 455 612.5 c 128,-1,7
 433 616 433 616 400 616 c 2,8,-1
 293 616 l 1,9,-1
 293 95 l 1,10,-1
 349 95 l 2,11,12
 390 95 390 95 417.5 108.5 c 128,-1,13
 445 122 445 122 459.5 149.5 c 128,-1,14
 474 177 474 177 474 217 c 0,15,16
 474 258 474 258 460 283.5 c 128,-1,17
 446 309 446 309 419 321 c 128,-1,18
 392 333 392 333 353 333 c 2,19,-1
 254 333 l 1,20,-1
 254 428 l 1,21,-1
 393 428 l 2,22,23
 480 428 480 428 542 404.5 c 128,-1,24
 604 381 604 381 636.5 335 c 128,-1,25
 669 289 669 289 669 221 c 256,26,27
 669 153 669 153 635 103.5 c 128,-1,28
 601 54 601 54 538 27 c 128,-1,29
 475 0 475 0 388 0 c 2,30,-1
 30 0 l 1,31,-1
 30 84 l 1,32,-1
 40 84 l 2,33,34
 64 84 64 84 80.5 91 c 128,-1,35
 97 98 97 98 97 120 c 2,36,-1
 97 590 l 2,37,38
 97 612 97 612 80.5 619 c 128,-1,39
 64 626 64 626 40 626 c 2,40,-1
 30 626 l 1,41,-1
 30 710 l 1,0,-1
EndSplineSet
EndChar

StartChar: Gecyr
Encoding: 1043 1043 259
Width: 609
GlyphClass: 2
Flags: W
AnchorPoint: "Anchor-0" 310 741 basechar 0
LayerCount: 2
Fore
SplineSet
293 615 m 1,0,-1
 293 120 l 2,1,2
 293 103 293 103 304 95 c 128,-1,3
 315 87 315 87 331.5 85.5 c 128,-1,4
 348 84 348 84 363 84 c 2,5,-1
 382 84 l 1,6,-1
 382 0 l 1,7,-1
 30 0 l 1,8,-1
 30 84 l 1,9,-1
 40 84 l 2,10,11
 64 84 64 84 80.5 91 c 128,-1,12
 97 98 97 98 97 120 c 2,13,-1
 97 590 l 2,14,15
 97 612 97 612 80.5 619 c 128,-1,16
 64 626 64 626 40 626 c 2,17,-1
 30 626 l 1,18,-1
 30 710 l 1,19,-1
 578 710 l 1,20,-1
 578 485 l 1,21,-1
 482 485 l 1,22,-1
 472 572 l 2,23,24
 470 590 470 590 459 599.5 c 128,-1,25
 448 609 448 609 426.5 612 c 128,-1,26
 405 615 405 615 372 615 c 2,27,-1
 293 615 l 1,0,-1
EndSplineSet
EndChar

StartChar: Decyr
Encoding: 1044 1044 261
Width: 778
GlyphClass: 2
Flags: W
AnchorPoint: "Anchor-0" 421 741 basechar 0
LayerCount: 2
Fore
SplineSet
237 710 m 1,0,-1
 564 710 l 1,1,-1
 564 616 l 1,2,-1
 237 616 l 1,3,-1
 237 710 l 1,0,-1
671 23 m 1,4,-1
 475 23 l 1,5,-1
 475 710 l 1,6,-1
 737 710 l 1,7,-1
 737 626 l 1,8,-1
 727 626 l 2,9,10
 703 626 703 626 687 619 c 128,-1,11
 671 612 671 612 671 590 c 2,12,-1
 671 23 l 1,4,-1
650 -48 m 2,13,14
 648 -28 648 -28 637 -17.5 c 128,-1,15
 626 -7 626 -7 605 -3.5 c 128,-1,16
 584 0 584 0 549 0 c 2,17,-1
 221 0 l 2,18,19
 187 0 187 0 165.5 -3.5 c 128,-1,20
 144 -7 144 -7 133.5 -17.5 c 128,-1,21
 123 -28 123 -28 120 -48 c 2,22,-1
 107 -157 l 1,23,-1
 11 -157 l 1,24,-1
 11 94 l 1,25,-1
 760 94 l 1,26,-1
 760 -157 l 1,27,-1
 664 -157 l 1,28,-1
 650 -48 l 2,13,14
173 42 m 1,29,-1
 53 42 l 1,30,31
 75 72 75 72 91.5 104 c 128,-1,32
 108 136 108 136 120 176 c 128,-1,33
 132 216 132 216 139.5 269 c 128,-1,34
 147 322 147 322 150 394 c 2,35,-1
 160 588 l 2,36,37
 161 611 161 611 146.5 618.5 c 128,-1,38
 132 626 132 626 109 626 c 2,39,-1
 92 626 l 1,40,-1
 92 710 l 1,41,-1
 269 710 l 1,42,-1
 254 390 l 2,43,44
 250 293 250 293 239.5 229 c 128,-1,45
 229 165 229 165 212 121.5 c 128,-1,46
 195 78 195 78 173 42 c 1,29,-1
EndSplineSet
Substitution2: "'locl' Localized Forms in Cyrillic lookup 12 subtable" De.bgr
EndChar

StartChar: Zhecyr
Encoding: 1046 1046 266
Width: 1127
GlyphClass: 2
Flags: W
AnchorPoint: "Anchor-1" 553 0 basechar 0
AnchorPoint: "Anchor-0" 553 741 basechar 0
LayerCount: 2
Fore
SplineSet
781 0 m 1,0,-1
 781 84 l 1,1,-1
 794 84 l 2,2,3
 804 84 804 84 815 85 c 128,-1,4
 826 86 826 86 833 88.5 c 128,-1,5
 840 91 840 91 840 94 c 2,6,-1
 685 338 l 1,7,-1
 685 362 l 1,8,-1
 897 617 l 2,9,10
 897 621 897 621 889 622.5 c 128,-1,11
 881 624 881 624 868.5 625 c 128,-1,12
 856 626 856 626 842 626 c 2,13,-1
 831 626 l 1,14,-1
 831 710 l 1,15,-1
 1079 710 l 1,16,-1
 1079 626 l 1,17,-1
 1065 626 l 2,18,19
 1050 626 1050 626 1038.5 623 c 128,-1,20
 1027 620 1027 620 1017 613 c 128,-1,21
 1007 606 1007 606 995 592 c 2,22,-1
 808 369 l 1,23,-1
 831 453 l 1,24,-1
 1041 115 l 2,25,26
 1049 103 1049 103 1057.5 96 c 128,-1,27
 1066 89 1066 89 1076.5 86.5 c 128,-1,28
 1087 84 1087 84 1099 84 c 2,29,-1
 1111 84 l 1,30,-1
 1111 0 l 1,31,-1
 781 0 l 1,0,-1
340 0 m 1,32,-1
 15 0 l 1,33,-1
 15 84 l 1,34,-1
 27 84 l 2,35,36
 40 84 40 84 50.5 86.5 c 128,-1,37
 61 89 61 89 70 96 c 128,-1,38
 79 103 79 103 87 115 c 2,39,-1
 300 453 l 1,40,-1
 308 369 l 1,41,-1
 120 592 l 2,42,43
 109 606 109 606 99 613 c 128,-1,44
 89 620 89 620 77.5 623 c 128,-1,45
 66 626 66 626 51 626 c 2,46,-1
 37 626 l 1,47,-1
 37 710 l 1,48,-1
 289 710 l 1,49,-1
 289 626 l 1,50,-1
 279 626 l 2,51,52
 265 626 265 626 252.5 625 c 128,-1,53
 240 624 240 624 232 622.5 c 128,-1,54
 224 621 224 621 224 617 c 2,55,-1
 435 362 l 1,56,-1
 435 338 l 1,57,-1
 280 94 l 2,58,59
 280 91 280 91 287.5 88.5 c 128,-1,60
 295 86 295 86 306 85 c 128,-1,61
 317 84 317 84 327 84 c 2,62,-1
 340 84 l 1,63,-1
 340 0 l 1,32,-1
395 0 m 1,64,-1
 395 84 l 1,65,-1
 404 84 l 2,66,67
 414 84 414 84 424 84.5 c 128,-1,68
 434 85 434 85 443 86.5 c 128,-1,69
 452 88 452 88 457 89.5 c 128,-1,70
 462 91 462 91 462 94 c 2,71,-1
 462 616 l 2,72,73
 462 619 462 619 456.5 620.5 c 128,-1,74
 451 622 451 622 442 623.5 c 128,-1,75
 433 625 433 625 422.5 625.5 c 128,-1,76
 412 626 412 626 401 626 c 2,77,-1
 392 626 l 1,78,-1
 392 710 l 1,79,-1
 729 710 l 1,80,-1
 729 626 l 1,81,-1
 720 626 l 2,82,83
 709 626 709 626 698 625.5 c 128,-1,84
 687 625 687 625 678 623.5 c 128,-1,85
 669 622 669 622 663.5 620.5 c 128,-1,86
 658 619 658 619 658 616 c 2,87,-1
 658 94 l 2,88,89
 658 91 658 91 663.5 89.5 c 128,-1,90
 669 88 669 88 677.5 86.5 c 128,-1,91
 686 85 686 85 696.5 84.5 c 128,-1,92
 707 84 707 84 717 84 c 2,93,-1
 725 84 l 1,94,-1
 725 0 l 1,95,-1
 395 0 l 1,64,-1
EndSplineSet
EndChar

StartChar: Zecyr
Encoding: 1047 1047 269
Width: 660
GlyphClass: 2
Flags: W
AnchorPoint: "Anchor-1" 357 0 basechar 0
AnchorPoint: "Anchor-0" 357 741 basechar 0
LayerCount: 2
Fore
SplineSet
358 -10 m 0,0,1
 284 -10 284 -10 233 9.5 c 128,-1,2
 182 29 182 29 150.5 69.5 c 128,-1,3
 119 110 119 110 101 172 c 1,4,-1
 160 161 l 1,5,-1
 141 0 l 1,6,-1
 55 0 l 1,7,-1
 55 221 l 1,8,-1
 152 221 l 1,9,10
 165 180 165 180 186 150.5 c 128,-1,11
 207 121 207 121 238.5 105 c 128,-1,12
 270 89 270 89 313 89 c 0,13,14
 351 89 351 89 376 102 c 128,-1,15
 401 115 401 115 413.5 141.5 c 128,-1,16
 426 168 426 168 426 206 c 0,17,18
 426 245 426 245 413 270 c 128,-1,19
 400 295 400 295 372 305.5 c 128,-1,20
 344 316 344 316 299 312 c 0,21,22
 289 311 289 311 277.5 310 c 128,-1,23
 266 309 266 309 255 308 c 128,-1,24
 244 307 244 307 233 306 c 1,25,-1
 233 421 l 1,26,27
 243 420 243 420 254 419 c 128,-1,28
 265 418 265 418 276 417 c 128,-1,29
 287 416 287 416 298 415 c 0,30,31
 338 411 338 411 362.5 422.5 c 128,-1,32
 387 434 387 434 398.5 459 c 128,-1,33
 410 484 410 484 410 520 c 0,34,35
 410 553 410 553 399.5 575 c 128,-1,36
 389 597 389 597 367.5 609 c 128,-1,37
 346 621 346 621 312 621 c 0,38,39
 272 621 272 621 243 605 c 128,-1,40
 214 589 214 589 194 559.5 c 128,-1,41
 174 530 174 530 162 489 c 1,42,-1
 65 489 l 1,43,-1
 65 710 l 1,44,-1
 150 710 l 1,45,-1
 170 549 l 1,46,-1
 114 538 l 1,47,48
 126 580 126 580 145.5 614 c 128,-1,49
 165 648 165 648 194 671.5 c 128,-1,50
 223 695 223 695 263.5 707.5 c 128,-1,51
 304 720 304 720 358 720 c 0,52,53
 438 720 438 720 493 698 c 128,-1,54
 548 676 548 676 577 635.5 c 128,-1,55
 606 595 606 595 606 539 c 0,56,57
 606 485 606 485 573.5 445 c 128,-1,58
 541 405 541 405 478 384 c 128,-1,59
 415 363 415 363 324 363 c 1,60,-1
 392 396 l 1,61,-1
 392 351 l 1,62,-1
 343 381 l 1,63,64
 440 381 440 381 502.5 360.5 c 128,-1,65
 565 340 565 340 595.5 299 c 128,-1,66
 626 258 626 258 626 199 c 0,67,68
 626 153 626 153 607 115 c 128,-1,69
 588 77 588 77 552.5 49 c 128,-1,70
 517 21 517 21 468 5.5 c 128,-1,71
 419 -10 419 -10 358 -10 c 0,0,1
EndSplineSet
EndChar

StartChar: Icyr
Encoding: 1048 1048 270
Width: 835
GlyphClass: 2
Flags: W
AnchorPoint: "Anchor-0" 418 741 basechar 0
LayerCount: 2
Fore
SplineSet
213 186 m 1,0,-1
 563 594 l 1,1,-1
 623 531 l 1,2,-1
 273 123 l 1,3,-1
 213 186 l 1,0,-1
30 0 m 1,4,-1
 30 84 l 1,5,-1
 40 84 l 2,6,7
 64 84 64 84 80.5 91 c 128,-1,8
 97 98 97 98 97 120 c 2,9,-1
 97 590 l 2,10,11
 97 612 97 612 80.5 619 c 128,-1,12
 64 626 64 626 40 626 c 2,13,-1
 30 626 l 1,14,-1
 30 710 l 1,15,-1
 362 710 l 1,16,-1
 362 626 l 1,17,-1
 353 626 l 2,18,19
 340 626 340 626 326 625 c 128,-1,20
 312 624 312 624 302.5 622 c 128,-1,21
 293 620 293 620 293 616 c 2,22,-1
 293 93 l 2,23,24
 293 91 293 91 302.5 88.5 c 128,-1,25
 312 86 312 86 326 85 c 128,-1,26
 340 84 340 84 353 84 c 2,27,-1
 362 84 l 1,28,-1
 362 0 l 1,29,-1
 30 0 l 1,4,-1
474 0 m 1,30,-1
 474 84 l 1,31,-1
 482 84 l 2,32,33
 495 84 495 84 509 85 c 128,-1,34
 523 86 523 86 533 88.5 c 128,-1,35
 543 91 543 91 543 94 c 2,36,-1
 543 617 l 2,37,38
 543 620 543 620 533 622 c 128,-1,39
 523 624 523 624 509 625 c 128,-1,40
 495 626 495 626 482 626 c 2,41,-1
 474 626 l 1,42,-1
 474 710 l 1,43,-1
 805 710 l 1,44,-1
 805 626 l 1,45,-1
 795 626 l 2,46,47
 772 626 772 626 755.5 619 c 128,-1,48
 739 612 739 612 739 590 c 2,49,-1
 739 120 l 2,50,51
 739 98 739 98 755.5 91 c 128,-1,52
 772 84 772 84 795 84 c 2,53,-1
 805 84 l 1,54,-1
 805 0 l 1,55,-1
 474 0 l 1,30,-1
EndSplineSet
EndChar

StartChar: Elcyr
Encoding: 1051 1051 276
Width: 761
GlyphClass: 2
Flags: W
AnchorPoint: "Anchor-0" 419 741 basechar 0
LayerCount: 2
Fore
SplineSet
233 710 m 1,0,-1
 555 710 l 1,1,-1
 555 616 l 1,2,-1
 233 616 l 1,3,-1
 233 710 l 1,0,-1
399 0 m 1,4,-1
 399 84 l 1,5,-1
 408 84 l 2,6,7
 421 84 421 84 435 85 c 128,-1,8
 449 86 449 86 458.5 88.5 c 128,-1,9
 468 91 468 91 468 94 c 2,10,-1
 468 710 l 1,11,-1
 730 710 l 1,12,-1
 730 626 l 1,13,-1
 720 626 l 2,14,15
 697 626 697 626 680.5 619 c 128,-1,16
 664 612 664 612 664 590 c 2,17,-1
 664 120 l 2,18,19
 664 98 664 98 680.5 91 c 128,-1,20
 697 84 697 84 720 84 c 2,21,-1
 730 84 l 1,22,-1
 730 0 l 1,23,-1
 399 0 l 1,4,-1
161 326 m 2,24,-1
 175 588 l 2,25,26
 176 611 176 611 161 618.5 c 128,-1,27
 146 626 146 626 124 626 c 2,28,-1
 107 626 l 1,29,-1
 107 710 l 1,30,-1
 285 710 l 1,31,-1
 266 320 l 2,32,33
 261 207 261 207 241 133 c 128,-1,34
 221 59 221 59 181 23.5 c 128,-1,35
 141 -12 141 -12 77 -12 c 0,36,37
 52 -12 52 -12 35.5 -7 c 128,-1,38
 19 -2 19 -2 9 3 c 1,39,-1
 9 172 l 1,40,41
 15 169 15 169 30.5 163 c 128,-1,42
 46 157 46 157 67 157 c 0,43,44
 97 157 97 157 116.5 175.5 c 128,-1,45
 136 194 136 194 147 231 c 128,-1,46
 158 268 158 268 161 326 c 2,24,-1
EndSplineSet
Substitution2: "'locl' Localized Forms in Cyrillic lookup 12 subtable" El.bgr
EndChar

StartChar: Pecyr
Encoding: 1055 1055 281
Width: 815
GlyphClass: 2
Flags: W
AnchorPoint: "Anchor-0" 408 741 basechar 0
LayerCount: 2
Fore
SplineSet
184 710 m 1,0,-1
 610 710 l 1,1,-1
 610 616 l 1,2,-1
 184 616 l 1,3,-1
 184 710 l 1,0,-1
30 0 m 1,4,-1
 30 84 l 1,5,-1
 40 84 l 2,6,7
 64 84 64 84 80.5 91 c 128,-1,8
 97 98 97 98 97 120 c 2,9,-1
 97 590 l 2,10,11
 97 612 97 612 80.5 619 c 128,-1,12
 64 626 64 626 40 626 c 2,13,-1
 30 626 l 1,14,-1
 30 710 l 1,15,-1
 293 710 l 1,16,-1
 293 93 l 2,17,18
 293 91 293 91 302.5 88.5 c 128,-1,19
 312 86 312 86 326 85 c 128,-1,20
 340 84 340 84 353 84 c 2,21,-1
 362 84 l 1,22,-1
 362 0 l 1,23,-1
 30 0 l 1,4,-1
454 0 m 1,24,-1
 454 84 l 1,25,-1
 462 84 l 2,26,27
 475 84 475 84 489 85 c 128,-1,28
 503 86 503 86 512.5 88 c 128,-1,29
 522 90 522 90 522 93 c 2,30,-1
 522 710 l 1,31,-1
 785 710 l 1,32,-1
 785 626 l 1,33,-1
 775 626 l 2,34,35
 752 626 752 626 735 619 c 128,-1,36
 718 612 718 612 718 590 c 2,37,-1
 718 120 l 2,38,39
 718 98 718 98 735 91 c 128,-1,40
 752 84 752 84 775 84 c 2,41,-1
 785 84 l 1,42,-1
 785 0 l 1,43,-1
 454 0 l 1,24,-1
EndSplineSet
EndChar

StartChar: Ucyr
Encoding: 1059 1059 285
Width: 691
GlyphClass: 2
Flags: W
AnchorPoint: "Anchor-1" 228 0 basechar 0
AnchorPoint: "Anchor-0" 353 741 basechar 0
LayerCount: 2
Fore
SplineSet
423 205 m 2,0,1
 395 150 395 150 371 108.5 c 128,-1,2
 347 67 347 67 322.5 40 c 128,-1,3
 298 13 298 13 268 0 c 128,-1,4
 238 -13 238 -13 199 -13 c 0,5,6
 174 -13 174 -13 156 -7.5 c 128,-1,7
 138 -2 138 -2 127 5 c 1,8,-1
 127 155 l 1,9,10
 139 148 139 148 163.5 140.5 c 128,-1,11
 188 133 188 133 217 133 c 0,12,13
 251 133 251 133 273 143.5 c 128,-1,14
 295 154 295 154 312.5 178.5 c 128,-1,15
 330 203 330 203 350 245 c 2,16,-1
 528 607 l 2,17,18
 528 613 528 613 521.5 617.5 c 128,-1,19
 515 622 515 622 505 624 c 128,-1,20
 495 626 495 626 483 626 c 2,21,-1
 470 626 l 1,22,-1
 470 710 l 1,23,-1
 681 710 l 1,24,-1
 681 626 l 1,25,-1
 676 626 l 2,26,27
 665 626 665 626 655 623 c 128,-1,28
 645 620 645 620 636 611 c 128,-1,29
 627 602 627 602 618 585 c 2,30,-1
 423 205 l 2,0,1
428 297 m 1,31,-1
 322 140 l 1,32,-1
 68 600 l 2,33,34
 61 613 61 613 53.5 618.5 c 128,-1,35
 46 624 46 624 36.5 625 c 128,-1,36
 27 626 27 626 16 626 c 2,37,-1
 10 626 l 1,38,-1
 10 710 l 1,39,-1
 329 710 l 1,40,-1
 329 626 l 1,41,-1
 313 626 l 2,42,43
 300 626 300 626 287 625 c 128,-1,44
 274 624 274 624 265.5 622 c 128,-1,45
 257 620 257 620 257 616 c 2,46,-1
 428 297 l 1,31,-1
EndSplineSet
EndChar

StartChar: Efcyr
Encoding: 1060 1060 290
Width: 976
GlyphClass: 2
Flags: W
AnchorPoint: "Anchor-1" 488 0 basechar 0
AnchorPoint: "Anchor-0" 488 741 basechar 0
LayerCount: 2
Fore
SplineSet
391 97 m 2,0,-1
 391 613 l 2,1,2
 391 634 391 634 374.5 641 c 128,-1,3
 358 648 358 648 332 648 c 2,4,-1
 322 648 l 1,5,-1
 322 730 l 1,6,-1
 654 730 l 1,7,-1
 654 648 l 1,8,-1
 644 648 l 2,9,10
 619 648 619 648 602 641 c 128,-1,11
 585 634 585 634 585 613 c 2,12,-1
 585 97 l 2,13,14
 585 76 585 76 602 69 c 128,-1,15
 619 62 619 62 644 62 c 2,16,-1
 654 62 l 1,17,-1
 654 -20 l 1,18,-1
 322 -20 l 1,19,-1
 322 62 l 1,20,-1
 332 62 l 2,21,22
 358 62 358 62 374.5 69 c 128,-1,23
 391 76 391 76 391 97 c 2,0,-1
402 600 m 1,24,-1
 402 502 l 1,25,26
 338 501 338 501 298.5 485 c 128,-1,27
 259 469 259 469 240 437 c 128,-1,28
 221 405 221 405 221 357 c 0,29,30
 221 310 221 310 239.5 278 c 128,-1,31
 258 246 258 246 298 229.5 c 128,-1,32
 338 213 338 213 402 212 c 1,33,-1
 402 114 l 1,34,35
 279 114 279 114 195 143.5 c 128,-1,36
 111 173 111 173 68 227.5 c 128,-1,37
 25 282 25 282 25 357 c 0,38,39
 25 433 25 433 68 487 c 128,-1,40
 111 541 111 541 195 570.5 c 128,-1,41
 279 600 279 600 402 600 c 1,24,-1
575 114 m 1,42,-1
 575 212 l 1,43,44
 638 213 638 213 678 229.5 c 128,-1,45
 718 246 718 246 736.5 278 c 128,-1,46
 755 310 755 310 755 357 c 256,47,48
 755 404 755 404 736.5 436.5 c 128,-1,49
 718 469 718 469 678 485 c 128,-1,50
 638 501 638 501 575 502 c 1,51,-1
 575 600 l 1,52,53
 697 600 697 600 781 570.5 c 128,-1,54
 865 541 865 541 908 486.5 c 128,-1,55
 951 432 951 432 951 357 c 256,56,57
 951 282 951 282 908 227.5 c 128,-1,58
 865 173 865 173 781 143.5 c 128,-1,59
 697 114 697 114 575 114 c 1,42,-1
EndSplineSet
EndChar

StartChar: Tsecyr
Encoding: 1062 1062 292
Width: 826
GlyphClass: 2
Flags: W
AnchorPoint: "Anchor-0" 413 741 basechar 0
LayerCount: 2
Fore
SplineSet
206 0 m 1,0,-1
 206 94 l 1,1,-1
 634 94 l 1,2,-1
 634 0 l 1,3,-1
 206 0 l 1,0,-1
30 710 m 1,4,-1
 362 710 l 1,5,-1
 362 626 l 1,6,-1
 353 626 l 2,7,8
 340 626 340 626 326 625 c 128,-1,9
 312 624 312 624 302.5 622 c 128,-1,10
 293 620 293 620 293 617 c 2,11,-1
 293 0 l 1,12,-1
 30 0 l 1,13,-1
 30 84 l 1,14,-1
 40 84 l 2,15,16
 64 84 64 84 80.5 91 c 128,-1,17
 97 98 97 98 97 120 c 2,18,-1
 97 590 l 2,19,20
 97 612 97 612 80.5 619 c 128,-1,21
 64 626 64 626 40 626 c 2,22,-1
 30 626 l 1,23,-1
 30 710 l 1,4,-1
454 710 m 1,24,-1
 785 710 l 1,25,-1
 785 626 l 1,26,-1
 775 626 l 2,27,28
 752 626 752 626 735 619 c 128,-1,29
 718 612 718 612 718 590 c 2,30,-1
 718 0 l 1,31,-1
 522 0 l 1,32,-1
 522 617 l 2,33,34
 522 620 522 620 512.5 622 c 128,-1,35
 503 624 503 624 489 625 c 128,-1,36
 475 626 475 626 462 626 c 2,37,-1
 454 626 l 1,38,-1
 454 710 l 1,24,-1
541 0 m 1,39,-1
 541 94 l 1,40,-1
 807 94 l 1,41,-1
 807 -157 l 1,42,-1
 711 -157 l 1,43,-1
 698 -48 l 2,44,45
 695 -28 695 -28 684.5 -17.5 c 128,-1,46
 674 -7 674 -7 652.5 -3.5 c 128,-1,47
 631 0 631 0 597 0 c 2,48,-1
 541 0 l 1,39,-1
EndSplineSet
EndChar

StartChar: Checyr
Encoding: 1063 1063 293
Width: 792
GlyphClass: 2
Flags: W
AnchorPoint: "Anchor-0" 388 741 basechar 0
LayerCount: 2
Fore
SplineSet
427 0 m 1,0,-1
 427 84 l 1,1,-1
 439 84 l 2,2,3
 452 84 452 84 466 85 c 128,-1,4
 480 86 480 86 489.5 88.5 c 128,-1,5
 499 91 499 91 499 94 c 2,6,-1
 499 617 l 2,7,8
 499 620 499 620 489.5 622 c 128,-1,9
 480 624 480 624 466 625 c 128,-1,10
 452 626 452 626 439 626 c 2,11,-1
 430 626 l 1,12,-1
 430 710 l 1,13,-1
 762 710 l 1,14,-1
 762 626 l 1,15,-1
 752 626 l 2,16,17
 729 626 729 626 712 619 c 128,-1,18
 695 612 695 612 695 590 c 2,19,-1
 695 120 l 2,20,21
 695 98 695 98 711.5 91 c 128,-1,22
 728 84 728 84 752 84 c 2,23,-1
 762 84 l 1,24,-1
 762 0 l 1,25,-1
 427 0 l 1,0,-1
327 263 m 0,26,27
 248 263 248 263 194 284 c 128,-1,28
 140 305 140 305 113.5 353.5 c 128,-1,29
 87 402 87 402 87 481 c 2,30,-1
 87 591 l 2,31,32
 87 612 87 612 70 619 c 128,-1,33
 53 626 53 626 30 626 c 2,34,-1
 20 626 l 1,35,-1
 20 710 l 1,36,-1
 351 710 l 1,37,-1
 351 626 l 1,38,-1
 343 626 l 2,39,40
 330 626 330 626 316 625 c 128,-1,41
 302 624 302 624 292.5 622 c 128,-1,42
 283 620 283 620 283 616 c 2,43,-1
 283 488 l 2,44,45
 283 440 283 440 293.5 411.5 c 128,-1,46
 304 383 304 383 328 370.5 c 128,-1,47
 352 358 352 358 393 358 c 0,48,49
 430 358 430 358 465 365.5 c 128,-1,50
 500 373 500 373 532 391 c 1,51,-1
 532 302 l 1,52,53
 494 284 494 284 440.5 273.5 c 128,-1,54
 387 263 387 263 327 263 c 0,26,27
EndSplineSet
EndChar

StartChar: Shacyr
Encoding: 1064 1064 294
Width: 1166
GlyphClass: 2
Flags: W
AnchorPoint: "Anchor-0" 572 741 basechar 0
LayerCount: 2
Fore
SplineSet
982 0 m 1,0,-1
 205 0 l 1,1,-1
 205 94 l 1,2,-1
 982 94 l 1,3,-1
 982 0 l 1,0,-1
1135 710 m 1,4,-1
 1135 626 l 1,5,-1
 1126 626 l 2,6,7
 1102 626 1102 626 1085.5 619 c 128,-1,8
 1069 612 1069 612 1069 590 c 2,9,-1
 1069 120 l 2,10,11
 1069 98 1069 98 1085.5 91 c 128,-1,12
 1102 84 1102 84 1126 84 c 2,13,-1
 1135 84 l 1,14,-1
 1135 0 l 1,15,-1
 873 0 l 1,16,-1
 873 617 l 2,17,18
 873 620 873 620 863.5 622 c 128,-1,19
 854 624 854 624 840 625 c 128,-1,20
 826 626 826 626 813 626 c 2,21,-1
 804 626 l 1,22,-1
 804 710 l 1,23,-1
 1135 710 l 1,4,-1
362 710 m 1,24,-1
 362 626 l 1,25,-1
 353 626 l 2,26,27
 340 626 340 626 326 625 c 128,-1,28
 312 624 312 624 302.5 622 c 128,-1,29
 293 620 293 620 293 617 c 2,30,-1
 293 0 l 1,31,-1
 30 0 l 1,32,-1
 30 84 l 1,33,-1
 40 84 l 2,34,35
 64 84 64 84 80.5 91 c 128,-1,36
 97 98 97 98 97 120 c 2,37,-1
 97 590 l 2,38,39
 97 612 97 612 80.5 619 c 128,-1,40
 64 626 64 626 40 626 c 2,41,-1
 30 626 l 1,42,-1
 30 710 l 1,43,-1
 362 710 l 1,24,-1
417 710 m 1,44,-1
 749 710 l 1,45,-1
 749 626 l 1,46,-1
 740 626 l 2,47,48
 727 626 727 626 713.5 625 c 128,-1,49
 700 624 700 624 690.5 622 c 128,-1,50
 681 620 681 620 681 617 c 2,51,-1
 681 0 l 1,52,-1
 485 0 l 1,53,-1
 485 617 l 2,54,55
 485 620 485 620 475.5 622 c 128,-1,56
 466 624 466 624 452.5 625 c 128,-1,57
 439 626 439 626 426 626 c 2,58,-1
 417 626 l 1,59,-1
 417 710 l 1,44,-1
EndSplineSet
EndChar

StartChar: Shchacyr
Encoding: 1065 1065 295
Width: 1176
GlyphClass: 2
Flags: W
AnchorPoint: "Anchor-0" 577 741 basechar 0
LayerCount: 2
Fore
SplineSet
948 0 m 1,0,-1
 205 0 l 1,1,-1
 205 94 l 1,2,-1
 948 94 l 1,3,-1
 948 0 l 1,0,-1
362 710 m 1,4,-1
 362 626 l 1,5,-1
 353 626 l 2,6,7
 340 626 340 626 326 625 c 128,-1,8
 312 624 312 624 302.5 622 c 128,-1,9
 293 620 293 620 293 617 c 2,10,-1
 293 0 l 1,11,-1
 30 0 l 1,12,-1
 30 84 l 1,13,-1
 40 84 l 2,14,15
 64 84 64 84 80.5 91 c 128,-1,16
 97 98 97 98 97 120 c 2,17,-1
 97 590 l 2,18,19
 97 612 97 612 80.5 619 c 128,-1,20
 64 626 64 626 40 626 c 2,21,-1
 30 626 l 1,22,-1
 30 710 l 1,23,-1
 362 710 l 1,4,-1
804 710 m 1,24,-1
 1135 710 l 1,25,-1
 1135 626 l 1,26,-1
 1126 626 l 2,27,28
 1102 626 1102 626 1085.5 619 c 128,-1,29
 1069 612 1069 612 1069 590 c 2,30,-1
 1069 0 l 1,31,-1
 873 0 l 1,32,-1
 873 617 l 2,33,34
 873 620 873 620 863.5 622 c 128,-1,35
 854 624 854 624 840 625 c 128,-1,36
 826 626 826 626 813 626 c 2,37,-1
 804 626 l 1,38,-1
 804 710 l 1,24,-1
947 0 m 2,39,-1
 901 0 l 1,40,-1
 901 94 l 1,41,-1
 1158 94 l 1,42,-1
 1158 -157 l 1,43,-1
 1062 -157 l 1,44,-1
 1049 -48 l 2,45,46
 1046 -28 1046 -28 1035.5 -17.5 c 128,-1,47
 1025 -7 1025 -7 1003.5 -3.5 c 128,-1,48
 982 0 982 0 947 0 c 2,39,-1
417 710 m 1,49,-1
 749 710 l 1,50,-1
 749 626 l 1,51,-1
 740 626 l 2,52,53
 727 626 727 626 713.5 625 c 128,-1,54
 700 624 700 624 690.5 622 c 128,-1,55
 681 620 681 620 681 617 c 2,56,-1
 681 0 l 1,57,-1
 485 0 l 1,58,-1
 485 617 l 2,59,60
 485 620 485 620 475.5 622 c 128,-1,61
 466 624 466 624 452.5 625 c 128,-1,62
 439 626 439 626 426 626 c 2,63,-1
 417 626 l 1,64,-1
 417 710 l 1,49,-1
EndSplineSet
EndChar

StartChar: Hardcyr
Encoding: 1066 1066 296
Width: 827
GlyphClass: 2
Flags: W
AnchorPoint: "Anchor-0" 290 741 basechar 0
LayerCount: 2
Fore
SplineSet
527 0 m 2,0,-1
 169 0 l 1,1,-1
 169 84 l 1,2,-1
 179 84 l 2,3,4
 202 84 202 84 219 91 c 128,-1,5
 236 98 236 98 236 120 c 2,6,-1
 236 616 l 1,7,-1
 222 616 l 2,8,9
 187 616 187 616 169 612.5 c 128,-1,10
 151 609 151 609 144 599.5 c 128,-1,11
 137 590 137 590 134 570 c 2,12,-1
 124 484 l 1,13,-1
 29 484 l 1,14,-1
 29 710 l 1,15,-1
 508 710 l 1,16,-1
 508 626 l 1,17,-1
 488 626 l 2,18,19
 476 626 476 626 463 625 c 128,-1,20
 450 624 450 624 441 622 c 128,-1,21
 432 620 432 620 432 616 c 2,22,-1
 432 95 l 1,23,-1
 488 95 l 2,24,25
 529 95 529 95 557 109.5 c 128,-1,26
 585 124 585 124 599 153.5 c 128,-1,27
 613 183 613 183 613 225 c 0,28,29
 613 268 613 268 599 296 c 128,-1,30
 585 324 585 324 558 337.5 c 128,-1,31
 531 351 531 351 492 351 c 2,32,-1
 383 351 l 1,33,-1
 383 446 l 1,34,-1
 532 446 l 2,35,36
 619 446 619 446 680.5 420.5 c 128,-1,37
 742 395 742 395 774.5 346.5 c 128,-1,38
 807 298 807 298 807 228 c 256,39,40
 807 158 807 158 773 107 c 128,-1,41
 739 56 739 56 676.5 28 c 128,-1,42
 614 0 614 0 527 0 c 2,0,-1
EndSplineSet
EndChar

StartChar: Ylongcyr
Encoding: 1067 1067 297
Width: 1041
GlyphClass: 2
Flags: W
AnchorPoint: "Anchor-1" 511 0 basechar 0
AnchorPoint: "Anchor-0" 511 741 basechar 0
LayerCount: 2
Fore
SplineSet
748 94 m 2,0,-1
 748 617 l 2,1,2
 748 620 748 620 738.5 622 c 128,-1,3
 729 624 729 624 715 625 c 128,-1,4
 701 626 701 626 688 626 c 2,5,-1
 679 626 l 1,6,-1
 679 710 l 1,7,-1
 1010 710 l 1,8,-1
 1010 626 l 1,9,-1
 1000 626 l 2,10,11
 975 626 975 626 959.5 619 c 128,-1,12
 944 612 944 612 944 590 c 2,13,-1
 944 120 l 2,14,15
 944 98 944 98 959.5 91 c 128,-1,16
 975 84 975 84 1000 84 c 2,17,-1
 1010 84 l 1,18,-1
 1010 0 l 1,19,-1
 679 0 l 1,20,-1
 679 84 l 1,21,-1
 688 84 l 2,22,23
 701 84 701 84 715 85 c 128,-1,24
 729 86 729 86 738.5 88.5 c 128,-1,25
 748 91 748 91 748 94 c 2,0,-1
388 0 m 2,26,-1
 30 0 l 1,27,-1
 30 84 l 1,28,-1
 40 84 l 2,29,30
 64 84 64 84 80.5 91 c 128,-1,31
 97 98 97 98 97 120 c 2,32,-1
 97 590 l 2,33,34
 97 612 97 612 80.5 619 c 128,-1,35
 64 626 64 626 40 626 c 2,36,-1
 30 626 l 1,37,-1
 30 710 l 1,38,-1
 370 710 l 1,39,-1
 370 626 l 1,40,-1
 350 626 l 2,41,42
 337 626 337 626 323.5 625 c 128,-1,43
 310 624 310 624 301.5 622 c 128,-1,44
 293 620 293 620 293 616 c 2,45,-1
 293 95 l 1,46,-1
 349 95 l 2,47,48
 390 95 390 95 417.5 110 c 128,-1,49
 445 125 445 125 459.5 153.5 c 128,-1,50
 474 182 474 182 474 225 c 256,51,52
 474 268 474 268 460 296 c 128,-1,53
 446 324 446 324 419 337.5 c 128,-1,54
 392 351 392 351 353 351 c 2,55,-1
 260 351 l 1,56,-1
 260 446 l 1,57,-1
 393 446 l 2,58,59
 481 446 481 446 542.5 420.5 c 128,-1,60
 604 395 604 395 636.5 346.5 c 128,-1,61
 669 298 669 298 669 228 c 256,62,63
 669 158 669 158 635 107 c 128,-1,64
 601 56 601 56 538 28 c 128,-1,65
 475 0 475 0 388 0 c 2,26,-1
EndSplineSet
EndChar

StartChar: Softcyr
Encoding: 1068 1068 298
Width: 688
GlyphClass: 2
Flags: W
AnchorPoint: "Anchor-0" 200 741 basechar 0
LayerCount: 2
Fore
SplineSet
388 0 m 2,0,-1
 30 0 l 1,1,-1
 30 84 l 1,2,-1
 40 84 l 2,3,4
 64 84 64 84 80.5 91 c 128,-1,5
 97 98 97 98 97 120 c 2,6,-1
 97 590 l 2,7,8
 97 612 97 612 80.5 619 c 128,-1,9
 64 626 64 626 40 626 c 2,10,-1
 30 626 l 1,11,-1
 30 710 l 1,12,-1
 370 710 l 1,13,-1
 370 626 l 1,14,-1
 350 626 l 2,15,16
 337 626 337 626 324 625 c 128,-1,17
 311 624 311 624 302 622 c 128,-1,18
 293 620 293 620 293 616 c 2,19,-1
 293 95 l 1,20,-1
 349 95 l 2,21,22
 390 95 390 95 417.5 110 c 128,-1,23
 445 125 445 125 459.5 154 c 128,-1,24
 474 183 474 183 474 225 c 0,25,26
 474 268 474 268 460 296 c 128,-1,27
 446 324 446 324 419 337.5 c 128,-1,28
 392 351 392 351 353 351 c 2,29,-1
 260 351 l 1,30,-1
 260 446 l 1,31,-1
 393 446 l 2,32,33
 481 446 481 446 542.5 420.5 c 128,-1,34
 604 395 604 395 636.5 346.5 c 128,-1,35
 669 298 669 298 669 228 c 256,36,37
 669 158 669 158 635 107 c 128,-1,38
 601 56 601 56 538 28 c 128,-1,39
 475 0 475 0 388 0 c 2,0,-1
EndSplineSet
EndChar

StartChar: Ereversedcyr
Encoding: 1069 1069 299
Width: 716
GlyphClass: 2
Flags: W
AnchorPoint: "Anchor-1" 344 0 basechar 0
AnchorPoint: "Anchor-0" 344 741 basechar 0
LayerCount: 2
Fore
SplineSet
504 403 m 1,0,-1
 504 323 l 1,1,2
 469 322 469 322 434.5 320 c 128,-1,3
 400 318 400 318 366.5 316 c 128,-1,4
 333 314 333 314 300 311.5 c 128,-1,5
 267 309 267 309 235 305 c 1,6,-1
 235 421 l 1,7,8
 267 418 267 418 300 415.5 c 128,-1,9
 333 413 333 413 366.5 411 c 128,-1,10
 400 409 400 409 434.5 407 c 128,-1,11
 469 405 469 405 504 403 c 1,0,-1
337 -10 m 0,12,13
 266 -10 266 -10 219.5 13.5 c 128,-1,14
 173 37 173 37 144.5 78 c 128,-1,15
 116 119 116 119 101 172 c 1,16,-1
 160 161 l 1,17,-1
 141 0 l 1,18,-1
 55 0 l 1,19,-1
 55 221 l 1,20,-1
 152 221 l 1,21,22
 165 183 165 183 185 153.5 c 128,-1,23
 205 124 205 124 235.5 106.5 c 128,-1,24
 266 89 266 89 310 89 c 0,25,26
 349 89 349 89 380.5 107.5 c 128,-1,27
 412 126 412 126 433.5 160.5 c 128,-1,28
 455 195 455 195 465.5 244 c 128,-1,29
 476 293 476 293 476 355 c 0,30,31
 476 418 476 418 465.5 467.5 c 128,-1,32
 455 517 455 517 433.5 551 c 128,-1,33
 412 585 412 585 381.5 603 c 128,-1,34
 351 621 351 621 311 621 c 0,35,36
 267 621 267 621 236.5 604 c 128,-1,37
 206 587 206 587 186.5 557.5 c 128,-1,38
 167 528 167 528 154 489 c 1,39,-1
 57 489 l 1,40,-1
 57 710 l 1,41,-1
 143 710 l 1,42,-1
 162 549 l 1,43,-1
 106 538 l 1,44,45
 121 591 121 591 148.5 632 c 128,-1,46
 176 673 176 673 222 696.5 c 128,-1,47
 268 720 268 720 337 720 c 0,48,49
 413 720 413 720 475.5 694.5 c 128,-1,50
 538 669 538 669 584.5 621.5 c 128,-1,51
 631 574 631 574 656 506.5 c 128,-1,52
 681 439 681 439 681 355 c 0,53,54
 681 274 681 274 654 207 c 128,-1,55
 627 140 627 140 579.5 91.5 c 128,-1,56
 532 43 532 43 469.5 16.5 c 128,-1,57
 407 -10 407 -10 337 -10 c 0,12,13
EndSplineSet
Substitution2: "'ss01' Style Set 1 lookup 61 subtable" Ecyr.alt1
EndChar

StartChar: Yucyr
Encoding: 1070 1070 300
Width: 1140
GlyphClass: 2
Flags: W
AnchorPoint: "Anchor-1" 593 0 basechar 0
AnchorPoint: "Anchor-0" 593 741 basechar 0
LayerCount: 2
Fore
SplineSet
188 413 m 1,0,-1
 526 413 l 1,1,-1
 526 319 l 1,2,-1
 188 319 l 1,3,-1
 188 413 l 1,0,-1
30 0 m 1,4,-1
 30 84 l 1,5,-1
 40 84 l 2,6,7
 64 84 64 84 80.5 91 c 128,-1,8
 97 98 97 98 97 120 c 2,9,-1
 97 590 l 2,10,11
 97 612 97 612 80.5 619 c 128,-1,12
 64 626 64 626 40 626 c 2,13,-1
 30 626 l 1,14,-1
 30 710 l 1,15,-1
 362 710 l 1,16,-1
 362 626 l 1,17,-1
 353 626 l 2,18,19
 343 626 343 626 332.5 625.5 c 128,-1,20
 322 625 322 625 313 623.5 c 128,-1,21
 304 622 304 622 298.5 620.5 c 128,-1,22
 293 619 293 619 293 616 c 2,23,-1
 293 93 l 2,24,25
 293 91 293 91 298.5 89.5 c 128,-1,26
 304 88 304 88 313 86.5 c 128,-1,27
 322 85 322 85 332.5 84.5 c 128,-1,28
 343 84 343 84 353 84 c 2,29,-1
 362 84 l 1,30,-1
 362 0 l 1,31,-1
 30 0 l 1,4,-1
746 -10 m 256,32,33
 668 -10 668 -10 602.5 16 c 128,-1,34
 537 42 537 42 488.5 90 c 128,-1,35
 440 138 440 138 413.5 205 c 128,-1,36
 387 272 387 272 387 355 c 0,37,38
 387 437 387 437 413.5 504 c 128,-1,39
 440 571 440 571 488.5 619.5 c 128,-1,40
 537 668 537 668 602.5 694 c 128,-1,41
 668 720 668 720 746 720 c 256,42,43
 824 720 824 720 889.5 694 c 128,-1,44
 955 668 955 668 1003.5 619.5 c 128,-1,45
 1052 571 1052 571 1078.5 504 c 128,-1,46
 1105 437 1105 437 1105 355 c 256,47,48
 1105 273 1105 273 1078.5 205.5 c 128,-1,49
 1052 138 1052 138 1003.5 90 c 128,-1,50
 955 42 955 42 889.5 16 c 128,-1,51
 824 -10 824 -10 746 -10 c 256,32,33
746 88 m 256,52,53
 781 88 781 88 809.5 105 c 128,-1,54
 838 122 838 122 858 155.5 c 128,-1,55
 878 189 878 189 889 239 c 128,-1,56
 900 289 900 289 900 355 c 256,57,58
 900 421 900 421 889 470.5 c 128,-1,59
 878 520 878 520 858 553.5 c 128,-1,60
 838 587 838 587 809.5 604.5 c 128,-1,61
 781 622 781 622 746 622 c 0,62,63
 710 622 710 622 682 604.5 c 128,-1,64
 654 587 654 587 633.5 553.5 c 128,-1,65
 613 520 613 520 602 470.5 c 128,-1,66
 591 421 591 421 591 355 c 256,67,68
 591 289 591 289 602 239 c 128,-1,69
 613 189 613 189 633.5 155.5 c 128,-1,70
 654 122 654 122 682.5 105 c 128,-1,71
 711 88 711 88 746 88 c 256,52,53
EndSplineSet
EndChar

StartChar: Yacyr
Encoding: 1071 1071 301
Width: 740
GlyphClass: 2
Flags: W
AnchorPoint: "Anchor-1" 370 0 basechar 0
AnchorPoint: "Anchor-0" 407 741 basechar 0
LayerCount: 2
Fore
SplineSet
380 313 m 1,0,-1
 231 0 l 1,1,-1
 20 0 l 1,2,-1
 20 84 l 1,3,-1
 27 84 l 2,4,5
 40 84 40 84 49.5 86 c 128,-1,6
 59 88 59 88 67 94 c 128,-1,7
 75 100 75 100 81 112 c 2,8,-1
 202 339 l 1,9,-1
 380 313 l 1,0,-1
447 94 m 2,10,-1
 447 617 l 1,11,-1
 381 617 l 2,12,13
 345 617 345 617 320.5 602.5 c 128,-1,14
 296 588 296 588 283.5 561 c 128,-1,15
 271 534 271 534 271 496 c 0,16,17
 271 457 271 457 283 429 c 128,-1,18
 295 401 295 401 321 386 c 128,-1,19
 347 371 347 371 386 371 c 2,20,-1
 479 371 l 1,21,-1
 479 279 l 1,22,-1
 343 279 l 1,23,-1
 326 282 l 1,24,25
 245 287 245 287 188 313.5 c 128,-1,26
 131 340 131 340 101.5 386.5 c 128,-1,27
 72 433 72 433 72 496 c 0,28,29
 72 561 72 561 104 609 c 128,-1,30
 136 657 136 657 197.5 683.5 c 128,-1,31
 259 710 259 710 347 710 c 2,32,-1
 710 710 l 1,33,-1
 710 626 l 1,34,-1
 700 626 l 2,35,36
 677 626 677 626 660 619 c 128,-1,37
 643 612 643 612 643 591 c 2,38,-1
 643 119 l 2,39,40
 643 98 643 98 659.5 91 c 128,-1,41
 676 84 676 84 700 84 c 2,42,-1
 710 84 l 1,43,-1
 710 0 l 1,44,-1
 384 0 l 1,45,-1
 384 84 l 1,46,-1
 394 84 l 2,47,48
 403 84 403 84 412.5 84.5 c 128,-1,49
 422 85 422 85 430 86.5 c 128,-1,50
 438 88 438 88 442.5 89.5 c 128,-1,51
 447 91 447 91 447 94 c 2,10,-1
EndSplineSet
EndChar

StartChar: Geupcyr
Encoding: 1168 1168 302
Width: 606
GlyphClass: 2
Flags: W
AnchorPoint: "Anchor-0" 285 741 basechar 0
LayerCount: 2
Fore
SplineSet
293 616 m 1,0,-1
 293 120 l 2,1,2
 293 103 293 103 304 95 c 128,-1,3
 315 87 315 87 331.5 85.5 c 128,-1,4
 348 84 348 84 363 84 c 2,5,-1
 382 84 l 1,6,-1
 382 0 l 1,7,-1
 30 0 l 1,8,-1
 30 84 l 1,9,-1
 40 84 l 2,10,11
 64 84 64 84 80.5 91 c 128,-1,12
 97 98 97 98 97 120 c 2,13,-1
 97 590 l 2,14,15
 97 612 97 612 80.5 619 c 128,-1,16
 64 626 64 626 40 626 c 2,17,-1
 30 626 l 1,18,-1
 30 710 l 1,19,-1
 371 710 l 2,20,21
 401 710 401 710 421 713.5 c 128,-1,22
 441 717 441 717 452 727.5 c 128,-1,23
 463 738 463 738 466 758 c 2,24,-1
 479 867 l 1,25,-1
 575 867 l 1,26,-1
 575 616 l 1,27,-1
 293 616 l 1,0,-1
EndSplineSet
EndChar

StartChar: Gestrokecyr
Encoding: 1170 1170 303
Width: 609
GlyphClass: 2
Flags: W
AnchorPoint: "Anchor-0" 310 741 basechar 0
LayerCount: 2
Fore
SplineSet
30 403 m 1,0,-1
 418 403 l 1,1,-1
 418 308 l 1,2,-1
 30 308 l 1,3,-1
 30 403 l 1,0,-1
293 615 m 1,4,-1
 293 120 l 2,5,6
 293 103 293 103 304 95 c 128,-1,7
 315 87 315 87 331.5 85.5 c 128,-1,8
 348 84 348 84 363 84 c 2,9,-1
 382 84 l 1,10,-1
 382 0 l 1,11,-1
 30 0 l 1,12,-1
 30 84 l 1,13,-1
 40 84 l 2,14,15
 64 84 64 84 80.5 91 c 128,-1,16
 97 98 97 98 97 120 c 2,17,-1
 97 590 l 2,18,19
 97 612 97 612 80.5 619 c 128,-1,20
 64 626 64 626 40 626 c 2,21,-1
 30 626 l 1,22,-1
 30 710 l 1,23,-1
 578 710 l 1,24,-1
 578 491 l 1,25,-1
 482 491 l 1,26,-1
 472 572 l 2,27,28
 470 590 470 590 458.5 599.5 c 128,-1,29
 447 609 447 609 426 612 c 128,-1,30
 405 615 405 615 372 615 c 2,31,-1
 293 615 l 1,4,-1
EndSplineSet
EndChar

StartChar: Zhetailcyr
Encoding: 1174 1174 304
Width: 1132
GlyphClass: 2
Flags: W
AnchorPoint: "Anchor-0" 556 741 basechar 0
LayerCount: 2
Fore
SplineSet
781 0 m 1,0,-1
 781 84 l 1,1,-1
 793 84 l 2,2,3
 804 84 804 84 815 85 c 128,-1,4
 826 86 826 86 833 88.5 c 128,-1,5
 840 91 840 91 840 94 c 2,6,-1
 685 338 l 1,7,-1
 685 362 l 1,8,-1
 897 617 l 2,9,10
 897 621 897 621 889 622.5 c 128,-1,11
 881 624 881 624 868.5 625 c 128,-1,12
 856 626 856 626 842 626 c 2,13,-1
 831 626 l 1,14,-1
 831 710 l 1,15,-1
 1079 710 l 1,16,-1
 1079 626 l 1,17,-1
 1065 626 l 2,18,19
 1050 626 1050 626 1038.5 623 c 128,-1,20
 1027 620 1027 620 1017 613 c 128,-1,21
 1007 606 1007 606 995 592 c 2,22,-1
 808 369 l 1,23,-1
 831 453 l 1,24,-1
 1055 94 l 1,25,-1
 1055 0 l 1,26,-1
 781 0 l 1,0,-1
340 0 m 1,27,-1
 15 0 l 1,28,-1
 15 84 l 1,29,-1
 27 84 l 2,30,31
 40 84 40 84 50.5 86.5 c 128,-1,32
 61 89 61 89 70 96 c 128,-1,33
 79 103 79 103 87 115 c 2,34,-1
 300 453 l 1,35,-1
 308 369 l 1,36,-1
 120 592 l 2,37,38
 109 606 109 606 99 613 c 128,-1,39
 89 620 89 620 77.5 623 c 128,-1,40
 66 626 66 626 51 626 c 2,41,-1
 37 626 l 1,42,-1
 37 710 l 1,43,-1
 289 710 l 1,44,-1
 289 626 l 1,45,-1
 279 626 l 2,46,47
 265 626 265 626 252.5 625 c 128,-1,48
 240 624 240 624 232 622.5 c 128,-1,49
 224 621 224 621 224 617 c 2,50,-1
 435 362 l 1,51,-1
 435 338 l 1,52,-1
 280 94 l 2,53,54
 280 91 280 91 287.5 88.5 c 128,-1,55
 295 86 295 86 306 85 c 128,-1,56
 317 84 317 84 327 84 c 2,57,-1
 340 84 l 1,58,-1
 340 0 l 1,27,-1
915 0 m 2,59,-1
 874 0 l 1,60,-1
 876 94 l 1,61,-1
 1126 94 l 1,62,-1
 1126 -157 l 1,63,-1
 1030 -157 l 1,64,-1
 1017 -48 l 2,65,66
 1014 -28 1014 -28 1003.5 -17.5 c 128,-1,67
 993 -7 993 -7 971.5 -3.5 c 128,-1,68
 950 0 950 0 915 0 c 2,59,-1
395 0 m 1,69,-1
 395 84 l 1,70,-1
 404 84 l 2,71,72
 414 84 414 84 424 84.5 c 128,-1,73
 434 85 434 85 443 86.5 c 128,-1,74
 452 88 452 88 457 89.5 c 128,-1,75
 462 91 462 91 462 94 c 2,76,-1
 462 616 l 2,77,78
 462 619 462 619 456.5 620.5 c 128,-1,79
 451 622 451 622 442 623.5 c 128,-1,80
 433 625 433 625 422.5 625.5 c 128,-1,81
 412 626 412 626 401 626 c 2,82,-1
 392 626 l 1,83,-1
 392 710 l 1,84,-1
 729 710 l 1,85,-1
 729 626 l 1,86,-1
 720 626 l 2,87,88
 709 626 709 626 698 625.5 c 128,-1,89
 687 625 687 625 678 623.5 c 128,-1,90
 669 622 669 622 663.5 620.5 c 128,-1,91
 658 619 658 619 658 616 c 2,92,-1
 658 94 l 2,93,94
 658 91 658 91 663.5 89.5 c 128,-1,95
 669 88 669 88 677.5 86.5 c 128,-1,96
 686 85 686 85 696.5 84.5 c 128,-1,97
 707 84 707 84 717 84 c 2,98,-1
 725 84 l 1,99,-1
 725 0 l 1,100,-1
 395 0 l 1,69,-1
EndSplineSet
EndChar

StartChar: Katailcyr
Encoding: 1178 1178 306
Width: 792
GlyphClass: 2
Flags: W
AnchorPoint: "Anchor-0" 404 741 basechar 0
LayerCount: 2
Fore
SplineSet
30 0 m 1,0,-1
 30 84 l 1,1,-1
 40 84 l 2,2,3
 64 84 64 84 80.5 91 c 128,-1,4
 97 98 97 98 97 119 c 2,5,-1
 97 591 l 2,6,7
 97 612 97 612 80.5 619 c 128,-1,8
 64 626 64 626 40 626 c 2,9,-1
 30 626 l 1,10,-1
 30 710 l 1,11,-1
 373 710 l 1,12,-1
 373 626 l 1,13,-1
 363 626 l 2,14,15
 351 626 351 626 338 625.5 c 128,-1,16
 325 625 325 625 315 623.5 c 128,-1,17
 305 622 305 622 299 620.5 c 128,-1,18
 293 619 293 619 293 616 c 2,19,-1
 293 94 l 2,20,21
 293 91 293 91 298 89.5 c 128,-1,22
 303 88 303 88 311 86.5 c 128,-1,23
 319 85 319 85 329 84.5 c 128,-1,24
 339 84 339 84 349 84 c 2,25,-1
 357 84 l 1,26,-1
 357 0 l 1,27,-1
 30 0 l 1,0,-1
431 0 m 1,28,-1
 431 84 l 1,29,-1
 444 84 l 2,30,31
 454 84 454 84 465 85 c 128,-1,32
 476 86 476 86 483.5 88.5 c 128,-1,33
 491 91 491 91 491 94 c 2,34,-1
 320 338 l 1,35,-1
 320 362 l 1,36,-1
 548 617 l 2,37,38
 548 621 548 621 540 622.5 c 128,-1,39
 532 624 532 624 519.5 625 c 128,-1,40
 507 626 507 626 494 626 c 2,41,-1
 483 626 l 1,42,-1
 483 710 l 1,43,-1
 732 710 l 1,44,-1
 732 626 l 1,45,-1
 718 626 l 2,46,47
 703 626 703 626 691.5 623 c 128,-1,48
 680 620 680 620 670 613 c 128,-1,49
 660 606 660 606 648 592 c 2,50,-1
 448 368 l 1,51,-1
 465 453 l 1,52,-1
 715 94 l 1,53,-1
 715 0 l 1,54,-1
 431 0 l 1,28,-1
575 0 m 2,55,-1
 533 0 l 1,56,-1
 535 94 l 1,57,-1
 785 94 l 1,58,-1
 785 -157 l 1,59,-1
 689 -157 l 1,60,-1
 676 -48 l 2,61,62
 673 -28 673 -28 662.5 -17.5 c 128,-1,63
 652 -7 652 -7 630.5 -3.5 c 128,-1,64
 609 0 609 0 575 0 c 2,55,-1
EndSplineSet
EndChar

StartChar: Kaverticalstrokecyr
Encoding: 1180 1180 307
Width: 869
GlyphClass: 2
Flags: W
AnchorPoint: "Anchor-0" 453 741 basechar 0
LayerCount: 2
Fore
SplineSet
345 164 m 1,0,-1
 345 537 l 1,1,-1
 440 537 l 1,2,-1
 440 164 l 1,3,-1
 345 164 l 1,0,-1
30 0 m 1,4,-1
 30 84 l 1,5,-1
 40 84 l 2,6,7
 64 84 64 84 80.5 91 c 128,-1,8
 97 98 97 98 97 119 c 2,9,-1
 97 591 l 2,10,11
 97 612 97 612 80.5 619 c 128,-1,12
 64 626 64 626 40 626 c 2,13,-1
 30 626 l 1,14,-1
 30 710 l 1,15,-1
 373 710 l 1,16,-1
 373 626 l 1,17,-1
 363 626 l 2,18,19
 351 626 351 626 338 625.5 c 128,-1,20
 325 625 325 625 315 623.5 c 128,-1,21
 305 622 305 622 299 620.5 c 128,-1,22
 293 619 293 619 293 616 c 2,23,-1
 293 94 l 2,24,25
 293 91 293 91 298 89.5 c 128,-1,26
 303 88 303 88 311 86.5 c 128,-1,27
 319 85 319 85 329 84.5 c 128,-1,28
 339 84 339 84 349 84 c 2,29,-1
 357 84 l 1,30,-1
 357 0 l 1,31,-1
 30 0 l 1,4,-1
527 0 m 1,32,-1
 527 84 l 1,33,-1
 541 84 l 2,34,35
 552 84 552 84 563 85 c 128,-1,36
 574 86 574 86 580.5 88.5 c 128,-1,37
 587 91 587 91 587 94 c 2,38,-1
 461 338 l 1,39,-1
 461 362 l 1,40,-1
 647 617 l 2,41,42
 647 621 647 621 639 622.5 c 128,-1,43
 631 624 631 624 617.5 625 c 128,-1,44
 604 626 604 626 589 626 c 2,45,-1
 579 626 l 1,46,-1
 579 710 l 1,47,-1
 824 710 l 1,48,-1
 824 626 l 1,49,-1
 810 626 l 2,50,51
 789 626 789 626 774.5 619.5 c 128,-1,52
 760 613 760 613 745 592 c 2,53,-1
 583 368 l 1,54,-1
 609 456 l 1,55,-1
 782 115 l 2,56,57
 790 102 790 102 800 95.5 c 128,-1,58
 810 89 810 89 822.5 86.5 c 128,-1,59
 835 84 835 84 848 84 c 2,60,-1
 860 84 l 1,61,-1
 860 0 l 1,62,-1
 527 0 l 1,32,-1
EndSplineSet
EndChar

StartChar: Kabashkcyr
Encoding: 1184 1184 308
Width: 933
GlyphClass: 2
Flags: W
AnchorPoint: "Anchor-0" 550 741 basechar 0
LayerCount: 2
Fore
SplineSet
578 0 m 1,0,-1
 578 84 l 1,1,-1
 591 84 l 2,2,3
 602 84 602 84 613 85 c 128,-1,4
 624 86 624 86 631 88.5 c 128,-1,5
 638 91 638 91 638 94 c 2,6,-1
 468 338 l 1,7,-1
 468 362 l 1,8,-1
 695 617 l 2,9,10
 695 621 695 621 687.5 622.5 c 128,-1,11
 680 624 680 624 667.5 625 c 128,-1,12
 655 626 655 626 641 626 c 2,13,-1
 631 626 l 1,14,-1
 631 710 l 1,15,-1
 880 710 l 1,16,-1
 880 626 l 1,17,-1
 866 626 l 2,18,19
 850 626 850 626 838.5 623 c 128,-1,20
 827 620 827 620 817.5 613 c 128,-1,21
 808 606 808 606 796 592 c 2,22,-1
 595 368 l 1,23,-1
 613 453 l 1,24,-1
 847 115 l 2,25,26
 856 103 856 103 864.5 96.5 c 128,-1,27
 873 90 873 90 883 87 c 128,-1,28
 893 84 893 84 905 84 c 2,29,-1
 917 84 l 1,30,-1
 917 0 l 1,31,-1
 578 0 l 1,0,-1
178 0 m 1,32,-1
 178 84 l 1,33,-1
 188 84 l 2,34,35
 212 84 212 84 228.5 91 c 128,-1,36
 245 98 245 98 245 119 c 2,37,-1
 245 616 l 1,38,-1
 222 616 l 2,39,40
 187 616 187 616 169 612.5 c 128,-1,41
 151 609 151 609 144 599.5 c 128,-1,42
 137 590 137 590 134 570 c 2,43,-1
 124 484 l 1,44,-1
 29 484 l 1,45,-1
 29 710 l 1,46,-1
 521 710 l 1,47,-1
 521 626 l 1,48,-1
 510 626 l 2,49,50
 494 626 494 626 478 625 c 128,-1,51
 462 624 462 624 451.5 622 c 128,-1,52
 441 620 441 620 441 616 c 2,53,-1
 441 94 l 2,54,55
 441 91 441 91 449.5 88.5 c 128,-1,56
 458 86 458 86 471 85 c 128,-1,57
 484 84 484 84 497 84 c 2,58,-1
 505 84 l 1,59,-1
 505 0 l 1,60,-1
 178 0 l 1,32,-1
EndSplineSet
EndChar

StartChar: Entailcyr
Encoding: 1186 1186 309
Width: 833
GlyphClass: 2
Flags: W
AnchorPoint: "Anchor-0" 417 741 basechar 0
LayerCount: 2
Fore
SplineSet
188 413 m 1,0,-1
 611 413 l 1,1,-1
 611 319 l 1,2,-1
 188 319 l 1,3,-1
 188 413 l 1,0,-1
30 0 m 1,4,-1
 30 84 l 1,5,-1
 40 84 l 2,6,7
 64 84 64 84 80.5 91 c 128,-1,8
 97 98 97 98 97 120 c 2,9,-1
 97 590 l 2,10,11
 97 612 97 612 80.5 619 c 128,-1,12
 64 626 64 626 40 626 c 2,13,-1
 30 626 l 1,14,-1
 30 710 l 1,15,-1
 362 710 l 1,16,-1
 362 626 l 1,17,-1
 353 626 l 2,18,19
 343 626 343 626 332.5 625.5 c 128,-1,20
 322 625 322 625 313 623.5 c 128,-1,21
 304 622 304 622 298.5 620.5 c 128,-1,22
 293 619 293 619 293 616 c 2,23,-1
 293 93 l 2,24,25
 293 91 293 91 298.5 89.5 c 128,-1,26
 304 88 304 88 313 86.5 c 128,-1,27
 322 85 322 85 332.5 84.5 c 128,-1,28
 343 84 343 84 353 84 c 2,29,-1
 362 84 l 1,30,-1
 362 0 l 1,31,-1
 30 0 l 1,4,-1
461 0 m 1,32,-1
 461 84 l 1,33,-1
 469 84 l 2,34,35
 480 84 480 84 490.5 84.5 c 128,-1,36
 501 85 501 85 510 86.5 c 128,-1,37
 519 88 519 88 524.5 89.5 c 128,-1,38
 530 91 530 91 530 94 c 2,39,-1
 530 617 l 2,40,41
 530 619 530 619 524.5 620.5 c 128,-1,42
 519 622 519 622 510 623.5 c 128,-1,43
 501 625 501 625 490.5 625.5 c 128,-1,44
 480 626 480 626 469 626 c 2,45,-1
 461 626 l 1,46,-1
 461 710 l 1,47,-1
 792 710 l 1,48,-1
 792 626 l 1,49,-1
 782 626 l 2,50,51
 759 626 759 626 742.5 619 c 128,-1,52
 726 612 726 612 726 590 c 2,53,-1
 726 0 l 1,54,-1
 461 0 l 1,32,-1
604 0 m 2,55,-1
 558 0 l 1,56,-1
 559 94 l 1,57,-1
 815 94 l 1,58,-1
 815 -157 l 1,59,-1
 718 -157 l 1,60,-1
 705 -48 l 2,61,62
 703 -28 703 -28 692 -17.5 c 128,-1,63
 681 -7 681 -7 660 -3.5 c 128,-1,64
 639 0 639 0 604 0 c 2,55,-1
EndSplineSet
EndChar

StartChar: Tetailcyr
Encoding: 1196 1196 311
Width: 712
GlyphClass: 2
Flags: W
AnchorPoint: "Anchor-0" 349 741 basechar 0
LayerCount: 2
Fore
SplineSet
258 119 m 2,0,-1
 258 616 l 1,1,-1
 211 616 l 2,2,3
 183 616 183 616 166.5 612.5 c 128,-1,4
 150 609 150 609 142.5 599.5 c 128,-1,5
 135 590 135 590 132 570 c 2,6,-1
 122 484 l 1,7,-1
 29 484 l 1,8,-1
 29 710 l 1,9,-1
 683 710 l 1,10,-1
 683 484 l 1,11,-1
 589 484 l 1,12,-1
 580 570 l 2,13,14
 578 590 578 590 570 599.5 c 128,-1,15
 562 609 562 609 545.5 612.5 c 128,-1,16
 529 616 529 616 500 616 c 2,17,-1
 454 616 l 1,18,-1
 454 0 l 1,19,-1
 186 0 l 1,20,-1
 186 84 l 1,21,-1
 201 84 l 2,22,23
 225 84 225 84 241.5 91 c 128,-1,24
 258 98 258 98 258 119 c 2,0,-1
337 0 m 2,25,-1
 292 0 l 1,26,-1
 292 94 l 1,27,-1
 548 94 l 1,28,-1
 548 -157 l 1,29,-1
 452 -157 l 1,30,-1
 438 -48 l 2,31,32
 436 -28 436 -28 425 -17.5 c 128,-1,33
 414 -7 414 -7 393 -3.5 c 128,-1,34
 372 0 372 0 337 0 c 2,25,-1
EndSplineSet
EndChar

StartChar: Ustraightstrokecyr
Encoding: 1200 1200 313
Width: 688
GlyphClass: 2
Flags: W
AnchorPoint: "Anchor-1" 344 0 basechar 0
AnchorPoint: "Anchor-0" 345 741 basechar 0
LayerCount: 2
Fore
SplineSet
127 303 m 1,0,-1
 566 303 l 1,1,-1
 566 211 l 1,2,-1
 127 211 l 1,3,-1
 127 303 l 1,0,-1
248 331 m 1,4,-1
 258 288 l 1,5,-1
 68 600 l 2,6,7
 61 612 61 612 53 617 c 128,-1,8
 45 622 45 622 35.5 624 c 128,-1,9
 26 626 26 626 16 626 c 2,10,-1
 10 626 l 1,11,-1
 10 710 l 1,12,-1
 333 710 l 1,13,-1
 333 626 l 1,14,-1
 314 626 l 2,15,16
 304 626 304 626 292 625 c 128,-1,17
 280 624 280 624 271.5 622 c 128,-1,18
 263 620 263 620 263 616 c 2,19,-1
 419 354 l 1,20,-1
 372 352 l 1,21,-1
 525 610 l 2,22,23
 525 615 525 615 518.5 619 c 128,-1,24
 512 623 512 623 502 624.5 c 128,-1,25
 492 626 492 626 479 626 c 2,26,-1
 459 626 l 1,27,-1
 459 710 l 1,28,-1
 678 710 l 1,29,-1
 678 626 l 1,30,-1
 673 626 l 2,31,32
 666 626 666 626 656 623 c 128,-1,33
 646 620 646 620 635.5 611 c 128,-1,34
 625 602 625 602 614 585 c 2,35,-1
 435 289 l 1,36,-1
 444 332 l 1,37,-1
 444 119 l 2,38,39
 444 97 444 97 460.5 90.5 c 128,-1,40
 477 84 477 84 502 84 c 2,41,-1
 516 84 l 1,42,-1
 516 0 l 1,43,-1
 176 0 l 1,44,-1
 176 84 l 1,45,-1
 191 84 l 2,46,47
 215 84 215 84 231.5 90.5 c 128,-1,48
 248 97 248 97 248 119 c 2,49,-1
 248 331 l 1,4,-1
EndSplineSet
EndChar

StartChar: Xatailcyr
Encoding: 1202 1202 314
Width: 739
GlyphClass: 2
Flags: W
AnchorPoint: "Anchor-0" 377 741 basechar 0
LayerCount: 2
Fore
SplineSet
26 626 m 1,0,-1
 26 710 l 1,1,-1
 365 710 l 1,2,-1
 365 626 l 1,3,-1
 343 626 l 2,4,5
 331 626 331 626 321 624.5 c 128,-1,6
 311 623 311 623 306 620.5 c 128,-1,7
 301 618 301 618 302 613 c 2,8,-1
 434 407 l 1,9,-1
 448 404 l 1,10,-1
 656 94 l 1,11,-1
 656 0 l 1,12,-1
 367 0 l 1,13,-1
 367 84 l 1,14,-1
 385 84 l 2,15,16
 397 84 397 84 408.5 85 c 128,-1,17
 420 86 420 86 427 88.5 c 128,-1,18
 434 91 434 91 434 94 c 2,19,-1
 281 327 l 1,20,-1
 267 331 l 1,21,-1
 95 594 l 2,22,23
 81 615 81 615 67.5 620.5 c 128,-1,24
 54 626 54 626 35 626 c 2,25,-1
 26 626 l 1,0,-1
15 0 m 1,26,-1
 15 84 l 1,27,-1
 28 84 l 2,28,29
 44 84 44 84 57.5 92.5 c 128,-1,30
 71 101 71 101 89 127 c 2,31,-1
 269 389 l 1,32,-1
 350 347 l 1,33,-1
 181 99 l 2,34,35
 181 94 181 94 187 90.5 c 128,-1,36
 193 87 193 87 203 85.5 c 128,-1,37
 213 84 213 84 222 84 c 2,38,-1
 243 84 l 1,39,-1
 243 0 l 1,40,-1
 15 0 l 1,26,-1
457 342 m 1,41,-1
 388 399 l 1,42,-1
 529 607 l 2,43,44
 531 614 531 614 525 618 c 128,-1,45
 519 622 519 622 509 624 c 128,-1,46
 499 626 499 626 487 626 c 2,47,-1
 467 626 l 1,48,-1
 467 710 l 1,49,-1
 691 710 l 1,50,-1
 691 626 l 1,51,-1
 683 626 l 2,52,53
 666 626 666 626 652 618 c 128,-1,54
 638 610 638 610 624 589 c 2,55,-1
 457 342 l 1,41,-1
520 0 m 2,56,-1
 478 0 l 1,57,-1
 480 94 l 1,58,-1
 731 94 l 1,59,-1
 731 -157 l 1,60,-1
 635 -157 l 1,61,-1
 621 -48 l 2,62,63
 619 -28 619 -28 608 -17.5 c 128,-1,64
 597 -7 597 -7 576 -3.5 c 128,-1,65
 555 0 555 0 520 0 c 2,56,-1
EndSplineSet
EndChar

StartChar: Chetailcyr
Encoding: 1206 1206 315
Width: 803
GlyphClass: 2
Flags: W
AnchorPoint: "Anchor-0" 394 741 basechar 0
LayerCount: 2
Fore
SplineSet
327 263 m 0,0,1
 248 263 248 263 194 284.5 c 128,-1,2
 140 306 140 306 113.5 354 c 128,-1,3
 87 402 87 402 87 482 c 2,4,-1
 87 590 l 2,5,6
 87 612 87 612 70 619 c 128,-1,7
 53 626 53 626 30 626 c 2,8,-1
 20 626 l 1,9,-1
 20 710 l 1,10,-1
 351 710 l 1,11,-1
 351 626 l 1,12,-1
 343 626 l 2,13,14
 330 626 330 626 316 625 c 128,-1,15
 302 624 302 624 292.5 622 c 128,-1,16
 283 620 283 620 283 616 c 2,17,-1
 283 489 l 2,18,19
 283 441 283 441 293.5 412 c 128,-1,20
 304 383 304 383 328 370.5 c 128,-1,21
 352 358 352 358 393 358 c 0,22,23
 430 358 430 358 464.5 365.5 c 128,-1,24
 499 373 499 373 532 391 c 1,25,-1
 532 302 l 1,26,27
 494 285 494 285 440.5 274 c 128,-1,28
 387 263 387 263 327 263 c 0,0,1
427 0 m 1,29,-1
 427 84 l 1,30,-1
 439 84 l 2,31,32
 452 84 452 84 466 85 c 128,-1,33
 480 86 480 86 489.5 88.5 c 128,-1,34
 499 91 499 91 499 94 c 2,35,-1
 499 616 l 2,36,37
 499 620 499 620 489.5 622 c 128,-1,38
 480 624 480 624 466 625 c 128,-1,39
 452 626 452 626 439 626 c 2,40,-1
 430 626 l 1,41,-1
 430 710 l 1,42,-1
 762 710 l 1,43,-1
 762 626 l 1,44,-1
 752 626 l 2,45,46
 729 626 729 626 712 619 c 128,-1,47
 695 612 695 612 695 590 c 2,48,-1
 695 0 l 1,49,-1
 427 0 l 1,29,-1
573 0 m 2,50,-1
 528 0 l 1,51,-1
 528 94 l 1,52,-1
 784 94 l 1,53,-1
 784 -157 l 1,54,-1
 688 -157 l 1,55,-1
 675 -48 l 2,56,57
 672 -28 672 -28 661.5 -17.5 c 128,-1,58
 651 -7 651 -7 629.5 -3.5 c 128,-1,59
 608 0 608 0 573 0 c 2,50,-1
EndSplineSet
EndChar

StartChar: Chevertcyr
Encoding: 1208 1208 316
Width: 836
GlyphClass: 2
Flags: W
AnchorPoint: "Anchor-0" 410 741 basechar 0
LayerCount: 2
Fore
SplineSet
471 0 m 1,0,-1
 471 84 l 1,1,-1
 482 84 l 2,2,3
 496 84 496 84 509.5 85 c 128,-1,4
 523 86 523 86 533 88.5 c 128,-1,5
 543 91 543 91 543 94 c 2,6,-1
 543 616 l 2,7,8
 543 620 543 620 533 622 c 128,-1,9
 523 624 523 624 509.5 625 c 128,-1,10
 496 626 496 626 482 626 c 2,11,-1
 474 626 l 1,12,-1
 474 710 l 1,13,-1
 805 710 l 1,14,-1
 805 626 l 1,15,-1
 795 626 l 2,16,17
 772 626 772 626 755.5 619 c 128,-1,18
 739 612 739 612 739 590 c 2,19,-1
 739 120 l 2,20,21
 739 98 739 98 755.5 91 c 128,-1,22
 772 84 772 84 795 84 c 2,23,-1
 805 84 l 1,24,-1
 805 0 l 1,25,-1
 471 0 l 1,0,-1
338 263 m 0,26,27
 254 263 254 263 198.5 284.5 c 128,-1,28
 143 306 143 306 115 354.5 c 128,-1,29
 87 403 87 403 87 484 c 2,30,-1
 87 590 l 2,31,32
 87 612 87 612 70 619 c 128,-1,33
 53 626 53 626 30 626 c 2,34,-1
 20 626 l 1,35,-1
 20 710 l 1,36,-1
 351 710 l 1,37,-1
 351 626 l 1,38,-1
 343 626 l 2,39,40
 330 626 330 626 316 625 c 128,-1,41
 302 624 302 624 292.5 622 c 128,-1,42
 283 620 283 620 283 616 c 2,43,-1
 283 491 l 2,44,45
 283 442 283 442 295.5 413 c 128,-1,46
 308 384 308 384 335.5 371 c 128,-1,47
 363 358 363 358 409 358 c 0,48,49
 451 358 451 358 489 365 c 128,-1,50
 527 372 527 372 564 391 c 1,51,-1
 564 302 l 1,52,53
 523 283 523 283 466 273 c 128,-1,54
 409 263 409 263 338 263 c 0,26,27
367 156 m 1,55,-1
 367 529 l 1,56,-1
 462 529 l 1,57,-1
 462 156 l 1,58,-1
 367 156 l 1,55,-1
EndSplineSet
EndChar

StartChar: Shhacyr
Encoding: 1210 1210 317
Width: 790
GlyphClass: 1
Flags: W
LayerCount: 2
Fore
SplineSet
365 710 m 1,0,-1
 365 626 l 1,1,-1
 353 626 l 2,2,3
 340 626 340 626 326 625 c 128,-1,4
 312 624 312 624 302.5 622 c 128,-1,5
 293 620 293 620 293 616 c 2,6,-1
 293 93 l 2,7,8
 293 91 293 91 302.5 88.5 c 128,-1,9
 312 86 312 86 326 85 c 128,-1,10
 340 84 340 84 353 84 c 2,11,-1
 362 84 l 1,12,-1
 362 0 l 1,13,-1
 30 0 l 1,14,-1
 30 84 l 1,15,-1
 40 84 l 2,16,17
 64 84 64 84 80.5 91 c 128,-1,18
 97 98 97 98 97 120 c 2,19,-1
 97 590 l 2,20,21
 97 612 97 612 80.5 619 c 128,-1,22
 64 626 64 626 40 626 c 2,23,-1
 30 626 l 1,24,-1
 30 710 l 1,25,-1
 365 710 l 1,0,-1
465 447 m 0,26,27
 545 447 545 447 598.5 426 c 128,-1,28
 652 405 652 405 678.5 357 c 128,-1,29
 705 309 705 309 705 229 c 2,30,-1
 705 119 l 2,31,32
 705 98 705 98 722 91 c 128,-1,33
 739 84 739 84 762 84 c 2,34,-1
 772 84 l 1,35,-1
 772 0 l 1,36,-1
 441 0 l 1,37,-1
 441 84 l 1,38,-1
 449 84 l 2,39,40
 462 84 462 84 476 85 c 128,-1,41
 490 86 490 86 499.5 88.5 c 128,-1,42
 509 91 509 91 509 94 c 2,43,-1
 509 222 l 2,44,45
 509 270 509 270 498.5 298.5 c 128,-1,46
 488 327 488 327 464 339.5 c 128,-1,47
 440 352 440 352 399 352 c 0,48,49
 362 352 362 352 327.5 344.5 c 128,-1,50
 293 337 293 337 260 319 c 1,51,-1
 260 408 l 1,52,53
 298 426 298 426 351.5 436.5 c 128,-1,54
 405 447 405 447 465 447 c 0,26,27
EndSplineSet
EndChar

StartChar: Obarcyr
Encoding: 1256 1256 320
Width: 805
GlyphClass: 2
Flags: W
AnchorPoint: "Anchor-1" 395 0 basechar 0
AnchorPoint: "Anchor-0" 395 741 basechar 0
LayerCount: 2
Fore
SplineSet
145 413 m 1,0,-1
 641 413 l 1,1,-1
 641 319 l 1,2,-1
 145 319 l 1,3,-1
 145 413 l 1,0,-1
402 -10 m 256,4,5
 322 -10 322 -10 255 16 c 128,-1,6
 188 42 188 42 138.5 90 c 128,-1,7
 89 138 89 138 62 205.5 c 128,-1,8
 35 273 35 273 35 355 c 256,9,10
 35 437 35 437 62 504 c 128,-1,11
 89 571 89 571 138.5 619.5 c 128,-1,12
 188 668 188 668 255.5 694 c 128,-1,13
 323 720 323 720 402 720 c 0,14,15
 482 720 482 720 549.5 694 c 128,-1,16
 617 668 617 668 666.5 619.5 c 128,-1,17
 716 571 716 571 743 504 c 128,-1,18
 770 437 770 437 770 355 c 256,19,20
 770 273 770 273 743 205.5 c 128,-1,21
 716 138 716 138 666.5 90 c 128,-1,22
 617 42 617 42 549.5 16 c 128,-1,23
 482 -10 482 -10 402 -10 c 256,4,5
402 88 m 0,24,25
 440 88 440 88 470 105 c 128,-1,26
 500 122 500 122 521.5 155.5 c 128,-1,27
 543 189 543 189 554.5 239 c 128,-1,28
 566 289 566 289 566 355 c 256,29,30
 566 421 566 421 554.5 470.5 c 128,-1,31
 543 520 543 520 521.5 553.5 c 128,-1,32
 500 587 500 587 470 604.5 c 128,-1,33
 440 622 440 622 403 622 c 0,34,35
 365 622 365 622 334.5 604.5 c 128,-1,36
 304 587 304 587 283 553.5 c 128,-1,37
 262 520 262 520 250.5 470.5 c 128,-1,38
 239 421 239 421 239 355 c 256,39,40
 239 289 239 289 250.5 239 c 128,-1,41
 262 189 262 189 283.5 155.5 c 128,-1,42
 305 122 305 122 335.5 105 c 128,-1,43
 366 88 366 88 402 88 c 0,24,25
EndSplineSet
EndChar

StartChar: Hastrokecyr
Encoding: 1278 1278 321
Width: 729
GlyphClass: 2
Flags: W
AnchorPoint: "Anchor-1" 343 0 basechar 0
AnchorPoint: "Anchor-0" 371 741 basechar 0
LayerCount: 2
Fore
SplineSet
131 413 m 1,0,-1
 594 413 l 1,1,-1
 594 321 l 1,2,-1
 131 321 l 1,3,-1
 131 413 l 1,0,-1
26 626 m 1,4,-1
 26 710 l 1,5,-1
 365 710 l 1,6,-1
 365 626 l 1,7,-1
 343 626 l 2,8,9
 331 626 331 626 321 624.5 c 128,-1,10
 311 623 311 623 306 620.5 c 128,-1,11
 301 618 301 618 302 613 c 2,12,-1
 434 407 l 1,13,-1
 445 404 l 1,14,-1
 641 116 l 2,15,16
 655 96 655 96 670.5 90 c 128,-1,17
 686 84 686 84 704 84 c 2,18,-1
 714 84 l 1,19,-1
 714 0 l 1,20,-1
 367 0 l 1,21,-1
 367 84 l 1,22,-1
 385 84 l 2,23,24
 397 84 397 84 408.5 85 c 128,-1,25
 420 86 420 86 427 88.5 c 128,-1,26
 434 91 434 91 434 94 c 2,27,-1
 281 327 l 1,28,-1
 270 331 l 1,29,-1
 95 594 l 2,30,31
 81 615 81 615 67.5 620.5 c 128,-1,32
 54 626 54 626 35 626 c 2,33,-1
 26 626 l 1,4,-1
15 0 m 1,34,-1
 15 84 l 1,35,-1
 28 84 l 2,36,37
 44 84 44 84 57.5 92.5 c 128,-1,38
 71 101 71 101 89 127 c 2,39,-1
 272 389 l 1,40,-1
 350 347 l 1,41,-1
 181 99 l 2,42,43
 181 94 181 94 187 90.5 c 128,-1,44
 193 87 193 87 203 85.5 c 128,-1,45
 213 84 213 84 222 84 c 2,46,-1
 243 84 l 1,47,-1
 243 0 l 1,48,-1
 15 0 l 1,34,-1
455 342 m 1,49,-1
 388 399 l 1,50,-1
 529 607 l 2,51,52
 531 614 531 614 525 618 c 128,-1,53
 519 622 519 622 509 624 c 128,-1,54
 499 626 499 626 487 626 c 2,55,-1
 467 626 l 1,56,-1
 467 710 l 1,57,-1
 691 710 l 1,58,-1
 691 626 l 1,59,-1
 683 626 l 2,60,61
 666 626 666 626 652.5 618 c 128,-1,62
 639 610 639 610 624 589 c 2,63,-1
 455 342 l 1,49,-1
EndSplineSet
EndChar

StartChar: a
Encoding: 97 97 322
Width: 586
GlyphClass: 2
Flags: W
AnchorPoint: "Anchor-2" 440 -9 basechar 0
AnchorPoint: "Anchor-1" 302 0 basechar 0
AnchorPoint: "Anchor-0" 272 514 basechar 0
LayerCount: 2
Fore
SplineSet
366 318 m 1,0,-1
 365 249 l 1,1,2
 330 244 330 244 303 237.5 c 128,-1,3
 276 231 276 231 256.5 222.5 c 128,-1,4
 237 214 237 214 225 202.5 c 128,-1,5
 213 191 213 191 207.5 177 c 128,-1,6
 202 163 202 163 202 145 c 0,7,8
 202 125 202 125 209.5 111.5 c 128,-1,9
 217 98 217 98 230.5 91.5 c 128,-1,10
 244 85 244 85 261 85 c 0,11,12
 284 85 284 85 303 95 c 128,-1,13
 322 105 322 105 337 123.5 c 128,-1,14
 352 142 352 142 363 169 c 1,15,-1
 370 106 l 1,16,17
 356 69 356 69 332 43 c 128,-1,18
 308 17 308 17 274 3.5 c 128,-1,19
 240 -10 240 -10 196 -10 c 0,20,21
 144 -10 144 -10 107 5.5 c 128,-1,22
 70 21 70 21 49.5 51.5 c 128,-1,23
 29 82 29 82 29 127 c 0,24,25
 29 173 29 173 50.5 205 c 128,-1,26
 72 237 72 237 114 258.5 c 128,-1,27
 156 280 156 280 219 294 c 128,-1,28
 282 308 282 308 366 318 c 1,0,-1
360 0 m 1,29,-1
 360 98 l 1,30,-1
 343 97 l 1,31,-1
 343 358 l 2,32,33
 343 384 343 384 335 400.5 c 128,-1,34
 327 417 327 417 311 424.5 c 128,-1,35
 295 432 295 432 270 432 c 0,36,37
 235 432 235 432 210.5 420 c 128,-1,38
 186 408 186 408 173 389 c 1,39,40
 166 398 166 398 166 408.5 c 128,-1,41
 166 419 166 419 171 430 c 128,-1,42
 176 441 176 441 185.5 449 c 128,-1,43
 195 457 195 457 208 460 c 1,44,-1
 208 349 l 1,45,-1
 65 349 l 1,46,-1
 65 457 l 1,47,48
 80 469 80 469 109.5 484.5 c 128,-1,49
 139 500 139 500 184.5 512 c 128,-1,50
 230 524 230 524 290 524 c 0,51,52
 341 524 341 524 384 513.5 c 128,-1,53
 427 503 427 503 458.5 482 c 128,-1,54
 490 461 490 461 507 427.5 c 128,-1,55
 524 394 524 394 524 347 c 2,56,-1
 524 111 l 2,57,58
 524 101 524 101 529.5 95 c 128,-1,59
 535 89 535 89 545 86 c 128,-1,60
 555 83 555 83 570 82 c 2,61,-1
 575 81 l 1,62,-1
 575 0 l 1,63,-1
 360 0 l 1,29,-1
EndSplineSet
Substitution2: "'ss06' Style Set 6 lookup 66 subtable" a.alt
EndChar

StartChar: aogonek
Encoding: 261 261 331
Width: 586
GlyphClass: 1
Flags: W
LayerCount: 2
Fore
SplineSet
230 -138 m 0,0,1
 230 -109 230 -109 244 -85 c 128,-1,2
 258 -61 258 -61 285 -39.5 c 128,-1,3
 312 -18 312 -18 352 2 c 128,-1,4
 392 22 392 22 444 42 c 1,5,-1
 489 12 l 1,6,7
 456 -5 456 -5 433.5 -21 c 128,-1,8
 411 -37 411 -37 397.5 -52.5 c 128,-1,9
 384 -68 384 -68 377.5 -82.5 c 128,-1,10
 371 -97 371 -97 371 -111 c 0,11,12
 371 -130 371 -130 381 -141 c 128,-1,13
 391 -152 391 -152 408 -152 c 0,14,15
 423 -152 423 -152 436 -144.5 c 128,-1,16
 449 -137 449 -137 458 -128 c 1,17,-1
 501 -176 l 1,18,19
 477 -205 477 -205 445 -223.5 c 128,-1,20
 413 -242 413 -242 360 -242 c 0,21,22
 302 -242 302 -242 266 -215.5 c 128,-1,23
 230 -189 230 -189 230 -138 c 0,0,1
575 0 m 1,24,-1
 360 0 l 1,25,-1
 360 98 l 1,26,-1
 343 97 l 1,27,-1
 343 358 l 2,28,29
 343 384 343 384 335 400.5 c 128,-1,30
 327 417 327 417 311 424.5 c 128,-1,31
 295 432 295 432 270 432 c 0,32,33
 235 432 235 432 210 420.5 c 128,-1,34
 185 409 185 409 173 390 c 1,35,36
 166 400 166 400 166 411 c 128,-1,37
 166 422 166 422 170.5 432 c 128,-1,38
 175 442 175 442 185 450 c 128,-1,39
 195 458 195 458 208 460 c 1,40,-1
 208 349 l 1,41,-1
 65 349 l 1,42,-1
 65 457 l 1,43,44
 80 469 80 469 109.5 485 c 128,-1,45
 139 501 139 501 184.5 512.5 c 128,-1,46
 230 524 230 524 290 524 c 0,47,48
 341 524 341 524 384 513.5 c 128,-1,49
 427 503 427 503 458 482 c 128,-1,50
 489 461 489 461 506.5 427.5 c 128,-1,51
 524 394 524 394 524 347 c 2,52,-1
 524 113 l 2,53,54
 524 103 524 103 529 97 c 128,-1,55
 534 91 534 91 544.5 88 c 128,-1,56
 555 85 555 85 570 83 c 2,57,-1
 575 82 l 1,58,-1
 575 0 l 1,24,-1
29 127 m 0,59,60
 29 173 29 173 50 205 c 128,-1,61
 71 237 71 237 113.5 258.5 c 128,-1,62
 156 280 156 280 219 294 c 128,-1,63
 282 308 282 308 365 318 c 1,64,-1
 365 249 l 1,65,66
 330 245 330 245 303 238.5 c 128,-1,67
 276 232 276 232 256.5 223 c 128,-1,68
 237 214 237 214 225 203 c 128,-1,69
 213 192 213 192 207.5 177.5 c 128,-1,70
 202 163 202 163 202 145 c 0,71,72
 202 124 202 124 209 111 c 128,-1,73
 216 98 216 98 229.5 91.5 c 128,-1,74
 243 85 243 85 261 85 c 0,75,76
 284 85 284 85 303 94.5 c 128,-1,77
 322 104 322 104 337 123 c 128,-1,78
 352 142 352 142 363 168 c 1,79,-1
 369 106 l 1,80,81
 356 68 356 68 332 42.5 c 128,-1,82
 308 17 308 17 273.5 3.5 c 128,-1,83
 239 -10 239 -10 196 -10 c 0,84,85
 144 -10 144 -10 106.5 5.5 c 128,-1,86
 69 21 69 21 49 51.5 c 128,-1,87
 29 82 29 82 29 127 c 0,59,60
EndSplineSet
Substitution2: "'ss06' Style Set 6 lookup 66 subtable" aogonek.alt
EndChar

StartChar: acaron
Encoding: 462 462 332
Width: 586
GlyphClass: 1
Flags: W
LayerCount: 2
Fore
SplineSet
233 571 m 1,0,-1
 363 571 l 1,1,-1
 484 720 l 1,2,-1
 484 743 l 1,3,-1
 408 743 l 1,4,-1
 251 637 l 1,5,-1
 353 637 l 1,6,-1
 196 743 l 1,7,-1
 111 743 l 1,8,-1
 111 720 l 1,9,-1
 233 571 l 1,0,-1
366 318 m 1,10,-1
 365 249 l 1,11,12
 330 244 330 244 303 237.5 c 128,-1,13
 276 231 276 231 256.5 222.5 c 128,-1,14
 237 214 237 214 225 202.5 c 128,-1,15
 213 191 213 191 207.5 177 c 128,-1,16
 202 163 202 163 202 145 c 0,17,18
 202 125 202 125 209.5 111.5 c 128,-1,19
 217 98 217 98 230.5 91.5 c 128,-1,20
 244 85 244 85 261 85 c 0,21,22
 284 85 284 85 303 95 c 128,-1,23
 322 105 322 105 337 123.5 c 128,-1,24
 352 142 352 142 363 169 c 1,25,-1
 370 106 l 1,26,27
 356 69 356 69 332 43 c 128,-1,28
 308 17 308 17 274 3.5 c 128,-1,29
 240 -10 240 -10 196 -10 c 0,30,31
 144 -10 144 -10 107 5.5 c 128,-1,32
 70 21 70 21 49.5 51.5 c 128,-1,33
 29 82 29 82 29 127 c 0,34,35
 29 173 29 173 50.5 205 c 128,-1,36
 72 237 72 237 114 258.5 c 128,-1,37
 156 280 156 280 219 294 c 128,-1,38
 282 308 282 308 366 318 c 1,10,-1
360 0 m 1,39,-1
 360 98 l 1,40,-1
 343 97 l 1,41,-1
 343 358 l 2,42,43
 343 384 343 384 335 400.5 c 128,-1,44
 327 417 327 417 311 424.5 c 128,-1,45
 295 432 295 432 270 432 c 0,46,47
 235 432 235 432 210.5 420 c 128,-1,48
 186 408 186 408 173 389 c 1,49,50
 166 398 166 398 166 408.5 c 128,-1,51
 166 419 166 419 171 430 c 128,-1,52
 176 441 176 441 185.5 449 c 128,-1,53
 195 457 195 457 208 460 c 1,54,-1
 208 349 l 1,55,-1
 65 349 l 1,56,-1
 65 457 l 1,57,58
 80 469 80 469 109.5 484.5 c 128,-1,59
 139 500 139 500 184.5 512 c 128,-1,60
 230 524 230 524 290 524 c 0,61,62
 341 524 341 524 384 513.5 c 128,-1,63
 427 503 427 503 458.5 482 c 128,-1,64
 490 461 490 461 507 427.5 c 128,-1,65
 524 394 524 394 524 347 c 2,66,-1
 524 111 l 2,67,68
 524 101 524 101 529.5 95 c 128,-1,69
 535 89 535 89 545 86 c 128,-1,70
 555 83 555 83 570 82 c 2,71,-1
 575 81 l 1,72,-1
 575 0 l 1,73,-1
 360 0 l 1,39,-1
EndSplineSet
Substitution2: "'ss06' Style Set 6 lookup 66 subtable" acaron.alt
EndChar

StartChar: adblgrave
Encoding: 513 513 334
Width: 586
GlyphClass: 1
Flags: W
LayerCount: 2
Fore
SplineSet
425 695 m 2,0,-1
 439 588 l 1,1,-1
 439 564 l 1,2,-1
 370 564 l 1,3,-1
 322 631 l 2,4,5
 298 665 298 665 288.5 687.5 c 128,-1,6
 279 710 279 710 279 730 c 0,7,8
 279 755 279 755 295 771.5 c 128,-1,9
 311 788 311 788 343 788 c 0,10,11
 380 788 380 788 399.5 764.5 c 128,-1,12
 419 741 419 741 425 695 c 2,0,-1
242 695 m 2,13,-1
 256 588 l 1,14,-1
 256 564 l 1,15,-1
 187 564 l 1,16,-1
 140 631 l 2,17,18
 116 665 116 665 106.5 687.5 c 128,-1,19
 97 710 97 710 97 730 c 0,20,21
 97 755 97 755 113 771.5 c 128,-1,22
 129 788 129 788 161 788 c 0,23,24
 197 788 197 788 217 764.5 c 128,-1,25
 237 741 237 741 242 695 c 2,13,-1
366 318 m 1,26,-1
 365 249 l 1,27,28
 330 244 330 244 303 237.5 c 128,-1,29
 276 231 276 231 256.5 222.5 c 128,-1,30
 237 214 237 214 225 202.5 c 128,-1,31
 213 191 213 191 207.5 177 c 128,-1,32
 202 163 202 163 202 145 c 0,33,34
 202 125 202 125 209.5 111.5 c 128,-1,35
 217 98 217 98 230.5 91.5 c 128,-1,36
 244 85 244 85 261 85 c 0,37,38
 284 85 284 85 303 95 c 128,-1,39
 322 105 322 105 337 123.5 c 128,-1,40
 352 142 352 142 363 169 c 1,41,-1
 370 106 l 1,42,43
 356 69 356 69 332 43 c 128,-1,44
 308 17 308 17 274 3.5 c 128,-1,45
 240 -10 240 -10 196 -10 c 0,46,47
 144 -10 144 -10 107 5.5 c 128,-1,48
 70 21 70 21 49.5 51.5 c 128,-1,49
 29 82 29 82 29 127 c 0,50,51
 29 173 29 173 50.5 205 c 128,-1,52
 72 237 72 237 114 258.5 c 128,-1,53
 156 280 156 280 219 294 c 128,-1,54
 282 308 282 308 366 318 c 1,26,-1
360 0 m 1,55,-1
 360 98 l 1,56,-1
 343 97 l 1,57,-1
 343 358 l 2,58,59
 343 384 343 384 335 400.5 c 128,-1,60
 327 417 327 417 311 424.5 c 128,-1,61
 295 432 295 432 270 432 c 0,62,63
 235 432 235 432 210.5 420 c 128,-1,64
 186 408 186 408 173 389 c 1,65,66
 166 398 166 398 166 408.5 c 128,-1,67
 166 419 166 419 171 430 c 128,-1,68
 176 441 176 441 185.5 449 c 128,-1,69
 195 457 195 457 208 460 c 1,70,-1
 208 349 l 1,71,-1
 65 349 l 1,72,-1
 65 457 l 1,73,74
 80 469 80 469 109.5 484.5 c 128,-1,75
 139 500 139 500 184.5 512 c 128,-1,76
 230 524 230 524 290 524 c 0,77,78
 341 524 341 524 384 513.5 c 128,-1,79
 427 503 427 503 458.5 482 c 128,-1,80
 490 461 490 461 507 427.5 c 128,-1,81
 524 394 524 394 524 347 c 2,82,-1
 524 111 l 2,83,84
 524 101 524 101 529.5 95 c 128,-1,85
 535 89 535 89 545 86 c 128,-1,86
 555 83 555 83 570 82 c 2,87,-1
 575 81 l 1,88,-1
 575 0 l 1,89,-1
 360 0 l 1,55,-1
EndSplineSet
Substitution2: "'ss06' Style Set 6 lookup 66 subtable" adblgrave.alt
EndChar

StartChar: ainvertedbreve
Encoding: 515 515 335
Width: 586
GlyphClass: 1
Flags: W
LayerCount: 2
Fore
SplineSet
294 746 m 256,0,1
 243 746 243 746 204.5 727 c 128,-1,2
 166 708 166 708 145.5 668 c 128,-1,3
 125 628 125 628 125 568 c 1,4,-1
 214 568 l 1,5,6
 219 595 219 595 229 610 c 128,-1,7
 239 625 239 625 254.5 631 c 128,-1,8
 270 637 270 637 291 637 c 256,9,10
 312 637 312 637 328 631 c 128,-1,11
 344 625 344 625 354.5 610 c 128,-1,12
 365 595 365 595 369 568 c 1,13,-1
 463 568 l 1,14,15
 463 628 463 628 442 668 c 128,-1,16
 421 708 421 708 383 727 c 128,-1,17
 345 746 345 746 294 746 c 256,0,1
366 318 m 1,18,-1
 365 249 l 1,19,20
 330 244 330 244 303 237.5 c 128,-1,21
 276 231 276 231 256.5 222.5 c 128,-1,22
 237 214 237 214 225 202.5 c 128,-1,23
 213 191 213 191 207.5 177 c 128,-1,24
 202 163 202 163 202 145 c 0,25,26
 202 125 202 125 209.5 111.5 c 128,-1,27
 217 98 217 98 230.5 91.5 c 128,-1,28
 244 85 244 85 261 85 c 0,29,30
 284 85 284 85 303 95 c 128,-1,31
 322 105 322 105 337 123.5 c 128,-1,32
 352 142 352 142 363 169 c 1,33,-1
 370 106 l 1,34,35
 356 69 356 69 332 43 c 128,-1,36
 308 17 308 17 274 3.5 c 128,-1,37
 240 -10 240 -10 196 -10 c 0,38,39
 144 -10 144 -10 107 5.5 c 128,-1,40
 70 21 70 21 49.5 51.5 c 128,-1,41
 29 82 29 82 29 127 c 0,42,43
 29 173 29 173 50.5 205 c 128,-1,44
 72 237 72 237 114 258.5 c 128,-1,45
 156 280 156 280 219 294 c 128,-1,46
 282 308 282 308 366 318 c 1,18,-1
360 0 m 1,47,-1
 360 98 l 1,48,-1
 343 97 l 1,49,-1
 343 358 l 2,50,51
 343 384 343 384 335 400.5 c 128,-1,52
 327 417 327 417 311 424.5 c 128,-1,53
 295 432 295 432 270 432 c 0,54,55
 235 432 235 432 210.5 420 c 128,-1,56
 186 408 186 408 173 389 c 1,57,58
 166 398 166 398 166 408.5 c 128,-1,59
 166 419 166 419 171 430 c 128,-1,60
 176 441 176 441 185.5 449 c 128,-1,61
 195 457 195 457 208 460 c 1,62,-1
 208 349 l 1,63,-1
 65 349 l 1,64,-1
 65 457 l 1,65,66
 80 469 80 469 109.5 484.5 c 128,-1,67
 139 500 139 500 184.5 512 c 128,-1,68
 230 524 230 524 290 524 c 0,69,70
 341 524 341 524 384 513.5 c 128,-1,71
 427 503 427 503 458.5 482 c 128,-1,72
 490 461 490 461 507 427.5 c 128,-1,73
 524 394 524 394 524 347 c 2,74,-1
 524 111 l 2,75,76
 524 101 524 101 529.5 95 c 128,-1,77
 535 89 535 89 545 86 c 128,-1,78
 555 83 555 83 570 82 c 2,79,-1
 575 81 l 1,80,-1
 575 0 l 1,81,-1
 360 0 l 1,47,-1
EndSplineSet
Substitution2: "'ss06' Style Set 6 lookup 66 subtable" ainvertedbreve.alt
EndChar

StartChar: b
Encoding: 98 98 348
Width: 668
GlyphClass: 2
Flags: W
AnchorPoint: "Anchor-1" 349 0 basechar 0
AnchorPoint: "Anchor-0" 329 755 basechar 0
LayerCount: 2
Fore
SplineSet
400 -10 m 0,0,1
 355 -10 355 -10 320.5 1.5 c 128,-1,2
 286 13 286 13 259.5 38.5 c 128,-1,3
 233 64 233 64 211 105 c 1,4,-1
 221 213 l 1,5,6
 238 174 238 174 256.5 148 c 128,-1,7
 275 122 275 122 298 109.5 c 128,-1,8
 321 97 321 97 351 97 c 0,9,10
 375 97 375 97 393 108 c 128,-1,11
 411 119 411 119 422.5 140.5 c 128,-1,12
 434 162 434 162 440 192.5 c 128,-1,13
 446 223 446 223 446 262 c 0,14,15
 446 299 446 299 440.5 327.5 c 128,-1,16
 435 356 435 356 423.5 375.5 c 128,-1,17
 412 395 412 395 395.5 405 c 128,-1,18
 379 415 379 415 358 415 c 0,19,20
 330 415 330 415 306.5 401.5 c 128,-1,21
 283 388 283 388 261.5 359.5 c 128,-1,22
 240 331 240 331 218 285 c 1,23,-1
 212 378 l 1,24,25
 241 429 241 429 269.5 461 c 128,-1,26
 298 493 298 493 332 508.5 c 128,-1,27
 366 524 366 524 410 524 c 0,28,29
 478 524 478 524 529 491.5 c 128,-1,30
 580 459 580 459 608.5 400 c 128,-1,31
 637 341 637 341 637 262 c 0,32,33
 637 182 637 182 606.5 120.5 c 128,-1,34
 576 59 576 59 523 24.5 c 128,-1,35
 470 -10 470 -10 400 -10 c 0,0,1
68 621 m 2,36,37
 68 631 68 631 63.5 637 c 128,-1,38
 59 643 59 643 49.5 647 c 128,-1,39
 40 651 40 651 25 654 c 2,40,-1
 16 656 l 1,41,-1
 16 738 l 1,42,-1
 253 738 l 1,43,-1
 253 108 l 1,44,-1
 242 102 l 1,45,-1
 189 -2 l 1,46,-1
 68 -2 l 1,47,-1
 68 621 l 2,36,37
EndSplineSet
EndChar

StartChar: c
Encoding: 99 99 349
Width: 573
GlyphClass: 2
Flags: W
AnchorPoint: "Anchor-1" 316 0 basechar 0
AnchorPoint: "Anchor-0" 306 514 basechar 0
LayerCount: 2
Fore
SplineSet
346 87 m 0,0,1
 378 87 378 87 402 99.5 c 128,-1,2
 426 112 426 112 443.5 132.5 c 128,-1,3
 461 153 461 153 475 178 c 1,4,-1
 549 129 l 1,5,6
 529 90 529 90 498.5 58 c 128,-1,7
 468 26 468 26 424 8 c 128,-1,8
 380 -10 380 -10 320 -10 c 0,9,10
 236 -10 236 -10 171 22.5 c 128,-1,11
 106 55 106 55 68.5 115 c 128,-1,12
 31 175 31 175 31 257 c 0,13,14
 31 340 31 340 68 399.5 c 128,-1,15
 105 459 105 459 171.5 491.5 c 128,-1,16
 238 524 238 524 328 524 c 0,17,18
 385 524 385 524 426.5 513.5 c 128,-1,19
 468 503 468 503 496 489.5 c 128,-1,20
 524 476 524 476 536 466 c 1,21,-1
 536 325 l 1,22,-1
 394 325 l 1,23,-1
 394 462 l 1,24,25
 406 461 406 461 414.5 451.5 c 128,-1,26
 423 442 423 442 427.5 429.5 c 128,-1,27
 432 417 432 417 432 406 c 128,-1,28
 432 395 432 395 426 390 c 1,29,30
 414 406 414 406 391.5 417.5 c 128,-1,31
 369 429 369 429 338 429 c 0,32,33
 300 429 300 429 274 409 c 128,-1,34
 248 389 248 389 235 350.5 c 128,-1,35
 222 312 222 312 222 257 c 0,36,37
 222 217 222 217 230.5 185.5 c 128,-1,38
 239 154 239 154 255 132 c 128,-1,39
 271 110 271 110 294 98.5 c 128,-1,40
 317 87 317 87 346 87 c 0,0,1
EndSplineSet
EndChar

StartChar: ccaron
Encoding: 269 269 354
Width: 573
GlyphClass: 1
Flags: W
LayerCount: 2
Fore
SplineSet
244 573 m 1,0,-1
 373 573 l 1,1,-1
 495 721 l 1,2,-1
 495 744 l 1,3,-1
 419 744 l 1,4,-1
 262 638 l 1,5,-1
 364 638 l 1,6,-1
 207 744 l 1,7,-1
 122 744 l 1,8,-1
 122 721 l 1,9,-1
 244 573 l 1,0,-1
346 87 m 0,10,11
 378 87 378 87 402 99.5 c 128,-1,12
 426 112 426 112 443.5 132.5 c 128,-1,13
 461 153 461 153 475 178 c 1,14,-1
 549 129 l 1,15,16
 529 90 529 90 498.5 58 c 128,-1,17
 468 26 468 26 424 8 c 128,-1,18
 380 -10 380 -10 320 -10 c 0,19,20
 236 -10 236 -10 171 22.5 c 128,-1,21
 106 55 106 55 68.5 115 c 128,-1,22
 31 175 31 175 31 257 c 0,23,24
 31 340 31 340 68 399.5 c 128,-1,25
 105 459 105 459 171.5 491.5 c 128,-1,26
 238 524 238 524 328 524 c 0,27,28
 385 524 385 524 426.5 513.5 c 128,-1,29
 468 503 468 503 496 489.5 c 128,-1,30
 524 476 524 476 536 466 c 1,31,-1
 536 325 l 1,32,-1
 394 325 l 1,33,-1
 394 462 l 1,34,35
 406 461 406 461 414.5 451.5 c 128,-1,36
 423 442 423 442 427.5 429.5 c 128,-1,37
 432 417 432 417 432 406 c 128,-1,38
 432 395 432 395 426 390 c 1,39,40
 414 406 414 406 391.5 417.5 c 128,-1,41
 369 429 369 429 338 429 c 0,42,43
 300 429 300 429 274 409 c 128,-1,44
 248 389 248 389 235 350.5 c 128,-1,45
 222 312 222 312 222 257 c 0,46,47
 222 217 222 217 230.5 185.5 c 128,-1,48
 239 154 239 154 255 132 c 128,-1,49
 271 110 271 110 294 98.5 c 128,-1,50
 317 87 317 87 346 87 c 0,10,11
EndSplineSet
EndChar

StartChar: d
Encoding: 100 100 356
Width: 666
GlyphClass: 2
Flags: W
AnchorPoint: "Anchor-2" 631 735 basechar 0
AnchorPoint: "Anchor-1" 311 0 basechar 0
LayerCount: 2
Fore
SplineSet
601 111 m 2,0,1
 601 95 601 95 613.5 89.5 c 128,-1,2
 626 84 626 84 646 82 c 2,3,-1
 651 81 l 1,4,-1
 651 0 l 1,5,-1
 433 0 l 1,6,-1
 433 122 l 1,7,-1
 415 110 l 1,8,-1
 415 621 l 2,9,10
 415 631 415 631 410 637 c 128,-1,11
 405 643 405 643 394 647 c 128,-1,12
 383 651 383 651 367 654 c 2,13,-1
 358 656 l 1,14,-1
 358 738 l 1,15,-1
 601 738 l 1,16,-1
 601 111 l 2,0,1
268 524 m 0,17,18
 316 524 316 524 351 509 c 128,-1,19
 386 494 386 494 412.5 463 c 128,-1,20
 439 432 439 432 458 386 c 1,21,-1
 450 312 l 1,22,23
 431 348 431 348 412 371 c 128,-1,24
 393 394 393 394 371.5 404.5 c 128,-1,25
 350 415 350 415 323 415 c 0,26,27
 299 415 299 415 280.5 404.5 c 128,-1,28
 262 394 262 394 249 373.5 c 128,-1,29
 236 353 236 353 229 322.5 c 128,-1,30
 222 292 222 292 222 251 c 0,31,32
 222 214 222 214 228 185.5 c 128,-1,33
 234 157 234 157 246 138 c 128,-1,34
 258 119 258 119 274.5 109.5 c 128,-1,35
 291 100 291 100 312 100 c 0,36,37
 340 100 340 100 363 113 c 128,-1,38
 386 126 386 126 407 154 c 128,-1,39
 428 182 428 182 449 226 c 1,40,-1
 456 138 l 1,41,42
 431 89 431 89 404 56 c 128,-1,43
 377 23 377 23 343 6.5 c 128,-1,44
 309 -10 309 -10 261 -10 c 0,45,46
 192 -10 192 -10 140.5 22.5 c 128,-1,47
 89 55 89 55 60 114 c 128,-1,48
 31 173 31 173 31 251 c 0,49,50
 31 331 31 331 61.5 392.5 c 128,-1,51
 92 454 92 454 145.5 489 c 128,-1,52
 199 524 199 524 268 524 c 0,17,18
EndSplineSet
EndChar

StartChar: e
Encoding: 101 101 360
Width: 587
GlyphClass: 2
Flags: W
AnchorPoint: "Anchor-2" 464 1 basechar 0
AnchorPoint: "Anchor-1" 322 0 basechar 0
AnchorPoint: "Anchor-0" 299 514 basechar 0
LayerCount: 2
Fore
SplineSet
216 255 m 0,0,1
 216 213 216 213 224.5 181.5 c 128,-1,2
 233 150 233 150 249.5 129.5 c 128,-1,3
 266 109 266 109 290 98.5 c 128,-1,4
 314 88 314 88 345 88 c 0,5,6
 380 88 380 88 404.5 98.5 c 128,-1,7
 429 109 429 109 447 127.5 c 128,-1,8
 465 146 465 146 479 168 c 1,9,-1
 550 119 l 1,10,11
 531 81 531 81 500 51.5 c 128,-1,12
 469 22 469 22 425 6 c 128,-1,13
 381 -10 381 -10 321 -10 c 0,14,15
 234 -10 234 -10 168.5 22 c 128,-1,16
 103 54 103 54 67 114 c 128,-1,17
 31 174 31 174 31 255 c 256,18,19
 31 336 31 336 66.5 396.5 c 128,-1,20
 102 457 102 457 164 490.5 c 128,-1,21
 226 524 226 524 304 524 c 0,22,23
 367 524 367 524 414.5 505.5 c 128,-1,24
 462 487 462 487 494 450 c 128,-1,25
 526 413 526 413 543 357.5 c 128,-1,26
 560 302 560 302 560 227 c 1,27,-1
 183 227 l 1,28,-1
 183 307 l 1,29,-1
 409 307 l 1,30,-1
 389 274 l 1,31,32
 388 321 388 321 383 352.5 c 128,-1,33
 378 384 378 384 368 402.5 c 128,-1,34
 358 421 358 421 342.5 429.5 c 128,-1,35
 327 438 327 438 308 438 c 0,36,37
 288 438 288 438 271.5 427.5 c 128,-1,38
 255 417 255 417 242.5 394.5 c 128,-1,39
 230 372 230 372 223 337.5 c 128,-1,40
 216 303 216 303 216 255 c 0,0,1
EndSplineSet
EndChar

StartChar: eogonek
Encoding: 281 281 368
Width: 587
GlyphClass: 1
Flags: W
LayerCount: 2
Fore
SplineSet
421 42 m 1,0,-1
 440 14 l 1,1,2
 415 3 415 3 386 -3.5 c 128,-1,3
 357 -10 357 -10 322 -10 c 0,4,5
 235 -10 235 -10 169 22 c 128,-1,6
 103 54 103 54 67 114 c 128,-1,7
 31 174 31 174 31 255 c 256,8,9
 31 336 31 336 66.5 396.5 c 128,-1,10
 102 457 102 457 164 490.5 c 128,-1,11
 226 524 226 524 304 524 c 0,12,13
 367 524 367 524 414.5 505.5 c 128,-1,14
 462 487 462 487 494 450 c 128,-1,15
 526 413 526 413 543 357.5 c 128,-1,16
 560 302 560 302 560 227 c 1,17,-1
 126 227 l 1,18,-1
 126 307 l 1,19,-1
 409 307 l 1,20,-1
 389 274 l 1,21,22
 388 320 388 320 383 351.5 c 128,-1,23
 378 383 378 383 368 402 c 128,-1,24
 358 421 358 421 342.5 429.5 c 128,-1,25
 327 438 327 438 308 438 c 0,26,27
 288 438 288 438 271.5 427.5 c 128,-1,28
 255 417 255 417 242.5 394 c 128,-1,29
 230 371 230 371 223 336.5 c 128,-1,30
 216 302 216 302 216 255 c 0,31,32
 216 213 216 213 224.5 181.5 c 128,-1,33
 233 150 233 150 249.5 129.5 c 128,-1,34
 266 109 266 109 290 98.5 c 128,-1,35
 314 88 314 88 345 88 c 0,36,37
 380 88 380 88 404.5 98.5 c 128,-1,38
 429 109 429 109 447 127.5 c 128,-1,39
 465 146 465 146 479 168 c 1,40,-1
 550 119 l 1,41,42
 536 92 536 92 518 71 c 128,-1,43
 500 50 500 50 472 29 c 0,44,45
 441 6 441 6 419.5 -13.5 c 128,-1,46
 398 -33 398 -33 384.5 -50.5 c 128,-1,47
 371 -68 371 -68 365 -83 c 128,-1,48
 359 -98 359 -98 359 -111 c 0,49,50
 359 -130 359 -130 369 -141 c 128,-1,51
 379 -152 379 -152 397 -152 c 0,52,53
 412 -152 412 -152 425.5 -143.5 c 128,-1,54
 439 -135 439 -135 449 -126 c 1,55,-1
 490 -176 l 1,56,57
 466 -206 466 -206 434.5 -224 c 128,-1,58
 403 -242 403 -242 352 -242 c 0,59,60
 314 -242 314 -242 283.5 -229.5 c 128,-1,61
 253 -217 253 -217 236 -193.5 c 128,-1,62
 219 -170 219 -170 219 -138 c 0,63,64
 219 -112 219 -112 231 -88 c 128,-1,65
 243 -64 243 -64 268 -41.5 c 128,-1,66
 293 -19 293 -19 331 2 c 128,-1,67
 369 23 369 23 421 42 c 1,0,-1
EndSplineSet
EndChar

